AmiriLatin-Regular.sfdir
StartChar: florin
Encoding: 402 402 989
Width: 428
Flags: W
LayerCount: 2
Fore
SplineSet
492 625 m 0
 492 609.666666667 486.166666667 597.5 474.5 588.5 c 128
 462.833333333 579.5 447.666666667 573.666666667 429 571 c 1
 351 634 l 1
 337 622.666666667 325.666666667 606.333333333 317 585 c 128
 308.333333333 563.666666667 301.666666667 541.333333333 297 518 c 128
 292.333333333 494.666666667 288.666666667 474.333333333 286 457 c 1
 399 457 l 1
 399 407 l 1
 279 407 l 1
 276.333333333 385.666666667 272.833333333 360.833333333 268.5 332.5 c 128
 264.166666667 304.166666667 259.666666667 274.5 255 243.5 c 128
 250.333333333 212.5 245.666666667 182.333333333 241 153 c 128
 236.333333333 123.666666667 232 97.5 228 74.5 c 128
 224 51.5 220.333333333 34 217 22 c 0
 210.333333333 -6 200 -34 186 -62 c 128
 172 -90 155.166666667 -115.833333333 135.5 -139.5 c 128
 115.833333333 -163.166666667 94.5 -182.166666667 71.5 -196.5 c 128
 48.5 -210.833333333 24.6666666667 -218 0 -218 c 0
 -16.6666666667 -218 -29.6666666667 -214.333333333 -39 -207 c 128
 -48.3333333333 -199.666666667 -54.6666666667 -192 -58 -184 c 128
 -61.3333333333 -176 -63 -170.333333333 -63 -167 c 0
 -63 -154.333333333 -60.5 -144.5 -55.5 -137.5 c 128
 -50.5 -130.5 -44.3333333333 -124.333333333 -37 -119 c 1
 65 -145 l 1
 82.3333333333 -123.666666667 96.6666666667 -95.3333333333 108 -60 c 128
 119.333333333 -24.6666666667 129.333333333 16 138 62 c 0
 142.666666667 89.3333333333 147.833333333 122 153.5 160 c 128
 159.166666667 198 165 238.5 171 281.5 c 128
 177 324.5 183 366.333333333 189 407 c 1
 102 407 l 1
 102 457 l 1
 196 457 l 1
 202 495.666666667 212 532.666666667 226 568 c 128
 240 603.333333333 261 632 289 654 c 128
 317 676 354 687 400 687 c 0
 422.666666667 687 440.666666667 683.5 454 676.5 c 128
 467.333333333 669.5 477 661.166666667 483 651.5 c 128
 489 641.833333333 492 633 492 625 c 0
EndSplineSet
EndChar
StartChar: uni02C9
Encoding: 713 713 990
Width: 334
GlyphClass: 2
Flags: W
AnchorPoint: "Ethiopic Mark" 167 718 basechar 0
LayerCount: 2
Fore
SplineSet
335 586 m 1
 0 586 l 1
 0 649 l 1
 335 649 l 1
 335 586 l 1
EndSplineSet
EndChar
StartChar: uni02D0
Encoding: 720 720 991
Width: 254
GlyphClass: 2
Flags: W
AnchorPoint: "Ethiopic Mark" 127 537 basechar 0
LayerCount: 2
Fore
SplineSet
212 481 m 1
 162 322 l 1
 93 322 l 1
 43 481 l 1
 212 481 l 1
212 0 m 1
 43 0 l 1
 93 159 l 1
 162 159 l 1
 212 0 l 1
EndSplineSet
EndChar
StartChar: uni030F
Encoding: 783 783 992
Width: 0
GlyphClass: 4
Flags: W
AnchorPoint: "Ethiopic Mark" -405 708 mark 0
LayerCount: 2
Fore
SplineSet
-272 761 m 1
 -328 761 l 1
 -480 858 l 2
 -487.333333333 862.666666667 -493.166666667 868.166666667 -497.5 874.5 c 128
 -501.833333333 880.833333333 -504 888.666666667 -504 898 c 0
 -504 908.666666667 -500.5 918.833333333 -493.5 928.5 c 128
 -486.5 938.166666667 -474.333333333 943 -457 943 c 0
 -443.666666667 943 -433.5 940.666666667 -426.5 936 c 128
 -419.5 931.333333333 -412.333333333 924.666666667 -405 916 c 2
 -272 761 l 1
-467 761 m 1
 -524 761 l 1
 -676 858 l 2
 -682.666666667 862.666666667 -688.166666667 868.166666667 -692.5 874.5 c 128
 -696.833333333 880.833333333 -699 888.666666667 -699 898 c 0
 -699 908.666666667 -695.666666667 918.833333333 -689 928.5 c 128
 -682.333333333 938.166666667 -670.333333333 943 -653 943 c 0
 -639 943 -628.5 940.666666667 -621.5 936 c 128
 -614.5 931.333333333 -607.333333333 924.666666667 -600 916 c 2
 -467 761 l 1
EndSplineSet
EndChar
StartChar: pi
Encoding: 960 960 994
Width: 594
GlyphClass: 2
Flags: W
AnchorPoint: "Ethiopic Mark" 297 537 basechar 0
LayerCount: 2
Fore
SplineSet
536 152 m 1
 574 152 l 1
 574 97.3333333333 562.833333333 56.3333333333 540.5 29 c 128
 518.166666667 1.66666666667 491.666666667 -12 461 -12 c 0
 429 -12 405.333333333 -5.16666666667 390 8.5 c 128
 374.666666667 22.1666666667 364.666666667 39.1666666667 360 59.5 c 128
 355.333333333 79.8333333333 353 99.3333333333 353 118 c 2
 353 401 l 1
 217 401 l 1
 217 172 l 2
 217 137.333333333 212.166666667 106.166666667 202.5 78.5 c 128
 192.833333333 50.8333333333 178.5 28.8333333333 159.5 12.5 c 128
 140.5 -3.83333333333 117.666666667 -12 91 -12 c 0
 71.6666666667 -12 56.8333333333 -5.16666666667 46.5 8.5 c 128
 36.1666666667 22.1666666667 29.1666666667 39.8333333333 25.5 61.5 c 128
 21.8333333333 83.1666666667 20 105.333333333 20 128 c 1
 53 128 l 1
 53 108.666666667 56.5 92.8333333333 63.5 80.5 c 128
 70.5 68.1666666667 79.6666666667 62 91 62 c 0
 98.3333333333 62 106.666666667 64.5 116 69.5 c 128
 125.333333333 74.5 134.166666667 84.1666666667 142.5 98.5 c 128
 150.833333333 112.833333333 157.833333333 134.166666667 163.5 162.5 c 128
 169.166666667 190.833333333 172 228.333333333 172 275 c 2
 172 401 l 1
 130 401 l 2
 108 401 91.8333333333 397.5 81.5 390.5 c 128
 71.1666666667 383.5 64.5 375.5 61.5 366.5 c 128
 57 353 57 353 54 344 c 1
 25 344 l 1
 25 358.666666667 28.8333333333 375.5 36.5 394.5 c 128
 44.1666666667 413.5 56.5 430 73.5 444 c 128
 90.5 458 113 465 141 465 c 2
 501 465 l 2
 512.333333333 465 522.666666667 467.5 532 472.5 c 128
 541.333333333 477.5 547 483.666666667 549 491 c 1
 574 491 l 1
 574 466.333333333 568.5 445.166666667 557.5 427.5 c 128
 546.5 409.833333333 527 401 499 401 c 2
 438 401 l 1
 438 135 l 2
 438 124 438 124 438 114 c 128
 438 104 438 104 438 96 c 0
 438 74.6666666667 440 58 444 46 c 128
 448 34 458.333333333 28 475 28 c 0
 489.666666667 28 503.5 38.1666666667 516.5 58.5 c 128
 529.5 78.8333333333 536 110 536 152 c 1
EndSplineSet
EndChar
StartChar: uni1203
Encoding: 4611 4611 998
Width: 500
GlyphClass: 2
Flags: W
AnchorPoint: "Ethiopic Mark" 266 651 basechar 0
LayerCount: 2
Fore
SplineSet
473 565 m 0
 473 551 471.5 536.166666667 468.5 520.5 c 128
 465.5 504.833333333 461 491 455 479 c 2
 267 101 l 2
 265 97 263.333333333 91.5 262 84.5 c 128
 260.666666667 77.5 260 71.6666666667 260 67 c 0
 260 51 266.666666667 39 280 31 c 1
 280 15 l 1
 177 3 l 2
 171.666666667 2.33333333333 166.5 1.66666666667 161.5 1 c 128
 156.5 0.333333333333 151.333333333 0 146 0 c 0
 130.666666667 0 119.333333333 2.66666666667 112 8 c 128
 104.666666667 13.3333333333 101 24.3333333333 101 41 c 0
 101 45 102.5 51.3333333333 105.5 60 c 128
 108.5 68.6666666667 111 74.6666666667 113 78 c 2
 253 362 l 1
 146 335 l 2
 141.333333333 333.666666667 136.333333333 332.5 131 331.5 c 128
 125.666666667 330.5 120.333333333 330 115 330 c 0
 97 330 83.8333333333 335.833333333 75.5 347.5 c 128
 67.1666666667 359.166666667 63 373.333333333 63 390 c 0
 63 406 64.6666666667 422.333333333 68 439 c 128
 71.3333333333 455.666666667 73 472 73 488 c 0
 73 500 70.8333333333 511.166666667 66.5 521.5 c 128
 62.1666666667 531.833333333 53.3333333333 538.666666667 40 542 c 1
 40 559 l 1
 48.6666666667 561.666666667 62 565.5 80 570.5 c 128
 98 575.5 115.666666667 580 133 584 c 128
 150.333333333 588 162.666666667 590 170 590 c 0
 185.333333333 590 196.333333333 585 203 575 c 128
 209.666666667 565 213 553 213 539 c 0
 213 512.333333333 209.166666667 486.666666667 201.5 462 c 128
 193.833333333 437.333333333 190 411 190 383 c 1
 272 402 l 1
 277.333333333 412 284.333333333 426.333333333 293 445 c 128
 301.666666667 463.666666667 309.5 482.333333333 316.5 501 c 128
 323.5 519.666666667 327 534.666666667 327 546 c 0
 327 563.333333333 320.666666667 577 308 587 c 1
 308 599 l 1
 318.666666667 601.666666667 331.666666667 605.166666667 347 609.5 c 128
 362.333333333 613.833333333 377.666666667 617.5 393 620.5 c 128
 408.333333333 623.5 420 625 428 625 c 0
 445.333333333 625 457.166666667 618.666666667 463.5 606 c 128
 469.833333333 593.333333333 473 579.666666667 473 565 c 0
EndSplineSet
EndChar
StartChar: uni1205
Encoding: 4613 4613 1000
Width: 553
GlyphClass: 2
Flags: W
AnchorPoint: "Ethiopic Mark" 276 636 basechar 0
LayerCount: 2
Fore
SplineSet
525 403 m 0
 525 367 522.833333333 328.833333333 518.5 288.5 c 128
 514.166666667 248.166666667 505.166666667 209.666666667 491.5 173 c 128
 477.833333333 136.333333333 456.666666667 104.666666667 428 78 c 0
 398 50 363 30 323 18 c 128
 283 6 242.666666667 0 202 0 c 0
 158.666666667 0 127.666666667 10.1666666667 109 30.5 c 128
 90.3333333333 50.8333333333 81 81.6666666667 81 123 c 0
 81 133 82.5 148.833333333 85.5 170.5 c 128
 88.5 192.166666667 92.1666666667 214.833333333 96.5 238.5 c 128
 100.833333333 262.166666667 104.333333333 282.666666667 107 300 c 1
 36 287 l 1
 39.3333333333 303 43.3333333333 322.833333333 48 346.5 c 128
 52.6666666667 370.166666667 56.8333333333 392.5 60.5 413.5 c 128
 64.1666666667 434.5 66 449 66 457 c 0
 66 462.333333333 64.5 469.166666667 61.5 477.5 c 128
 58.5 485.833333333 53.3333333333 490.666666667 46 492 c 1
 46 504 l 1
 62 508 62 508 88 514.5 c 128
 105.333333333 518.833333333 122.5 522.666666667 139.5 526 c 128
 156.5 529.333333333 168.666666667 531 176 531 c 0
 189.333333333 531 197.5 526.5 200.5 517.5 c 128
 203.5 508.5 205 498.666666667 205 488 c 0
 205 479.333333333 203.333333333 466 200 448 c 128
 196.666666667 430 193.166666667 412.166666667 189.5 394.5 c 128
 185.833333333 376.833333333 183 363 181 353 c 1
 256 368 l 1
 250.666666667 341.333333333 245.5 314.5 240.5 287.5 c 128
 235.5 260.5 230.666666667 233.666666667 226 207 c 0
 223.333333333 193 220.333333333 176.5 217 157.5 c 128
 213.666666667 138.5 212 125.666666667 212 119 c 0
 212 99 216.333333333 82 225 68 c 128
 233.666666667 54 249 47 271 47 c 0
 287.666666667 47 302.166666667 54.1666666667 314.5 68.5 c 128
 326.833333333 82.8333333333 337.333333333 102 346 126 c 128
 354.666666667 150 361.666666667 176 367 204 c 128
 372.333333333 232 376.5 260 379.5 288 c 128
 382.5 316 384.5 341.333333333 385.5 364 c 128
 386.5 386.666666667 387 404 387 416 c 0
 387 448.666666667 385.166666667 476.5 381.5 499.5 c 128
 377.833333333 522.5 371 536.666666667 361 542 c 1
 361 558 l 1
 370.333333333 560.666666667 383.333333333 564.333333333 400 569 c 128
 416.666666667 573.666666667 433.5 577.833333333 450.5 581.5 c 128
 467.5 585.166666667 479.666666667 587 487 587 c 0
 496.333333333 587 503.666666667 581.166666667 509 569.5 c 128
 514.333333333 557.833333333 518 542.666666667 520 524 c 128
 522 505.333333333 523.333333333 485.333333333 524 464 c 128
 524.666666667 442.666666667 525 422.333333333 525 403 c 0
EndSplineSet
EndChar
StartChar: uni1206
Encoding: 4614 4614 1001
Width: 692
GlyphClass: 2
Flags: W
AnchorPoint: "Ethiopic Mark" 275 649 basechar 0
LayerCount: 2
Fore
SplineSet
692 526 m 0
 692 496 682.166666667 471.166666667 662.5 451.5 c 128
 642.833333333 431.833333333 618.166666667 417.333333333 588.5 408 c 128
 558.833333333 398.666666667 529.333333333 394 500 394 c 0
 494 394 488 394.166666667 482 394.5 c 128
 476 394.833333333 470 395.333333333 464 396 c 1
 449 235 l 2
 445 187.666666667 431.666666667 146.333333333 409 111 c 128
 386.333333333 75.6666666667 356.333333333 48.3333333333 319 29 c 128
 281.666666667 9.66666666667 239 0 191 0 c 0
 156.333333333 0 128.5 7.66666666667 107.5 23 c 128
 86.5 38.3333333333 71.3333333333 58.8333333333 62 84.5 c 128
 52.6666666667 110.166666667 48 138.666666667 48 170 c 0
 48 179.333333333 48.8333333333 193.333333333 50.5 212 c 128
 52.1666666667 230.666666667 54.3333333333 251.833333333 57 275.5 c 128
 59.6666666667 299.166666667 62.3333333333 322.666666667 65 346 c 128
 67.6666666667 369.333333333 69.8333333333 390.166666667 71.5 408.5 c 128
 73.1666666667 426.833333333 74 439.666666667 74 447 c 0
 74 457 72 466.833333333 68 476.5 c 128
 64 486.166666667 56.6666666667 492.333333333 46 495 c 1
 46 507 l 1
 55.3333333333 509.666666667 69 513.5 87 518.5 c 128
 105 523.5 122.666666667 528 140 532 c 128
 157.333333333 536 169.333333333 538 176 538 c 0
 189.333333333 538 197.666666667 533.166666667 201 523.5 c 128
 204.333333333 513.833333333 206 503.666666667 206 493 c 0
 206 483.666666667 205 467.666666667 203 445 c 128
 201 422.333333333 198.5 396 195.5 366 c 128
 192.5 336 189.5 305.166666667 186.5 273.5 c 128
 183.5 241.833333333 181 212.166666667 179 184.5 c 128
 177 156.833333333 176 134.333333333 176 117 c 0
 176 96.3333333333 180.666666667 78.3333333333 190 63 c 128
 199.333333333 47.6666666667 215.333333333 40 238 40 c 0
 256.666666667 40 271 47 281 61 c 128
 291 75 298.333333333 91.1666666667 303 109.5 c 128
 307.666666667 127.833333333 310.666666667 144 312 158 c 0
 314 175.333333333 316.166666667 196.666666667 318.5 222 c 128
 320.833333333 247.333333333 323.333333333 273.666666667 326 301 c 128
 328.666666667 328.333333333 331 354.5 333 379.5 c 128
 335 404.5 336.666666667 426 338 444 c 128
 339.333333333 462 340 473.666666667 340 479 c 0
 340 493 337.5 507.5 332.5 522.5 c 128
 327.5 537.5 319.333333333 546.333333333 308 549 c 1
 308 565 l 1
 350 574.333333333 392.333333333 583.5 435 592.5 c 128
 477.666666667 601.5 520 610.333333333 562 619 c 0
 569.333333333 620.333333333 577.166666667 621.833333333 585.5 623.5 c 128
 593.833333333 625.166666667 601.333333333 626 608 626 c 0
 638 626 659.5 616.333333333 672.5 597 c 128
 685.5 577.666666667 692 554 692 526 c 0
553 517 m 0
 553 530.333333333 549.833333333 542 543.5 552 c 128
 537.166666667 562 526.666666667 567 512 567 c 0
 496 567 486 560.666666667 482 548 c 128
 478 535.333333333 474.666666667 517.333333333 472 494 c 2
 466 426 l 1
 493.333333333 426 514.666666667 434.5 530 451.5 c 128
 545.333333333 468.5 553 490.333333333 553 517 c 0
EndSplineSet
EndChar
StartChar: uni120A
Encoding: 4618 4618 1005
Width: 799
GlyphClass: 2
Flags: W
AnchorPoint: "Ethiopic Mark" 268 659 basechar 0
LayerCount: 2
Fore
SplineSet
757 -33 m 1
 728.333333333 -49.6666666667 697.333333333 -58 664 -58 c 0
 637.333333333 -58 617.666666667 -52.5 605 -41.5 c 128
 592.333333333 -30.5 583.666666667 -12 579 14 c 1
 433 1 l 2
 430.333333333 1 427 0.833333333333 423 0.5 c 128
 419 0.166666666667 415.666666667 0 413 -0 c 0
 391.666666667 0 376.166666667 7.16666666667 366.5 21.5 c 128
 356.833333333 35.8333333333 350.333333333 55.8333333333 347 81.5 c 128
 343.666666667 107.166666667 340.666666667 137 338 171 c 0
 336.666666667 189 335.666666667 207 335 225 c 128
 334.333333333 243 333.333333333 261 332 279 c 0
 330 303 326.166666667 327.666666667 320.5 353 c 128
 314.833333333 378.333333333 305.333333333 401 292 421 c 1
 259.333333333 395 234.833333333 366.333333333 218.5 335 c 128
 202.166666667 303.666666667 191.5 269.833333333 186.5 233.5 c 128
 181.5 197.166666667 179 159 179 119 c 0
 179 109 179.333333333 98.3333333333 180 87 c 128
 180.666666667 75.6666666667 183.333333333 65.3333333333 188 56 c 128
 192.666666667 46.6666666667 201 40 213 36 c 1
 213 21 l 1
 112 2 l 2
 106.666666667 1.33333333333 101 0.666666666667 95 0 c 0
 74.3333333333 0 61.1666666667 7.66666666667 55.5 23 c 128
 49.8333333333 38.3333333333 47 54.6666666667 47 72 c 0
 47 133.333333333 51.1666666667 189.833333333 59.5 241.5 c 128
 67.8333333333 293.166666667 84.5 341.666666667 109.5 387 c 128
 134.5 432.333333333 171.666666667 475.333333333 221 516 c 1
 180 591 l 1
 303 633 l 1
 349 529 l 1
 379 513.666666667 402 491.166666667 418 461.5 c 128
 434 431.833333333 445.666666667 398.666666667 453 362 c 128
 460.333333333 325.333333333 465.166666667 288.5 467.5 251.5 c 128
 469.833333333 214.5 472.333333333 180.5 475 149.5 c 128
 477.666666667 118.5 482.5 93.5 489.5 74.5 c 128
 496.5 55.5 508 46 524 46 c 0
 532 46 541 46.6666666667 551 48 c 128
 566 50 566 50 581 52 c 1
 596.333333333 68 615.5 81.1666666667 638.5 91.5 c 128
 661.5 101.833333333 684.333333333 107 707 107 c 0
 712.333333333 107 718.666666667 106.5 726 105.5 c 128
 733.333333333 104.5 739.666666667 103.333333333 745 102 c 1
 741 92 737.5 81.8333333333 734.5 71.5 c 128
 731.5 61.1666666667 730 50.6666666667 730 40 c 0
 730 24.6666666667 732.166666667 11.6666666667 736.5 1 c 128
 740.833333333 -9.66666666667 747.666666667 -21 757 -33 c 1
EndSplineSet
EndChar
StartChar: uni120B
Encoding: 4619 4619 1006
Width: 520
GlyphClass: 2
Flags: W
AnchorPoint: "Ethiopic Mark" 256 659 basechar 0
LayerCount: 2
Fore
SplineSet
479 17 m 1
 382 1 l 2
 377.333333333 0.333333333333 374 0 372 0 c 0
 347.333333333 0 332.5 15.6666666667 327.5 47 c 128
 322.5 78.3333333333 319 121.666666667 317 177 c 0
 317 195 316.666666667 213.333333333 316 232 c 128
 315.333333333 250.666666667 314 269 312 287 c 0
 309.333333333 312.333333333 304.166666667 337.333333333 296.5 362 c 128
 288.833333333 386.666666667 276.333333333 408.666666667 259 428 c 1
 229 400.666666667 209.333333333 370.833333333 200 338.5 c 128
 190.666666667 306.166666667 186 270.333333333 186 231 c 0
 186 225 186.666666667 218.5 188 211.5 c 128
 189.333333333 204.5 193.666666667 199.666666667 201 197 c 1
 201 184 l 1
 111 168 l 2
 105.666666667 167.333333333 100 167 94 167 c 0
 73.3333333333 167 60.1666666667 174.5 54.5 189.5 c 128
 48.8333333333 204.5 46 220.666666667 46 238 c 0
 46 274 52.3333333333 309.833333333 65 345.5 c 128
 77.6666666667 381.166666667 95.6666666667 414.166666667 119 444.5 c 128
 142.333333333 474.833333333 169.666666667 498.666666667 201 516 c 1
 160 591 l 1
 283 633 l 1
 329 529 l 1
 359 507.666666667 382 481.5 398 450.5 c 128
 414 419.5 425 386 431 350 c 128
 437 314 440.5 278.333333333 441.5 243 c 128
 442.5 207.666666667 443.333333333 175 444 145 c 128
 444.666666667 115 447.333333333 89.8333333333 452 69.5 c 128
 456.666666667 49.1666666667 465.666666667 36.6666666667 479 32 c 1
 479 17 l 1
EndSplineSet
EndChar
StartChar: uni1210
Encoding: 4624 4624 1011
Width: 792
GlyphClass: 2
Flags: W
AnchorPoint: "Ethiopic Mark" 444 622 basechar 0
LayerCount: 2
Fore
SplineSet
759 14 m 1
 747 12.6666666667 732.833333333 10.8333333333 716.5 8.5 c 128
 700.166666667 6.16666666667 684.833333333 4.16666666667 670.5 2.5 c 128
 656.166666667 0.833333333333 645.666666667 0 639 0 c 0
 623.666666667 0 611.833333333 3.5 603.5 10.5 c 128
 595.166666667 17.5 590.666666667 29 590 45 c 2
 579 239 l 2
 577.666666667 267.666666667 567.833333333 288.166666667 549.5 300.5 c 128
 531.166666667 312.833333333 508.666666667 319 482 319 c 1
 453 111 l 2
 451 97.6666666667 450 84.3333333333 450 71 c 0
 450 59.6666666667 453.166666667 49.6666666667 459.5 41 c 128
 465.833333333 32.3333333333 475 27.6666666667 487 27 c 1
 487 11 l 1
 466.333333333 9 443.833333333 6.66666666667 419.5 4 c 128
 395.166666667 1.33333333333 375 0 359 0 c 0
 347 0 335.166666667 2 323.5 6 c 128
 311.833333333 10 306 19.3333333333 306 34 c 0
 306 43.3333333333 307 56.3333333333 309 73 c 128
 311 89.6666666667 312.666666667 102.333333333 314 111 c 2
 342 295 l 1
 314 293.666666667 290.833333333 286.666666667 272.5 274 c 128
 254.166666667 261.333333333 239.666666667 244.833333333 229 224.5 c 128
 218.333333333 204.166666667 210.833333333 182 206.5 158 c 128
 202.166666667 134 200 110.333333333 200 87 c 0
 200 81.6666666667 200.166666667 74.8333333333 200.5 66.5 c 128
 200.833333333 58.1666666667 202.333333333 50.5 205 43.5 c 128
 207.666666667 36.5 212.666666667 32.3333333333 220 31 c 1
 220 15 l 1
 122 2 l 2
 111 1 111 1 100 0 c 0
 80.6666666667 0 67 5 59 15 c 128
 51 25 47 39.3333333333 47 58 c 0
 47 120.666666667 59.6666666667 172.333333333 85 213 c 128
 110.333333333 253.666666667 145.5 284 190.5 304 c 128
 235.5 324 288 334 348 334 c 1
 350 350.666666667 352.5 369.166666667 355.5 389.5 c 128
 358.5 409.833333333 361.5 430 364.5 450 c 128
 367.5 470 369.833333333 487.5 371.5 502.5 c 128
 373.166666667 517.5 374 528 374 534 c 0
 374 553.333333333 365 565.666666667 347 571 c 1
 347 588 l 1
 454 604 l 2
 464.666666667 605.333333333 475.666666667 606 487 606 c 0
 496.333333333 606 503.833333333 604.333333333 509.5 601 c 128
 515.166666667 597.666666667 518 591 518 581 c 0
 518 575 517 564 515 548 c 128
 513 532 511 518.333333333 509 507 c 2
 487 353 l 1
 509 357 533 361.333333333 559 366 c 128
 585 370.666666667 606.333333333 373 623 373 c 0
 655.666666667 373 678.666666667 362.166666667 692 340.5 c 128
 705.333333333 318.833333333 713.333333333 293.333333333 716 264 c 2
 730 78 l 2
 730.666666667 66 732.833333333 55.8333333333 736.5 47.5 c 128
 740.166666667 39.1666666667 747.666666667 32 759 26 c 1
 759 14 l 1
EndSplineSet
EndChar
StartChar: uni1212
Encoding: 4626 4626 1013
Width: 1025
GlyphClass: 2
Flags: W
AnchorPoint: "Ethiopic Mark" 442 627 basechar 0
LayerCount: 2
Fore
SplineSet
989 -16 m 1
 973.666666667 -25.3333333333 956.833333333 -32.8333333333 938.5 -38.5 c 128
 920.166666667 -44.1666666667 902 -47 884 -47 c 0
 859.333333333 -47 839.333333333 -41 824 -29 c 128
 808.666666667 -17 801 2.33333333333 801 29 c 1
 670 3 l 2
 664.666666667 2.33333333333 659.333333333 1.5 654 0.5 c 128
 648.666666667 -0.5 643 -1 637 -1 c 0
 607 -1 591.333333333 14.3333333333 590 45 c 2
 579 239 l 2
 577.666666667 267.666666667 567.833333333 288.166666667 549.5 300.5 c 128
 531.166666667 312.833333333 508.666666667 319 482 319 c 1
 453 111 l 2
 451 97.6666666667 450 84.3333333333 450 71 c 0
 450 59.6666666667 453.166666667 49.6666666667 459.5 41 c 128
 465.833333333 32.3333333333 475 27.6666666667 487 27 c 1
 487 11 l 1
 466.333333333 9 443.166666667 6.66666666667 417.5 4 c 128
 391.833333333 1.33333333333 372.333333333 0 359 0 c 0
 347 0 335.166666667 2 323.5 6 c 128
 311.833333333 10 306 19.3333333333 306 34 c 0
 306 43.3333333333 307 55.1666666667 309 69.5 c 128
 311 83.8333333333 312.333333333 95.3333333333 313 104 c 2
 342 295 l 1
 314 293.666666667 290.833333333 286.666666667 272.5 274 c 128
 254.166666667 261.333333333 239.666666667 244.833333333 229 224.5 c 128
 218.333333333 204.166666667 210.833333333 182 206.5 158 c 128
 202.166666667 134 200 110.333333333 200 87 c 0
 200 71.6666666667 201.333333333 59.1666666667 204 49.5 c 128
 206.666666667 39.8333333333 212 33.6666666667 220 31 c 1
 220 15 l 1
 122 2 l 2
 111 1 111 1 100 0 c 0
 80.6666666667 0 67 5 59 15 c 128
 51 25 47 39.3333333333 47 58 c 0
 47 120.666666667 59.6666666667 172.333333333 85 213 c 128
 110.333333333 253.666666667 145.5 284 190.5 304 c 128
 235.5 324 288 334 348 334 c 1
 350 350 352.5 368.166666667 355.5 388.5 c 128
 358.5 408.833333333 361.5 429 364.5 449 c 128
 367.5 469 369.833333333 486.666666667 371.5 502 c 128
 373.166666667 517.333333333 374 528 374 534 c 0
 374 544.666666667 371.666666667 554.333333333 367 563 c 128
 362.333333333 571.666666667 355.666666667 577.333333333 347 580 c 1
 347 593 l 1
 359.666666667 595 374.833333333 597.5 392.5 600.5 c 128
 410.166666667 603.5 427.333333333 606 444 608 c 128
 460.666666667 610 472.333333333 611 479 611 c 0
 489.666666667 611 498.833333333 609 506.5 605 c 128
 514.166666667 601 518 593 518 581 c 0
 518 575 517 564 515 548 c 128
 513 532 511 518.333333333 509 507 c 2
 487 353 l 1
 513.666666667 357.666666667 539.833333333 362.166666667 565.5 366.5 c 128
 591.166666667 370.833333333 610.333333333 373 623 373 c 0
 655.666666667 373 678.666666667 362.166666667 692 340.5 c 128
 705.333333333 318.833333333 713.333333333 293.333333333 716 264 c 2
 729 98 l 2
 729.666666667 90.6666666667 731.666666667 82 735 72 c 128
 738.333333333 62 745 57 755 57 c 0
 761 57 768.5 57.8333333333 777.5 59.5 c 128
 786.5 61.1666666667 794.666666667 62.6666666667 802 64 c 1
 812.666666667 88 829.833333333 105.333333333 853.5 116 c 128
 877.166666667 126.666666667 901.333333333 132 926 132 c 0
 932.666666667 132 939.333333333 131.833333333 946 131.5 c 128
 952.666666667 131.166666667 959.333333333 130.333333333 966 129 c 1
 956 108.333333333 951 86.3333333333 951 63 c 0
 951 47.6666666667 954.5 33.3333333333 961.5 20 c 128
 968.5 6.66666666667 977.666666667 -5.33333333333 989 -16 c 1
EndSplineSet
EndChar
StartChar: uni1213
Encoding: 4627 4627 1014
Width: 772
GlyphClass: 2
Flags: W
AnchorPoint: "Ethiopic Mark" 414 615 basechar 0
LayerCount: 2
Fore
SplineSet
733 16 m 1
 641 2 l 2
 635.666666667 1.33333333333 630.5 0.666666666667 625.5 0 c 128
 620.5 -0.666697184245 615 -1.00003051758 609 -1 c 0
 579 -1 563 14 561 44 c 2
 550 238 l 2
 548.666666667 262 542.5 281.666666667 531.5 297 c 128
 520.5 312.333333333 502 320 476 320 c 0
 472.666666667 320 469 319.833333333 465 319.5 c 128
 461 319.166666667 457.333333333 318.666666667 454 318 c 1
 451.333333333 297.333333333 448.333333333 276.333333333 445 255 c 128
 441.666666667 233.666666667 440 212.333333333 440 191 c 0
 440 179 442.666666667 170.666666667 448 166 c 128
 453.333333333 161.333333333 461.333333333 158.333333333 472 157 c 1
 472 141 l 1
 382 124 l 2
 376.666666667 123.333333333 371.166666667 122.5 365.5 121.5 c 128
 359.833333333 120.5 354 120 348 120 c 0
 334.666666667 120 323.166666667 121.833333333 313.5 125.5 c 128
 303.833333333 129.166666667 299 138.666666667 299 154 c 0
 299 163.333333333 299.666666667 173.166666667 301 183.5 c 128
 302.333333333 193.833333333 303.666666667 203.333333333 305 212 c 2
 318 294 l 1
 294.666666667 293.333333333 274.166666667 287.5 256.5 276.5 c 128
 238.833333333 265.5 225 252.166666667 215 236.5 c 128
 205 220.833333333 200 205.333333333 200 190 c 0
 200 160.666666667 206 145 218 143 c 1
 218 127 l 1
 122 110 l 2
 117.333333333 109.333333333 112.833333333 108.666666667 108.5 108 c 128
 104.166666667 107.333333333 99.6666666667 107 95 107 c 0
 75.6666666667 107 62.8333333333 112.5 56.5 123.5 c 128
 50.1666666667 134.5 47 148.666666667 47 166 c 0
 47 193.333333333 56 217.166666667 74 237.5 c 128
 92 257.833333333 113.833333333 274.833333333 139.5 288.5 c 128
 165.166666667 302.166666667 189 312 211 318 c 0
 247 328 284.333333333 333 323 333 c 1
 344 498 l 2
 344.666666667 504 345.333333333 509.833333333 346 515.5 c 128
 346.666666667 521.166666667 347 527 347 533 c 0
 347 551.666666667 338 564 320 570 c 1
 320 587 l 1
 429 603 l 2
 439.666666667 604.333333333 449.666666667 605 459 605 c 0
 467.666666667 605 475 603.333333333 481 600 c 128
 487 596.666666667 490 590 490 580 c 0
 490 574.666666667 488.833333333 563.833333333 486.5 547.5 c 128
 484.166666667 531.166666667 482.333333333 517.333333333 481 506 c 2
 459 352 l 1
 481 356 503.5 360.333333333 526.5 365 c 128
 549.5 369.666666667 572 372 594 372 c 0
 626.666666667 372 649.833333333 361.166666667 663.5 339.5 c 128
 677.166666667 317.833333333 685 292.333333333 687 263 c 2
 702 88 l 2
 702.666666667 76.6666666667 705.166666667 65.5 709.5 54.5 c 128
 713.833333333 43.5 721.666666667 35.3333333333 733 30 c 1
 733 16 l 1
EndSplineSet
EndChar
StartChar: uni1215
Encoding: 4629 4629 1016
Width: 799
GlyphClass: 2
Flags: W
AnchorPoint: "Ethiopic Mark" 454 664 basechar 0
LayerCount: 2
Fore
SplineSet
759 14 m 1
 747 12 733 10 717 8 c 128
 701 6 686 4.16666666667 672 2.5 c 128
 658 0.833333333333 647 0 639 0 c 0
 623.666666667 0 611.833333333 3.5 603.5 10.5 c 128
 595.166666667 17.5 590.666666667 29 590 45 c 2
 579 239 l 2
 577.666666667 267.666666667 567.833333333 288.166666667 549.5 300.5 c 128
 531.166666667 312.833333333 508.666666667 319 482 319 c 1
 453 111 l 2
 451 97.6666666667 450 84.3333333333 450 71 c 0
 450 59.6666666667 453.166666667 49.6666666667 459.5 41 c 128
 465.833333333 32.3333333333 475 27.6666666667 487 27 c 1
 487 11 l 1
 466.333333333 9 443.333333333 6.66666666667 418 4 c 128
 392.666666667 1.33333333333 373 0 359 0 c 0
 347 0 335.166666667 2 323.5 6 c 128
 311.833333333 10 306 19.3333333333 306 34 c 0
 306 43.3333333333 306.666666667 54.5 308 67.5 c 128
 309.333333333 80.5 310.666666667 91.3333333333 312 100 c 2
 342 295 l 1
 314 293.666666667 290.833333333 286.5 272.5 273.5 c 128
 254.166666667 260.5 239.666666667 244 229 224 c 128
 218.333333333 204 210.833333333 182 206.5 158 c 128
 202.166666667 134 200 110.333333333 200 87 c 0
 200 53 206.666666667 34.3333333333 220 31 c 1
 220 15 l 1
 122 2 l 2
 111 1 111 1 100 0 c 0
 80.6666666667 0 67 5 59 15 c 128
 51 25 47 39.3333333333 47 58 c 0
 47 120.666666667 59.6666666667 172.333333333 85 213 c 128
 110.333333333 253.666666667 145.5 284 190.5 304 c 128
 235.5 324 288 334 348 334 c 1
 350.666666667 350.666666667 353.666666667 370.833333333 357 394.5 c 128
 360.333333333 418.166666667 363.333333333 439.666666667 366 459 c 128
 368.666666667 478.333333333 370 490.666666667 370 496 c 0
 370 499.333333333 369.666666667 502 369 504 c 128
 368.333333333 506 366 507 362 507 c 0
 358 507 353.166666667 506.5 347.5 505.5 c 128
 341.833333333 504.5 337 503.333333333 333 502 c 0
 321 495.333333333 305.333333333 491.166666667 286 489.5 c 128
 266.666666667 487.833333333 250.666666667 487 238 487 c 0
 230.666666667 487 222.166666667 487.666666667 212.5 489 c 128
 202.833333333 490.333333333 194.666666667 492.666666667 188 496 c 1
 195.333333333 506 201.5 516.666666667 206.5 528 c 128
 211.5 539.333333333 214 551.333333333 214 564 c 0
 214 576.666666667 211 589.333333333 205 602 c 128
 199 614.666666667 192.333333333 625.666666667 185 635 c 1
 199 639.666666667 213.166666667 642.833333333 227.5 644.5 c 128
 241.833333333 646.166666667 256.333333333 647 271 647 c 0
 285 647 300.5 644.5 317.5 639.5 c 128
 334.5 634.5 349.166666667 626.833333333 361.5 616.5 c 128
 373.833333333 606.166666667 380 592 380 574 c 0
 380 563.333333333 378.666666667 554 376 546 c 1
 386.666666667 547.333333333 398.833333333 549 412.5 551 c 128
 426.166666667 553 439.333333333 554.833333333 452 556.5 c 128
 464.666666667 558.166666667 474 559 480 559 c 0
 488.666666667 559 496 557.333333333 502 554 c 128
 508 550.666666667 511 544 511 534 c 0
 511 528 510 517.166666667 508 501.5 c 128
 506 485.833333333 504 472 502 460 c 2
 487 353 l 1
 519.666666667 359 547.333333333 363.833333333 570 367.5 c 128
 592.666666667 371.166666667 610.333333333 373 623 373 c 0
 655.666666667 373 678.666666667 362.166666667 692 340.5 c 128
 705.333333333 318.833333333 713.333333333 293.333333333 716 264 c 2
 730 78 l 2
 730.666666667 66 732.833333333 55.8333333333 736.5 47.5 c 128
 740.166666667 39.1666666667 747.666666667 32 759 26 c 1
 759 14 l 1
EndSplineSet
EndChar
StartChar: uni1217
Encoding: 4631 4631 1018
Width: 975
GlyphClass: 2
Flags: W
AnchorPoint: "Ethiopic Mark" 419 690 basechar 0
LayerCount: 2
Fore
SplineSet
933 -14 m 1
 927.666666667 -19.3333333333 919.833333333 -23 909.5 -25 c 128
 899.166666667 -27 890.666666667 -28 884 -28 c 0
 852 -28 825.166666667 -19.3333333333 803.5 -2 c 128
 781.833333333 15.3333333333 770 40.6666666667 768 74 c 1
 514 58 l 1
 518.666666667 34.6666666667 514.5 14.3333333333 501.5 -3 c 128
 488.5 -20.3333333333 471.333333333 -33.6666666667 450 -43 c 128
 428.666666667 -52.3333333333 408 -57 388 -57 c 0
 381.333333333 -57 374.666666667 -56.8333333333 368 -56.5 c 128
 361.333333333 -56.1666666667 354.666666667 -55.6666666667 348 -55 c 1
 356.666666667 -41.6666666667 362.666666667 -23.8333333333 366 -1.5 c 128
 369.333333333 20.8333333333 371 39.3333333333 371 54 c 0
 371 64 369 74.3333333333 365 85 c 1
 560 97 l 1
 560.666666667 101 561 107.666666667 561 117 c 128
 561 126.333333333 560.666666667 136.666666667 560 148 c 2
 550 314 l 2
 548.666666667 338 542.5 357.666666667 531.5 373 c 128
 520.5 388.333333333 501.666666667 396 475 396 c 0
 467.666666667 396 460.666666667 395.333333333 454 394 c 1
 451.333333333 373.333333333 448.333333333 352.333333333 445 331 c 128
 441.666666667 309.666666667 440 288.333333333 440 267 c 0
 440 246.333333333 450.666666667 235 472 233 c 1
 472 217 l 1
 382 200 l 2
 376.666666667 199.333333333 371.166666667 198.5 365.5 197.5 c 128
 359.833333333 196.5 354 196 348 196 c 0
 334.666666667 196 323.166666667 197.833333333 313.5 201.5 c 128
 303.833333333 205.166666667 299 214.666666667 299 230 c 0
 299 239.333333333 299.833333333 248.5 301.5 257.5 c 128
 303.166666667 266.5 304.666666667 275.666666667 306 285 c 2
 318 370 l 1
 294.666666667 369.333333333 274.333333333 363.666666667 257 353 c 128
 239.666666667 342.333333333 226 329.5 216 314.5 c 128
 206 299.5 200.666666667 285 200 271 c 0
 199.333333333 239 205.333333333 221.666666667 218 219 c 1
 218 203 l 1
 122 186 l 2
 117.333333333 185.333333333 112.833333333 184.666666667 108.5 184 c 128
 104.166666667 183.333333333 99.6666666667 183 95 183 c 0
 76.3333333333 183 63.6666666667 188.666666667 57 200 c 128
 50.3333333333 211.333333333 47 225.333333333 47 242 c 0
 47 269.333333333 56 293.166666667 74 313.5 c 128
 92 333.833333333 113.833333333 350.833333333 139.5 364.5 c 128
 165.166666667 378.166666667 189 388.333333333 211 395 c 0
 247 405 284.333333333 409.666666667 323 409 c 1
 345 574 l 2
 345.666666667 580 346.166666667 585.833333333 346.5 591.5 c 128
 346.833333333 597.166666667 347 603 347 609 c 0
 347 628.333333333 338 640.666666667 320 646 c 1
 320 663 l 1
 424 678 l 2
 429.333333333 678.666666667 435.166666667 679.333333333 441.5 680 c 128
 447.833333333 680.666666667 453.666666667 681 459 681 c 0
 468.333333333 681 475.833333333 679.166666667 481.5 675.5 c 128
 487.166666667 671.833333333 490 665.333333333 490 656 c 0
 490 651.333333333 488.833333333 640.666666667 486.5 624 c 128
 484.166666667 607.333333333 482.333333333 593.333333333 481 582 c 2
 459 428 l 1
 550 444 l 2
 557.333333333 445.333333333 564.666666667 446.333333333 572 447 c 128
 579.333333333 447.666666667 586.666666667 448 594 448 c 0
 626.666666667 448 649.833333333 437 663.5 415 c 128
 677.166666667 393 685 367.666666667 687 339 c 2
 702 164 l 2
 703.333333333 147.333333333 704.5 133.833333333 705.5 123.5 c 128
 706.5 113.166666667 708 107.333333333 710 106 c 1
 920 118 l 1
 916 102.666666667 914 86.3333333333 914 69 c 0
 914 58.3333333333 915.333333333 44 918 26 c 128
 920.666666667 8 925.666666667 -5.33333333333 933 -14 c 1
EndSplineSet
EndChar
StartChar: uni1218
Encoding: 4632 4632 1019
Width: 933
GlyphClass: 2
Flags: W
AnchorPoint: "Ethiopic Mark" 547 586 basechar 0
LayerCount: 2
Fore
SplineSet
906 425 m 0
 906 391.666666667 899.833333333 361.333333333 887.5 334 c 128
 875.166666667 306.666666667 857 285.166666667 833 269.5 c 128
 809 253.833333333 779.333333333 246 744 246 c 0
 735.333333333 246 726.833333333 246.333333333 718.5 247 c 128
 710.166666667 247.666666667 701.666666667 248 693 248 c 0
 687 248 679.333333333 246.5 670 243.5 c 128
 660.666666667 240.5 652.666666667 238 646 236 c 0
 624.666666667 230 604.333333333 227 585 227 c 0
 566.333333333 227 552.5 229.333333333 543.5 234 c 128
 534.5 238.666666667 530 251.333333333 530 272 c 0
 530 282.666666667 530.833333333 293.166666667 532.5 303.5 c 128
 534.166666667 313.833333333 536 324 538 334 c 2
 576 513 l 1
 526 507 l 1
 433 258 l 2
 421.666666667 228 407.5 207.333333333 390.5 196 c 128
 373.5 184.666666667 349 179 317 179 c 0
 307 179 297.166666667 179.333333333 287.5 180 c 128
 277.833333333 180.666666667 268.333333333 181 259 181 c 0
 245.666666667 181 233.333333333 178.166666667 222 172.5 c 128
 210.666666667 166.833333333 198.5 161.166666667 185.5 155.5 c 128
 172.5 149.833333333 157 147 139 147 c 0
 110.333333333 147 87.8333333333 156.666666667 71.5 176 c 128
 55.1666666667 195.333333333 47 218.666666667 47 246 c 0
 47 270.666666667 52.3333333333 295.666666667 63 321 c 128
 73.6666666667 346.333333333 87.1666666667 370.166666667 103.5 392.5 c 128
 119.833333333 414.833333333 136.666666667 434.333333333 154 451 c 0
 176.666666667 472.333333333 200.166666667 488 224.5 498 c 128
 248.833333333 508 274.166666667 514.666666667 300.5 518 c 128
 326.833333333 521.333333333 355 523.666666667 385 525 c 0
 410.333333333 526.333333333 435.333333333 529.166666667 460 533.5 c 128
 484.666666667 537.833333333 509.666666667 541.666666667 535 545 c 0
 562.333333333 548.333333333 589.333333333 550.666666667 616 552 c 128
 642.666666667 553.333333333 669.666666667 554 697 554 c 1
 706 540 l 1
 719.333333333 545.333333333 734.166666667 551 750.5 557 c 128
 766.833333333 563 782 566 796 566 c 0
 822 566 843 559 859 545 c 128
 875 531 886.833333333 513.166666667 894.5 491.5 c 128
 902.166666667 469.833333333 906 447.666666667 906 425 c 0
760 421 m 0
 760 432.333333333 759.333333333 444.166666667 758 456.5 c 128
 756.666666667 468.833333333 753 479.333333333 747 488 c 128
 741 496.666666667 730.666666667 501 716 501 c 0
 713.333333333 501 710.5 500.833333333 707.5 500.5 c 128
 704.5 500.166666667 701.666666667 499.666666667 699 499 c 1
 672 344 l 2
 671.333333333 340 670.666666667 335.833333333 670 331.5 c 128
 669.333333333 327.166666667 669 323 669 319 c 0
 669 297 679.333333333 286 700 286 c 0
 712.666666667 286 723 291.166666667 731 301.5 c 128
 739 311.833333333 745 324.666666667 749 340 c 128
 753 355.333333333 755.833333333 370.333333333 757.5 385 c 128
 759.166666667 399.666666667 760 411.666666667 760 421 c 0
382 481 m 1
 374 485 366.333333333 487 359 487 c 0
 331 487 307 478.166666667 287 460.5 c 128
 267 442.833333333 250.833333333 421.166666667 238.5 395.5 c 128
 226.166666667 369.833333333 216.666666667 345.333333333 210 322 c 0
 208 312.666666667 205.833333333 302.666666667 203.5 292 c 128
 201.166666667 281.333333333 200 271 200 261 c 0
 200 250.333333333 203.5 239.833333333 210.5 229.5 c 128
 217.5 219.166666667 227 214 239 214 c 0
 249.666666667 214 259 217.833333333 267 225.5 c 128
 275 233.166666667 281.833333333 242.333333333 287.5 253 c 128
 293.166666667 263.666666667 297.666666667 273 301 281 c 2
 382 481 l 1
EndSplineSet
EndChar
StartChar: uni1219
Encoding: 4633 4633 1020
Width: 1160
GlyphClass: 2
Flags: W
AnchorPoint: "Ethiopic Mark" 544 575 basechar 0
LayerCount: 2
Fore
SplineSet
1138 341 m 1
 1130 333.666666667 1117.33333333 328.333333333 1100 325 c 128
 1082.66666667 321.666666667 1068.66666667 320 1058 320 c 0
 1035.33333333 320 1013.33333333 326.166666667 992 338.5 c 128
 970.666666667 350.833333333 957.333333333 369 952 393 c 1
 901 393 l 1
 895.666666667 349 879.166666667 313.5 851.5 286.5 c 128
 823.833333333 259.5 787 246 741 246 c 0
 732.333333333 246 723.833333333 246.333333333 715.5 247 c 128
 707.166666667 247.666666667 698.666666667 248 690 248 c 0
 684.666666667 248 678.333333333 246.833333333 671 244.5 c 128
 663.666666667 242.166666667 657.333333333 240.333333333 652 239 c 0
 640.666666667 235.666666667 629.166666667 232.833333333 617.5 230.5 c 128
 605.833333333 228.166666667 594 227 582 227 c 0
 563.333333333 227 549.5 229.333333333 540.5 234 c 128
 531.5 238.666666667 527 251.333333333 527 272 c 0
 527 282.666666667 527.833333333 293.166666667 529.5 303.5 c 128
 531.166666667 313.833333333 533 324 535 334 c 2
 573 513 l 1
 523 507 l 1
 430 258 l 2
 418.666666667 228 404.5 207.333333333 387.5 196 c 128
 370.5 184.666666667 346 179 314 179 c 0
 304 179 294.333333333 179.333333333 285 180 c 128
 275.666666667 180.666666667 266 181 256 181 c 0
 242.666666667 181 230.333333333 178.166666667 219 172.5 c 128
 207.666666667 166.833333333 195.5 161.166666667 182.5 155.5 c 128
 169.5 149.833333333 154 147 136 147 c 0
 107.333333333 147 84.8333333333 156.666666667 68.5 176 c 128
 52.1666666667 195.333333333 44 218.666666667 44 246 c 0
 44 270.666666667 49.3333333333 295.666666667 60 321 c 128
 70.6666666667 346.333333333 84.1666666667 370.333333333 100.5 393 c 128
 116.833333333 415.666666667 133.666666667 435 151 451 c 0
 173.666666667 472.333333333 197.166666667 488 221.5 498 c 128
 245.833333333 508 271.333333333 514.666666667 298 518 c 128
 324.666666667 521.333333333 352.666666667 523.666666667 382 525 c 0
 408.666666667 526.333333333 435 529.166666667 461 533.5 c 128
 487 537.833333333 513 541.333333333 539 544 c 0
 565 547.333333333 590.833333333 549.833333333 616.5 551.5 c 128
 642.166666667 553.166666667 668 554 694 554 c 1
 703 540 l 1
 716.333333333 545.333333333 731 551 747 557 c 128
 763 563 778.333333333 566 793 566 c 0
 819 566 840 559 856 545 c 128
 872 531 883.833333333 513.333333333 891.5 492 c 128
 899.166666667 470.666666667 903 448.666666667 903 426 c 1
 953 426 l 1
 965 444 976.5 456.833333333 987.5 464.5 c 128
 998.5 472.166666667 1011.16666667 476.666666667 1025.5 478 c 128
 1039.83333333 479.333333333 1057 480 1077 480 c 0
 1084.33333333 480 1093.33333333 479.666666667 1104 479 c 128
 1114.66666667 478.333333333 1123.33333333 476.666666667 1130 474 c 1
 1124 466.666666667 1119.33333333 456.5 1116 443.5 c 128
 1112.66666667 430.5 1111 419.333333333 1111 410 c 0
 1111 403.333333333 1111.5 395 1112.5 385 c 128
 1113.5 375 1116 365.666666667 1120 357 c 128
 1124 348.333333333 1130 343 1138 341 c 1
757 421 m 0
 757 432.333333333 756.333333333 444.166666667 755 456.5 c 128
 753.666666667 468.833333333 750 479.333333333 744 488 c 128
 738 496.666666667 727.666666667 501 713 501 c 0
 710.333333333 501 707.5 500.833333333 704.5 500.5 c 128
 701.5 500.166666667 698.666666667 499.666666667 696 499 c 1
 669 344 l 2
 668.333333333 340 667.666666667 335.833333333 667 331.5 c 128
 666.333333333 327.166666667 666 323 666 319 c 0
 666 297 676.333333333 286 697 286 c 0
 710.333333333 286 720.833333333 291.166666667 728.5 301.5 c 128
 736.166666667 311.833333333 742 324.666666667 746 340 c 128
 750 355.333333333 752.833333333 370.333333333 754.5 385 c 128
 756.166666667 399.666666667 757 411.666666667 757 421 c 0
379 481 m 1
 371 485 363.333333333 487 356 487 c 0
 328 487 304 478.166666667 284 460.5 c 128
 264 442.833333333 247.833333333 421.166666667 235.5 395.5 c 128
 223.166666667 369.833333333 214 345.333333333 208 322 c 0
 205.333333333 312.666666667 202.833333333 302.666666667 200.5 292 c 128
 198.166666667 281.333333333 197 271 197 261 c 0
 197 250.333333333 200.5 239.833333333 207.5 229.5 c 128
 214.5 219.166666667 224 214 236 214 c 0
 246.666666667 214 255.833333333 217.833333333 263.5 225.5 c 128
 271.166666667 233.166666667 278 242.333333333 284 253 c 128
 290 263.666666667 294.666666667 273 298 281 c 2
 379 481 l 1
EndSplineSet
EndChar
StartChar: uni121A
Encoding: 4634 4634 1021
Width: 985
GlyphClass: 2
Flags: W
AnchorPoint: "Ethiopic Mark" 435 621 basechar 0
LayerCount: 2
Fore
SplineSet
953 -33 m 1
 945 -40.3333333333 932.333333333 -45.6666666667 915 -49 c 128
 897.666666667 -52.3333333333 883.666666667 -54 873 -54 c 0
 823.666666667 -54 787 -31.6666666667 763 13 c 1
 638 3 l 2
 630 2.33333333333 622.333333333 1.66666666667 615 1 c 128
 607.666666667 0.333333333333 600 0 592 0 c 0
 570 0 554.5 4.33333333333 545.5 13 c 128
 536.5 21.6666666667 532 37 532 59 c 0
 532 75 534.333333333 91.1666666667 539 107.5 c 128
 543.666666667 123.833333333 548.333333333 139.666666667 553 155 c 2
 620 361 l 2
 623.333333333 370.333333333 625.666666667 379.333333333 627 388 c 1
 611 384.666666667 592.5 381.333333333 571.5 378 c 128
 550.5 374.666666667 533.333333333 373 520 373 c 0
 497.333333333 373 478.5 378 463.5 388 c 128
 448.5 398 441 415.333333333 441 440 c 0
 441 450 442.333333333 464.833333333 445 484.5 c 128
 447.666666667 504.166666667 453 533 461 571 c 1
 394 563 l 1
 372 395 l 2
 368 365 357 342.833333333 339 328.5 c 128
 321 314.166666667 297 307 267 307 c 0
 261.666666667 307 256.5 307.833333333 251.5 309.5 c 128
 246.5 311.166666667 241.333333333 312 236 312 c 0
 221.333333333 312 207.333333333 308.666666667 194 302 c 128
 180.666666667 295.333333333 167.333333333 288.833333333 154 282.5 c 128
 140.666666667 276.166666667 126.666666667 273 112 273 c 0
 85.3333333333 273 66.6666666667 281.833333333 56 299.5 c 128
 45.3333333333 317.166666667 40 338 40 362 c 0
 40 393.333333333 44.8333333333 423.333333333 54.5 452 c 128
 64.1666666667 480.666666667 80.6666666667 506 104 528 c 0
 126 548.666666667 150.333333333 563.833333333 177 573.5 c 128
 203.666666667 583.166666667 231.5 589.666666667 260.5 593 c 128
 289.5 596.333333333 318 598.666666667 346 600 c 2
 484 607 l 2
 497.333333333 607.666666667 510.5 608.5 523.5 609.5 c 128
 536.5 610.5 549.666666667 611 563 611 c 0
 577 611 588.333333333 607.333333333 597 600 c 1
 611 610.666666667 626.166666667 618.833333333 642.5 624.5 c 128
 658.833333333 630.166666667 675.666666667 633 693 633 c 0
 727 633 752.166666667 622.833333333 768.5 602.5 c 128
 784.833333333 582.166666667 793 556 793 524 c 0
 793 507.333333333 791 488.333333333 787 467 c 128
 783 445.666666667 778 424.666666667 772 404 c 128
 766 383.333333333 760.666666667 364.666666667 756 348 c 2
 691 128 l 2
 688.333333333 118.666666667 685.833333333 109.166666667 683.5 99.5 c 128
 681.166666667 89.8333333333 680 80.3333333333 680 71 c 0
 680 65.6666666667 681.666666667 60 685 54 c 128
 688.333333333 48 693.333333333 45 700 45 c 0
 710.666666667 45 721.333333333 45.5 732 46.5 c 128
 742.666666667 47.5 753 48.3333333333 763 49 c 1
 777 63.6666666667 789.833333333 75.1666666667 801.5 83.5 c 128
 813.166666667 91.8333333333 826 97.6666666667 840 101 c 128
 854 104.333333333 871.333333333 106 892 106 c 0
 899.333333333 106 908 105.166666667 918 103.5 c 128
 928 101.833333333 936 99 942 95 c 1
 936 87.6666666667 931.833333333 78.3333333333 929.5 67 c 128
 927.166666667 55.6666666667 926 45.3333333333 926 36 c 0
 926 29.3333333333 926.5 21 927.5 11 c 128
 928.5 1 931 -8.33333333333 935 -17 c 128
 939 -25.6666666667 945 -31 953 -33 c 1
654 524 m 0
 654 536 650.833333333 546.166666667 644.5 554.5 c 128
 638.166666667 562.833333333 628.666666667 567 616 567 c 0
 610.666666667 567 604.333333333 565.333333333 597 562 c 128
 589.666666667 558.666666667 584.666666667 554.666666667 582 550 c 0
 578.666666667 544 575.5 534 572.5 520 c 128
 569.5 506 568 495.333333333 568 488 c 0
 568 473.333333333 572.333333333 458.166666667 581 442.5 c 128
 589.666666667 426.833333333 602.666666667 419 620 419 c 0
 622.666666667 419 625.166666667 419.166666667 627.5 419.5 c 128
 629.833333333 419.833333333 632.333333333 420.333333333 635 421 c 1
 638.333333333 435 642.333333333 452.166666667 647 472.5 c 128
 651.666666667 492.833333333 654 510 654 524 c 0
272 556 m 1
 270.666666667 556 268.333333333 556.333333333 265 557 c 0
 251 557 238.166666667 550.5 226.5 537.5 c 128
 214.833333333 524.5 205.166666667 508.333333333 197.5 489 c 128
 189.833333333 469.666666667 183.833333333 450.666666667 179.5 432 c 128
 175.166666667 413.333333333 173 398.333333333 173 387 c 0
 173 377 174.833333333 367.5 178.5 358.5 c 128
 182.166666667 349.5 190 345 202 345 c 0
 218.666666667 345 229.833333333 350.333333333 235.5 361 c 128
 241.166666667 371.666666667 245 384.333333333 247 399 c 2
 272 556 l 1
EndSplineSet
EndChar
StartChar: uni121B
Encoding: 4635 4635 1022
Width: 819
GlyphClass: 2
Flags: W
AnchorPoint: "Ethiopic Mark" 428 622 basechar 0
LayerCount: 2
Fore
SplineSet
793 524 m 0
 793 507.333333333 791 488.333333333 787 467 c 128
 783 445.666666667 778 424.666666667 772 404 c 128
 766 383.333333333 760.666666667 364.666666667 756 348 c 2
 691 128 l 2
 687.666666667 117.333333333 685 106.666666667 683 96 c 128
 681 85.3333333333 680 74.3333333333 680 63 c 0
 680 57.6666666667 681 51.6666666667 683 45 c 128
 685 38.3333333333 688.333333333 33.6666666667 693 31 c 1
 693 14 l 1
 678.333333333 11.3333333333 661.666666667 8.33333333333 643 5 c 128
 624.333333333 1.66666666667 607.333333333 0 592 0 c 0
 568.666666667 0 554.333333333 7 549 21 c 128
 543.666666667 35 541 51.6666666667 541 71 c 0
 541 84.3333333333 542.5 98.5 545.5 113.5 c 128
 548.5 128.5 552 142.333333333 556 155 c 2
 620 361 l 2
 623.333333333 370.333333333 625.666666667 379.333333333 627 388 c 1
 611 384.666666667 593.333333333 381.333333333 574 378 c 128
 554.666666667 374.666666667 536.666666667 373 520 373 c 0
 497.333333333 373 478.5 378 463.5 388 c 128
 448.5 398 441 415.333333333 441 440 c 0
 441 451.333333333 442.333333333 465.833333333 445 483.5 c 128
 447.666666667 501.166666667 453 530.333333333 461 571 c 1
 394 563 l 1
 390.666666667 535 387 507 383 479 c 128
 379 451 375.333333333 423 372 395 c 0
 368 365 357 342.833333333 339 328.5 c 128
 321 314.166666667 297 307 267 307 c 0
 261.666666667 307 256.5 307.833333333 251.5 309.5 c 128
 246.5 311.166666667 241.333333333 312 236 312 c 0
 221.333333333 312 207.333333333 308.666666667 194 302 c 128
 180.666666667 295.333333333 167.333333333 288.833333333 154 282.5 c 128
 140.666666667 276.166666667 126.666666667 273 112 273 c 0
 85.3333333333 273 66.6666666667 281.833333333 56 299.5 c 128
 45.3333333333 317.166666667 40 338 40 362 c 0
 40 393.333333333 44.8333333333 423.333333333 54.5 452 c 128
 64.1666666667 480.666666667 80.6666666667 506 104 528 c 0
 126 548.666666667 150.333333333 563.833333333 177 573.5 c 128
 203.666666667 583.166666667 231.5 589.666666667 260.5 593 c 128
 289.5 596.333333333 318 598.666666667 346 600 c 2
 487 607 l 2
 499.666666667 607.666666667 512.333333333 608.5 525 609.5 c 128
 537.666666667 610.5 550.333333333 611 563 611 c 0
 577 611 588.333333333 607.333333333 597 600 c 1
 611 610.666666667 626.166666667 618.833333333 642.5 624.5 c 128
 658.833333333 630.166666667 675.666666667 633 693 633 c 0
 727 633 752.166666667 622.833333333 768.5 602.5 c 128
 784.833333333 582.166666667 793 556 793 524 c 0
654 524 m 0
 654 536 650.833333333 546.166666667 644.5 554.5 c 128
 638.166666667 562.833333333 628.666666667 567 616 567 c 0
 610.666666667 567 604.333333333 565.333333333 597 562 c 128
 589.666666667 558.666666667 584.666666667 554.666666667 582 550 c 0
 578.666666667 544 575.5 534 572.5 520 c 128
 569.5 506 568 495.333333333 568 488 c 0
 568 473.333333333 572.333333333 458.166666667 581 442.5 c 128
 589.666666667 426.833333333 602.666666667 419 620 419 c 0
 622.666666667 419 625.166666667 419.166666667 627.5 419.5 c 128
 629.833333333 419.833333333 632.333333333 420.333333333 635 421 c 1
 638.333333333 435 642.333333333 452.166666667 647 472.5 c 128
 651.666666667 492.833333333 654 510 654 524 c 0
272 556 m 1
 270.666666667 556 268.333333333 556.333333333 265 557 c 0
 251 557 238.166666667 550.5 226.5 537.5 c 128
 214.833333333 524.5 205.166666667 508.333333333 197.5 489 c 128
 189.833333333 469.666666667 183.833333333 450.666666667 179.5 432 c 128
 175.166666667 413.333333333 173 398.333333333 173 387 c 0
 173 377 174.833333333 367.5 178.5 358.5 c 128
 182.166666667 349.5 190 345 202 345 c 0
 218.666666667 345 229.833333333 350.333333333 235.5 361 c 128
 241.166666667 371.666666667 245 384.333333333 247 399 c 2
 272 556 l 1
EndSplineSet
EndChar
StartChar: uni121C
Encoding: 4636 4636 1023
Width: 933
GlyphClass: 2
Flags: W
AnchorPoint: "Ethiopic Mark" 432 631 basechar 0
LayerCount: 2
Fore
SplineSet
893 114 m 0
 893 80.6666666667 887.833333333 57 877.5 43 c 128
 867.166666667 29 852.333333333 20.5 833 17.5 c 128
 813.666666667 14.5 790 13 762 13 c 0
 739.333333333 13 717.833333333 10.8333333333 697.5 6.5 c 128
 677.166666667 2.16666666667 651.333333333 0 620 0 c 0
 594.666666667 0 575 4.83333333333 561 14.5 c 128
 547 24.1666666667 540 42.6666666667 540 70 c 0
 540 80.6666666667 540.666666667 91.8333333333 542 103.5 c 128
 543.333333333 115.166666667 546 127 550 139 c 2
 620 361 l 2
 623.333333333 370.333333333 625.666666667 379.333333333 627 388 c 1
 611 384.666666667 593.333333333 381.333333333 574 378 c 128
 554.666666667 374.666666667 536.666666667 373 520 373 c 0
 497.333333333 373 478.5 378 463.5 388 c 128
 448.5 398 441 415.333333333 441 440 c 0
 441 447.333333333 441.833333333 459.833333333 443.5 477.5 c 128
 445.166666667 495.166666667 451 526.333333333 461 571 c 1
 394 563 l 1
 390.666666667 535 387 507 383 479 c 128
 379 451 375.333333333 423 372 395 c 0
 368 365 357 342.833333333 339 328.5 c 128
 321 314.166666667 297 307 267 307 c 0
 261.666666667 307 256.5 307.833333333 251.5 309.5 c 128
 246.5 311.166666667 241.333333333 312 236 312 c 0
 221.333333333 312 207.333333333 308.666666667 194 302 c 128
 180.666666667 295.333333333 167.333333333 288.833333333 154 282.5 c 128
 140.666666667 276.166666667 126.666666667 273 112 273 c 0
 85.3333333333 273 66.6666666667 281.833333333 56 299.5 c 128
 45.3333333333 317.166666667 40 338 40 362 c 0
 40 393.333333333 44.8333333333 423.333333333 54.5 452 c 128
 64.1666666667 480.666666667 80.6666666667 506 104 528 c 0
 126 548.666666667 150.333333333 563.833333333 177 573.5 c 128
 203.666666667 583.166666667 231.5 589.666666667 260.5 593 c 128
 289.5 596.333333333 318 598.666666667 346 600 c 2
 485 607 l 2
 498.333333333 607.666666667 511.333333333 608.5 524 609.5 c 128
 536.666666667 610.5 549.666666667 611 563 611 c 0
 576.333333333 611 587.666666667 607.333333333 597 600 c 1
 611 610.666666667 626.166666667 618.833333333 642.5 624.5 c 128
 658.833333333 630.166666667 675.666666667 633 693 633 c 0
 727 633 752.166666667 622.833333333 768.5 602.5 c 128
 784.833333333 582.166666667 793 556 793 524 c 0
 793 496.666666667 789 466.833333333 781 434.5 c 128
 773 402.166666667 764.666666667 373.333333333 756 348 c 2
 704 193 l 1
 713.333333333 193.666666667 723 194.333333333 733 195 c 128
 743 195.666666667 752.666666667 196.666666667 762 198 c 256
 771.333333333 199.333333333 780.833333333 200.666666667 790.5 202 c 128
 800.166666667 203.333333333 810 204 820 204 c 0
 845.333333333 204 863.833333333 194.5 875.5 175.5 c 128
 887.166666667 156.5 893 136 893 114 c 0
656 524 m 0
 656 536 652.5 546.166666667 645.5 554.5 c 128
 638.5 562.833333333 628.666666667 567 616 567 c 0
 610.666666667 567 604.333333333 565.333333333 597 562 c 128
 589.666666667 558.666666667 584.666666667 554.666666667 582 550 c 0
 578.666666667 544 575.5 534 572.5 520 c 128
 569.5 506 568 495.333333333 568 488 c 0
 568 473.333333333 572.333333333 458.166666667 581 442.5 c 128
 589.666666667 426.833333333 602.666666667 419 620 419 c 0
 622.666666667 419 625.333333333 419.166666667 628 419.5 c 128
 630.666666667 419.833333333 633.333333333 420.333333333 636 421 c 1
 639.333333333 434.333333333 643.5 451.5 648.5 472.5 c 128
 653.5 493.5 656 510.666666667 656 524 c 0
754 102 m 0
 754 117.333333333 749.833333333 129.666666667 741.5 139 c 128
 733.166666667 148.333333333 721 153 705 153 c 2
 690 153 l 1
 686.666666667 141.666666667 682.166666667 129 676.5 115 c 128
 670.833333333 101 668 88 668 76 c 0
 668 64.6666666667 671.333333333 55.6666666667 678 49 c 128
 684.666666667 42.3333333333 693.333333333 39 704 39 c 0
 720.666666667 39 733.166666667 45.8333333333 741.5 59.5 c 128
 749.833333333 73.1666666667 754 87.3333333333 754 102 c 0
272 556 m 1
 270.666666667 556 268.333333333 556.333333333 265 557 c 0
 251 557 238.166666667 550.5 226.5 537.5 c 128
 214.833333333 524.5 205.166666667 508.333333333 197.5 489 c 128
 189.833333333 469.666666667 183.833333333 450.666666667 179.5 432 c 128
 175.166666667 413.333333333 173 398.333333333 173 387 c 0
 173 377 174.833333333 367.5 178.5 358.5 c 128
 182.166666667 349.5 190 345 202 345 c 0
 218.666666667 345 229.833333333 350.333333333 235.5 361 c 128
 241.166666667 371.666666667 245 384.333333333 247 399 c 2
 272 556 l 1
EndSplineSet
EndChar
StartChar: uni121D
Encoding: 4637 4637 1024
Width: 853
GlyphClass: 2
Flags: W
AnchorPoint: "Ethiopic Mark" 440 632 basechar 0
LayerCount: 2
Fore
SplineSet
814 493 m 0
 814 461.666666667 805.333333333 435.5 788 414.5 c 128
 770.666666667 393.5 746 382.333333333 714 381 c 0
 705.333333333 381 696.5 380.833333333 687.5 380.5 c 128
 678.5 380.166666667 669.666666667 379.666666667 661 379 c 0
 653.666666667 379 646.5 377.666666667 639.5 375 c 128
 632.5 372.333333333 625.666666667 370 619 368 c 0
 601.666666667 363.333333333 583.666666667 361 565 361 c 0
 555.666666667 361 545.833333333 361.833333333 535.5 363.5 c 128
 525.166666667 365.166666667 516 368.666666667 508 374 c 0
 500.666666667 379.333333333 494.166666667 388.333333333 488.5 401 c 128
 482.833333333 413.666666667 478.333333333 434.166666667 475 462.5 c 128
 471.666666667 490.833333333 469.333333333 531.333333333 468 584 c 1
 416 582 l 1
 407 347 l 2
 407 340.333333333 406.5 333.333333333 405.5 326 c 128
 404.5 318.666666667 402.333333333 312 399 306 c 0
 393.666666667 297.333333333 382.333333333 281.166666667 365 257.5 c 128
 347.666666667 233.833333333 328.666666667 208.666666667 308 182 c 0
 293.333333333 163.333333333 279.666666667 145.166666667 267 127.5 c 128
 254.333333333 109.833333333 244.166666667 94.5 236.5 81.5 c 128
 228.833333333 68.5 225 60 225 56 c 0
 225 50.6666666667 225.833333333 45.8333333333 227.5 41.5 c 128
 229.166666667 37.1666666667 233.333333333 34.3333333333 240 33 c 1
 240 20 l 1
 216 16 190.666666667 11.6666666667 164 7 c 128
 137.333333333 2.33333333333 117.333333333 0 104 0 c 256
 90.6666666667 0 81.1666666667 2.83333333333 75.5 8.5 c 128
 69.8333333333 14.1666666667 67 23.6666666667 67 37 c 0
 67 43.6666666667 68 50.1666666667 70 56.5 c 128
 72 62.8333333333 74.6666666667 69 78 75 c 0
 84 87 94.1666666667 102.833333333 108.5 122.5 c 128
 122.833333333 142.166666667 136.333333333 160 149 176 c 0
 183.666666667 218.666666667 219 260.666666667 255 302 c 1
 239 298 222.666666667 294.5 206 291.5 c 128
 189.333333333 288.5 172.333333333 287 155 287 c 0
 127.666666667 287 105.5 289.333333333 88.5 294 c 128
 71.5 298.666666667 59.1666666667 308.333333333 51.5 323 c 128
 43.8333333333 337.666666667 40 359.333333333 40 388 c 0
 40 399.333333333 42 412.333333333 46 427 c 128
 50 441.666666667 54.3333333333 454 59 464 c 0
 80.3333333333 512.666666667 110.833333333 547.5 150.5 568.5 c 128
 190.166666667 589.5 235.333333333 602 286 606 c 0
 311.333333333 608 336.833333333 609.666666667 362.5 611 c 128
 388.166666667 612.333333333 413.666666667 613.666666667 439 615 c 0
 459 616.333333333 480 617.666666667 502 619 c 128
 524 620.333333333 543 621 559 621 c 0
 567 621 575.333333333 618.833333333 584 614.5 c 128
 592.666666667 610.166666667 598.333333333 608 601 608 c 0
 603.666666667 608 609.5 609.5 618.5 612.5 c 128
 627.5 615.5 633.666666667 617.666666667 637 619 c 0
 649.666666667 623 662 626.333333333 674 629 c 128
 686 631.666666667 698.666666667 633 712 633 c 0
 738.666666667 633 759.333333333 626 774 612 c 128
 788.666666667 598 799 580.333333333 805 559 c 128
 811 537.666666667 814 515.666666667 814 493 c 0
678 463 m 0
 678 477 676.166666667 492.833333333 672.5 510.5 c 128
 668.833333333 528.166666667 662.166666667 543.666666667 652.5 557 c 128
 642.833333333 570.333333333 629 577 611 577 c 0
 607.666666667 577 604.333333333 576.666666667 601 576 c 128
 596 575 596 575 591 574 c 1
 591.666666667 535.333333333 593.166666667 506 595.5 486 c 128
 597.833333333 466 600.666666667 451.5 604 442.5 c 128
 607.333333333 433.5 611.666666667 426.666666667 617 422 c 0
 621 418.666666667 625.5 416.333333333 630.5 415 c 128
 635.5 413.666666667 640.666666667 413 646 413 c 0
 660.666666667 413 669.666666667 418.166666667 673 428.5 c 128
 676.333333333 438.833333333 678 450.333333333 678 463 c 0
290 575 m 1
 288 575 285.333333333 575.333333333 282 576 c 0
 260.666666667 576 243.333333333 570.166666667 230 558.5 c 128
 216.666666667 546.833333333 206.333333333 532.166666667 199 514.5 c 128
 191.666666667 496.833333333 186.5 478.166666667 183.5 458.5 c 128
 180.5 438.833333333 179 421 179 405 c 0
 179 379 183.333333333 360.166666667 192 348.5 c 128
 200.666666667 336.833333333 218.666666667 331 246 331 c 0
 251.333333333 331 256.833333333 331.166666667 262.5 331.5 c 128
 268.166666667 331.833333333 273.666666667 332.333333333 279 333 c 1
 290 575 l 1
EndSplineSet
EndChar
StartChar: uni121E
Encoding: 4638 4638 1025
Width: 833
GlyphClass: 2
Flags: W
AnchorPoint: "Ethiopic Mark" 451 636 basechar 0
LayerCount: 2
Fore
SplineSet
805 475 m 0
 805 449 799.333333333 425.166666667 788 403.5 c 128
 776.666666667 381.833333333 759.666666667 364.666666667 737 352 c 0
 733 350 727.666666667 347.5 721 344.5 c 128
 714.333333333 341.5 708.333333333 340 703 340 c 0
 692 340 692 340 681.5 340 c 128
 671 340 671 340 660 340 c 0
 648 340 635 336 621 328 c 128
 607 320 593 312.166666667 579 304.5 c 128
 565 296.833333333 552 293 540 293 c 0
 516 293 500.333333333 300.666666667 493 316 c 128
 485.666666667 331.333333333 481.333333333 349 480 369 c 0
 477.333333333 403 475.166666667 437 473.5 471 c 128
 471.833333333 505 470.333333333 539 469 573 c 1
 433 573 l 1
 352 107 l 2
 350.666666667 99.6666666667 349.333333333 91 348 81 c 128
 346.666666667 71 346 64 346 60 c 0
 346 44.6666666667 353 36.3333333333 367 35 c 1
 367 19 l 1
 355.666666667 17 341.833333333 14.5 325.5 11.5 c 128
 309.166666667 8.5 293.666666667 5.83333333333 279 3.5 c 128
 264.333333333 1.16666666667 254 0 248 0 c 0
 233.333333333 0 223 5.16666666667 217 15.5 c 128
 211 25.8333333333 208 37.6666666667 208 51 c 0
 208 62.3333333333 209 73.3333333333 211 84 c 2
 253 306 l 1
 231.666666667 300.666666667 209.166666667 296.166666667 185.5 292.5 c 128
 161.833333333 288.833333333 139 287 117 287 c 0
 87.6666666667 287 67.5 294 56.5 308 c 128
 45.5 322 40 343.333333333 40 372 c 0
 40 384.666666667 41.6666666667 398 45 412 c 128
 48.3333333333 426 52 439 56 451 c 0
 74.6666666667 501 103.5 537 142.5 559 c 128
 181.5 581 226.666666667 594 278 598 c 0
 306 600.666666667 333.833333333 602.666666667 361.5 604 c 128
 389.166666667 605.333333333 417 607 445 609 c 0
 474 611 474 611 503 613 c 128
 522.333333333 614.333333333 541.666666667 615 561 615 c 0
 568.333333333 615 575.666666667 614.166666667 583 612.5 c 128
 590.333333333 610.833333333 597.666666667 610 605 610 c 0
 608.333333333 610 614 611.833333333 622 615.5 c 128
 630 619.166666667 636 621.666666667 640 623 c 0
 658 629.666666667 676.333333333 633 695 633 c 0
 721.666666667 633 743 624.5 759 607.5 c 128
 775 590.5 786.666666667 569.666666667 794 545 c 128
 801.333333333 520.333333333 805 497 805 475 c 0
680 435 m 0
 680 448.333333333 679.5 463.166666667 678.5 479.5 c 128
 677.5 495.833333333 674.666666667 511.666666667 670 527 c 128
 665.333333333 542.333333333 657.833333333 555 647.5 565 c 128
 637.166666667 575 623 580 605 580 c 0
 598.333333333 580 591.666666667 579 585 577 c 1
 586.333333333 549 588.333333333 521.166666667 591 493.5 c 128
 593.666666667 465.833333333 596.666666667 438 600 410 c 0
 601.333333333 398 604.333333333 387.666666667 609 379 c 128
 613.666666667 370.333333333 623 366 637 366 c 0
 649 366 658 369.833333333 664 377.5 c 128
 670 385.166666667 674.166666667 394.333333333 676.5 405 c 128
 678.833333333 415.666666667 680 425.666666667 680 435 c 0
297 563 m 1
 293 563.666666667 289 564 285 564 c 0
 269.666666667 564 255.5 558.5 242.5 547.5 c 128
 229.5 536.5 218.333333333 523.333333333 209 508 c 128
 199.666666667 492.666666667 193 478.333333333 189 465 c 0
 182.333333333 445 179 424.666666667 179 404 c 0
 179 386.666666667 184.166666667 372 194.5 360 c 128
 204.833333333 348 219 342 237 342 c 0
 245 342 253 343.333333333 261 346 c 1
 297 563 l 1
EndSplineSet
EndChar
StartChar: uni121F
Encoding: 4639 4639 1026
Width: 932
GlyphClass: 2
Flags: W
AnchorPoint: "Ethiopic Mark" 414 638 basechar 0
LayerCount: 2
Fore
SplineSet
897 -58 m 1
 890.333333333 -62.6666666667 881.833333333 -66.1666666667 871.5 -68.5 c 128
 861.166666667 -70.8333333333 852 -72 844 -72 c 0
 812.666666667 -72 785.5 -64 762.5 -48 c 128
 739.5 -32 726 -7.33333333333 722 26 c 1
 461 3 l 1
 465.666666667 -20.3333333333 461.166666667 -41.1666666667 447.5 -59.5 c 128
 433.833333333 -77.8333333333 416 -92.1666666667 394 -102.5 c 128
 372 -112.833333333 351 -118 331 -118 c 0
 325 -118 318.833333333 -117.833333333 312.5 -117.5 c 128
 306.166666667 -117.166666667 299.666666667 -116.666666667 293 -116 c 1
 305 -103.333333333 313.333333333 -86 318 -64 c 128
 322.666666667 -42 325 -23 325 -7 c 0
 325 -2.33333333333 324.333333333 2.83333333333 323 8.5 c 128
 321.666666667 14.1666666667 320.333333333 19.3333333333 319 24 c 1
 529 43 l 1
 526.333333333 54.3333333333 525.5 68.1666666667 526.5 84.5 c 128
 527.5 100.833333333 529.5 117.166666667 532.5 133.5 c 128
 535.5 149.833333333 538.666666667 163.333333333 542 174 c 2
 610 386 l 2
 611.333333333 390.666666667 612.666666667 395.166666667 614 399.5 c 128
 615.333333333 403.833333333 616.333333333 408.333333333 617 413 c 1
 600.333333333 409.666666667 582.5 406.333333333 563.5 403 c 128
 544.5 399.666666667 526.666666667 398 510 398 c 0
 478.666666667 398 457.5 405.166666667 446.5 419.5 c 128
 435.5 433.833333333 430 455.666666667 430 485 c 0
 430 489 430.333333333 492.833333333 431 496.5 c 128
 431.666666667 500.166666667 432.333333333 504 433 508 c 2
 448 590 l 1
 381 582 l 1
 361 434 l 2
 359 416.666666667 354.833333333 400.166666667 348.5 384.5 c 128
 342.166666667 368.833333333 333 356 321 346 c 128
 309 336 292.666666667 331 272 331 c 0
 264 331 256 331.666666667 248 333 c 128
 240 334.333333333 231.666666667 335 223 335 c 0
 207.666666667 335 193.666666667 331.833333333 181 325.5 c 128
 168.333333333 319.166666667 155.833333333 312.833333333 143.5 306.5 c 128
 131.166666667 300.166666667 117.333333333 297 102 297 c 0
 75.3333333333 297 58.1666666667 305.666666667 50.5 323 c 128
 42.8333333333 340.333333333 39 360.333333333 39 383 c 2
 39 386 l 2
 39 417.333333333 42.5 446.333333333 49.5 473 c 128
 56.5 499.666666667 71.6666666667 524.333333333 95 547 c 0
 117 567.666666667 141 582.833333333 167 592.5 c 128
 193 602.166666667 220.166666667 608.666666667 248.5 612 c 128
 276.833333333 615.333333333 305 617.666666667 333 619 c 0
 356.333333333 620.333333333 379.5 621.666666667 402.5 623 c 128
 425.5 624.333333333 448.666666667 625.333333333 472 626 c 0
 485.333333333 626.666666667 498.333333333 627.5 511 628.5 c 128
 523.666666667 629.5 536.666666667 630 550 630 c 0
 564 630 576.333333333 625.666666667 587 617 c 1
 599.666666667 624.333333333 614.166666667 631 630.5 637 c 128
 646.833333333 643 662.333333333 646 677 646 c 0
 706.333333333 646 730.833333333 636.166666667 750.5 616.5 c 128
 770.166666667 596.833333333 780 572.333333333 780 543 c 0
 780 523 776.333333333 500 769 474 c 128
 761.666666667 448 755.333333333 425.333333333 750 406 c 2
 674 147 l 2
 670.666666667 135.666666667 667.166666667 120.333333333 663.5 101 c 128
 659.833333333 81.6666666667 659 66.3333333333 661 55 c 1
 874 75 l 1
 872.666666667 67 871.666666667 58.8333333333 871 50.5 c 128
 870.333333333 42.1666666667 870 34 870 26 c 0
 870 14 872 -0.833333333333 876 -18.5 c 128
 880 -36.1666666667 887 -49.3333333333 897 -58 c 1
264 579 m 1
 246.666666667 579 231.666666667 572.666666667 219 560 c 128
 206.333333333 547.333333333 195.833333333 531.666666667 187.5 513 c 128
 179.166666667 494.333333333 173 475.333333333 169 456 c 128
 165 436.666666667 163 420 163 406 c 0
 163 398.666666667 164.833333333 389.833333333 168.5 379.5 c 128
 172.166666667 369.166666667 179 364 189 364 c 0
 205.666666667 364 216.833333333 369.5 222.5 380.5 c 128
 228.166666667 391.5 232.333333333 404 235 418 c 0
 239.666666667 445.333333333 244.5 472.333333333 249.5 499 c 128
 254.5 525.666666667 259.333333333 552.333333333 264 579 c 1
641 543 m 0
 641 555 637.833333333 565.166666667 631.5 573.5 c 128
 625.166666667 581.833333333 615.666666667 586 603 586 c 256
 590.333333333 586 579.666666667 581 571 571 c 1
 567.666666667 561 564.5 550.333333333 561.5 539 c 128
 558.5 527.666666667 557 517 557 507 c 0
 557 491 561.333333333 476.5 570 463.5 c 128
 578.666666667 450.5 592 444 610 444 c 0
 612.666666667 444 615.333333333 444.166666667 618 444.5 c 128
 620.666666667 444.833333333 623 445.333333333 625 446 c 1
 627.666666667 460 631 476.166666667 635 494.5 c 128
 639 512.833333333 641 529 641 543 c 0
EndSplineSet
AlternateSubs2: "'cv04' Zeichenvariante 04 in Ethiopic lookup 13 subtable" uni121F.cohen1 uni121F.cohen2
EndChar
StartChar: uni1220
Encoding: 4640 4640 1029
Width: 766
GlyphClass: 2
Flags: W
AnchorPoint: "Ethiopic Mark" 421 558 basechar 0
LayerCount: 2
Fore
SplineSet
740 436 m 0
 740 376.666666667 716.666666667 329.333333333 670 294 c 0
 660 286.666666667 648.833333333 281 636.5 277 c 128
 624.166666667 273 611.666666667 270 599 268 c 0
 595 268 590.833333333 267.833333333 586.5 267.5 c 128
 582.166666667 267.166666667 578 266 574 264 c 0
 570 262.666666667 566 260.5 562 257.5 c 128
 558 254.5 553.666666667 252 549 250 c 0
 527.666666667 239.333333333 506 234 484 234 c 0
 477.333333333 234 470 235.5 462 238.5 c 128
 454 241.5 447.666666667 245.666666667 443 251 c 1
 427 220.333333333 407.333333333 194.166666667 384 172.5 c 128
 360.666666667 150.833333333 330 140 292 140 c 0
 286.666666667 140 281.666666667 140.166666667 277 140.5 c 128
 272.333333333 140.833333333 267.333333333 141 262 141 c 0
 254.666666667 141 248.333333333 140.333333333 243 139 c 0
 237.666666667 138.333333333 232.166666667 136.5 226.5 133.5 c 128
 220.833333333 130.5 215.333333333 128.333333333 210 127 c 0
 185.333333333 118.333333333 159.333333333 114 132 114 c 0
 104 114 82.8333333333 121.666666667 68.5 137 c 128
 54.1666666667 152.333333333 47 173.666666667 47 201 c 0
 47 209 47.6666666667 217 49 225 c 128
 50.3333333333 233 52 240.666666667 54 248 c 2
 87 370 l 2
 93 392.666666667 96 408.666666667 96 418 c 0
 96 424.666666667 94.8333333333 430.666666667 92.5 436 c 128
 90.1666666667 441.333333333 86 445.333333333 80 448 c 1
 80 470 l 1
 170 495 l 2
 175.333333333 496.333333333 181 497.333333333 187 498 c 128
 193 498.666666667 199 499 205 499 c 0
 217.666666667 499 226.5 496.5 231.5 491.5 c 128
 236.5 486.5 239 478 239 466 c 0
 239 456 238 445.833333333 236 435.5 c 128
 234 425.166666667 231.666666667 415.333333333 229 406 c 2
 193 259 l 2
 189.666666667 245 188 232 188 220 c 0
 188 203.333333333 192.333333333 192.333333333 201 187 c 128
 209.666666667 181.666666667 221.666666667 179 237 179 c 0
 255 179 269.5 184.166666667 280.5 194.5 c 128
 291.5 204.833333333 299 218.666666667 303 236 c 2
 344 392 l 2
 346 399.333333333 348 407.666666667 350 417 c 128
 352 426.333333333 353 433.666666667 353 439 c 0
 353 459 344.333333333 473.333333333 327 482 c 1
 327 498 l 1
 420 521 l 2
 424 521.666666667 428.166666667 522.666666667 432.5 524 c 128
 436.833333333 525.333333333 441.333333333 526 446 526 c 0
 462 526 473.833333333 520.833333333 481.5 510.5 c 128
 489.166666667 500.166666667 493 487.333333333 493 472 c 0
 493 458 490.833333333 439.166666667 486.5 415.5 c 128
 482.166666667 391.833333333 478.333333333 371.333333333 475 354 c 1
 479.666666667 335.333333333 486.833333333 320.5 496.5 309.5 c 128
 506.166666667 298.5 521.333333333 293 542 293 c 0
 561.333333333 293 575.833333333 300.833333333 585.5 316.5 c 128
 595.166666667 332.166666667 600 348.333333333 600 365 c 2
 600 454 l 2
 600 463.333333333 598 471.833333333 594 479.5 c 128
 590 487.166666667 583 492 573 494 c 1
 573 510 l 1
 664 535 l 2
 672.666666667 537.666666667 681.333333333 539 690 539 c 0
 704 539 714.666666667 532.5 722 519.5 c 128
 729.333333333 506.5 734.166666667 491.833333333 736.5 475.5 c 128
 738.833333333 459.166666667 740 446 740 436 c 0
EndSplineSet
EndChar
StartChar: uni1222
Encoding: 4642 4642 1031
Width: 919
GlyphClass: 2
Flags: W
AnchorPoint: "Ethiopic Mark" 373 632 basechar 0
LayerCount: 2
Fore
SplineSet
881 -37 m 1
 865.666666667 -43 850 -47.3333333333 834 -50 c 128
 818 -52.6666666667 801.666666667 -54 785 -54 c 0
 759.666666667 -54 738.833333333 -50.3333333333 722.5 -43 c 128
 706.166666667 -35.6666666667 695.333333333 -18 690 10 c 1
 563 2 l 2
 555.666666667 2 548.5 1.66666666667 541.5 1 c 128
 534.5 0.333333333333 527.333333333 0 520 0 c 0
 490 0 471.5 6.16666666667 464.5 18.5 c 128
 457.5 30.8333333333 454 49 454 73 c 0
 454 89.6666666667 456 106.333333333 460 123 c 2
 515 354 l 1
 492.333333333 354 473.333333333 355.833333333 458 359.5 c 128
 442.666666667 363.166666667 425.333333333 371.666666667 406 385 c 1
 398 371.666666667 386.666666667 358.833333333 372 346.5 c 128
 357.333333333 334.166666667 341.333333333 324 324 316 c 128
 306.666666667 308 290 304 274 304 c 0
 266.666666667 304 259.5 304.5 252.5 305.5 c 128
 245.5 306.5 238 307 230 307 c 0
 218 307 205 303.666666667 191 297 c 128
 177 290.333333333 162.666666667 283.666666667 148 277 c 128
 133.333333333 270.333333333 119 267 105 267 c 0
 86.3333333333 267 71.8333333333 272.5 61.5 283.5 c 128
 51.1666666667 294.5 46 309.333333333 46 328 c 0
 46 342.666666667 48.1666666667 358.5 52.5 375.5 c 128
 56.8333333333 392.5 61.3333333333 408.833333333 66 424.5 c 128
 70.6666666667 440.166666667 73.3333333333 453.333333333 74 464 c 0
 74.6666666667 470.666666667 74.1666666667 478.166666667 72.5 486.5 c 128
 70.8333333333 494.833333333 66.3333333333 500.666666667 59 504 c 1
 59 516 l 1
 147 536 l 2
 159.666666667 538.666666667 171.333333333 540 182 540 c 0
 192.666666667 540 201.333333333 536.166666667 208 528.5 c 128
 214.666666667 520.833333333 218 512 218 502 c 0
 218 487.333333333 215.333333333 472.166666667 210 456.5 c 128
 204.666666667 440.833333333 199.166666667 426 193.5 412 c 128
 187.833333333 398 185 386 185 376 c 0
 185 364.666666667 187.166666667 355.5 191.5 348.5 c 128
 195.833333333 341.5 204.333333333 338 217 338 c 0
 238.333333333 338 256.166666667 345.166666667 270.5 359.5 c 128
 284.833333333 373.833333333 295.666666667 391.333333333 303 412 c 128
 310.333333333 432.666666667 314 452 314 470 c 0
 314 480 311 490.166666667 305 500.5 c 128
 299 510.833333333 291 517.333333333 281 520 c 1
 281 533 l 1
 375 551 l 2
 380.333333333 551.666666667 385.5 552.333333333 390.5 553 c 128
 395.5 553.666666667 400.666666667 554 406 554 c 0
 418.666666667 554 428.666666667 550.5 436 543.5 c 128
 443.333333333 536.5 447 526.666666667 447 514 c 0
 447 504.666666667 446 495.333333333 444 486 c 128
 442 476.666666667 440 467.666666667 438 459 c 1
 442.666666667 435.666666667 452.333333333 418.5 467 407.5 c 128
 481.666666667 396.5 500.333333333 389.666666667 523 387 c 1
 527 404.333333333 530.833333333 421.333333333 534.5 438 c 128
 538.166666667 454.666666667 540 472 540 490 c 0
 540 500.666666667 538.666666667 511 536 521 c 128
 533.333333333 531 526 537.666666667 514 541 c 1
 513 558 l 1
 599 574 l 2
 605 575.333333333 611.666666667 576.5 619 577.5 c 128
 626.333333333 578.5 632.333333333 579 637 579 c 0
 655 579 666.5 572 671.5 558 c 128
 676.5 544 679 529.666666667 679 515 c 0
 679 505 677.666666667 492.666666667 675 478 c 128
 672.333333333 463.333333333 669.666666667 449.666666667 667 437 c 2
 598 132 l 2
 594.666666667 115.333333333 593 98.6666666667 593 82 c 0
 593 70 595.333333333 60.8333333333 600 54.5 c 128
 604.666666667 48.1666666667 613.333333333 45 626 45 c 0
 637.333333333 45 648.666666667 45.3333333333 660 46 c 128
 677 47 677 47 694 48 c 1
 700.666666667 63.3333333333 710.666666667 75.1666666667 724 83.5 c 128
 737.333333333 91.8333333333 752 97.5 768 100.5 c 128
 784 103.5 799.666666667 105 815 105 c 0
 823.666666667 105 833 104.333333333 843 103 c 128
 853 101.666666667 862 99 870 95 c 1
 862.666666667 89 856.833333333 79.6666666667 852.5 67 c 128
 848.166666667 54.3333333333 846 43.3333333333 846 34 c 0
 846 6 857.666666667 -17.6666666667 881 -37 c 1
EndSplineSet
EndChar
StartChar: uni1223
Encoding: 4643 4643 1032
Width: 706
GlyphClass: 2
Flags: W
AnchorPoint: "Ethiopic Mark" 373 621 basechar 0
LayerCount: 2
Fore
SplineSet
679 515 m 0
 679 506.333333333 677.666666667 494.333333333 675 479 c 128
 672.333333333 463.666666667 669.666666667 449.666666667 667 437 c 2
 601 152 l 2
 599 143.333333333 597.333333333 134.5 596 125.5 c 128
 594.666666667 116.5 594 107.666666667 594 99 c 0
 594 83.6666666667 596.666666667 69.5 602 56.5 c 128
 607.333333333 43.5 617.666666667 33.6666666667 633 27 c 1
 633 14 l 1
 619 12 603.333333333 10 586 8 c 128
 568.666666667 6 552.333333333 4.16666666667 537 2.5 c 128
 521.666666667 0.833333333333 510 0 502 0 c 0
 484 0 472.333333333 5.5 467 16.5 c 128
 461.666666667 27.5 459 44.6666666667 459 68 c 0
 459 82 460.166666667 97 462.5 113 c 128
 464.833333333 129 467.333333333 143.666666667 470 157 c 2
 515 354 l 1
 492.333333333 354 473.333333333 355.833333333 458 359.5 c 128
 442.666666667 363.166666667 425.333333333 371.666666667 406 385 c 1
 391.333333333 360.333333333 369.833333333 340.166666667 341.5 324.5 c 128
 313.166666667 308.833333333 284.666666667 301 256 301 c 0
 247.333333333 301 238.333333333 301.166666667 229 301.5 c 128
 219.666666667 301.833333333 210.666666667 301.333333333 202 300 c 0
 198.666666667 299.333333333 195 298 191 296 c 128
 187 294 183 292.333333333 179 291 c 0
 169.666666667 287 157.666666667 282 143 276 c 128
 128.333333333 270 115.666666667 267 105 267 c 0
 86.3333333333 267 71.8333333333 272.5 61.5 283.5 c 128
 51.1666666667 294.5 46 309.333333333 46 328 c 0
 46 342.666666667 48.3333333333 357.833333333 53 373.5 c 128
 57.6666666667 389.166666667 62.3333333333 404.666666667 67 420 c 128
 71.6666666667 435.333333333 74 450 74 464 c 0
 74 470.666666667 73.3333333333 478.166666667 72 486.5 c 128
 70.6666666667 494.833333333 66.3333333333 500.666666667 59 504 c 1
 59 516 l 1
 147 536 l 2
 159.666666667 538.666666667 171.333333333 540 182 540 c 0
 192.666666667 540 201.333333333 536.166666667 208 528.5 c 128
 214.666666667 520.833333333 218 512 218 502 c 0
 218 487.333333333 215.333333333 472.666666667 210 458 c 128
 204.666666667 443.333333333 199.166666667 429 193.5 415 c 128
 187.833333333 401 185 388 185 376 c 0
 185 364.666666667 187.166666667 355.5 191.5 348.5 c 128
 195.833333333 341.5 204.333333333 338 217 338 c 0
 238.333333333 338 256.166666667 345.166666667 270.5 359.5 c 128
 284.833333333 373.833333333 295.666666667 391.333333333 303 412 c 128
 310.333333333 432.666666667 314 452 314 470 c 0
 314 480 311 490.166666667 305 500.5 c 128
 299 510.833333333 291 517.333333333 281 520 c 1
 281 533 l 1
 375 551 l 2
 380.333333333 551.666666667 385.5 552.333333333 390.5 553 c 128
 395.5 553.666666667 400.666666667 554 406 554 c 0
 418.666666667 554 428.666666667 550.5 436 543.5 c 128
 443.333333333 536.5 447 526.666666667 447 514 c 0
 447 504.666666667 446 495.333333333 444 486 c 128
 442 476.666666667 440 467.666666667 438 459 c 1
 442.666666667 435.666666667 452.333333333 418.5 467 407.5 c 128
 481.666666667 396.5 500.333333333 389.666666667 523 387 c 1
 530.333333333 414.333333333 535 436.333333333 537 453 c 128
 539 469.666666667 540 482 540 490 c 0
 540 500.666666667 538.666666667 511 536 521 c 128
 533.333333333 531 526 537.666666667 514 541 c 1
 513 558 l 1
 599 574 l 2
 605 575.333333333 611.833333333 576.5 619.5 577.5 c 128
 627.166666667 578.5 633 579 637 579 c 0
 655 579 666.5 571.833333333 671.5 557.5 c 128
 676.5 543.166666667 679 529 679 515 c 0
EndSplineSet
EndChar
StartChar: uni1224
Encoding: 4644 4644 1033
Width: 853
GlyphClass: 2
Flags: W
AnchorPoint: "Ethiopic Mark" 373 621 basechar 0
LayerCount: 2
Fore
SplineSet
812 129 m 0
 812 93 803.166666667 65 785.5 45 c 128
 767.833333333 25 740.666666667 15 704 15 c 0
 692.666666667 15 681.5 15.5 670.5 16.5 c 128
 659.5 17.5 648.333333333 18 637 18 c 0
 627.666666667 18 615.166666667 16.5 599.5 13.5 c 128
 583.833333333 10.5 567.333333333 7.5 550 4.5 c 128
 532.666666667 1.5 517 0 503 0 c 0
 484.333333333 0 471.166666667 5.33333333333 463.5 16 c 128
 455.833333333 26.6666666667 452 40.6666666667 452 58 c 0
 452 72 452.833333333 84.8333333333 454.5 96.5 c 128
 456.166666667 108.166666667 458 118.333333333 460 127 c 2
 515 354 l 1
 492.333333333 354 473.333333333 355.833333333 458 359.5 c 128
 442.666666667 363.166666667 425.333333333 371.666666667 406 385 c 1
 392 362.333333333 373.166666667 343.666666667 349.5 329 c 128
 325.833333333 314.333333333 300.666666667 307 274 307 c 0
 264.666666667 307 255 307.166666667 245 307.5 c 128
 235 307.833333333 225.333333333 307 216 305 c 0
 212.666666667 304.333333333 209.166666667 303.166666667 205.5 301.5 c 128
 201.833333333 299.833333333 198.333333333 298.333333333 195 297 c 0
 188.333333333 294.333333333 179.166666667 290.5 167.5 285.5 c 128
 155.833333333 280.5 144.333333333 276.166666667 133 272.5 c 128
 121.666666667 268.833333333 112.333333333 267 105 267 c 0
 86.3333333333 267 71.8333333333 272.5 61.5 283.5 c 128
 51.1666666667 294.5 46 309.333333333 46 328 c 0
 46 342.666666667 48.3333333333 357.833333333 53 373.5 c 128
 57.6666666667 389.166666667 62.3333333333 404.666666667 67 420 c 128
 71.6666666667 435.333333333 74 450 74 464 c 0
 74 470.666666667 73.3333333333 478.166666667 72 486.5 c 128
 70.6666666667 494.833333333 66.3333333333 500.666666667 59 504 c 1
 59 516 l 1
 147 536 l 2
 159.666666667 538.666666667 171.333333333 540 182 540 c 0
 192.666666667 540 201.333333333 536.166666667 208 528.5 c 128
 214.666666667 520.833333333 218 512 218 502 c 0
 218 487.333333333 215.333333333 472.166666667 210 456.5 c 128
 204.666666667 440.833333333 199.166666667 426 193.5 412 c 128
 187.833333333 398 185 386 185 376 c 0
 185 364.666666667 187.166666667 355.5 191.5 348.5 c 128
 195.833333333 341.5 204.333333333 338 217 338 c 0
 238.333333333 338 256.166666667 345.166666667 270.5 359.5 c 128
 284.833333333 373.833333333 295.666666667 391.333333333 303 412 c 128
 310.333333333 432.666666667 314 452 314 470 c 0
 314 480 311 490.166666667 305 500.5 c 128
 299 510.833333333 291 517.333333333 281 520 c 1
 281 533 l 1
 375 551 l 2
 380.333333333 551.666666667 385.5 552.333333333 390.5 553 c 128
 395.5 553.666666667 400.666666667 554 406 554 c 0
 418.666666667 554 428.666666667 550.5 436 543.5 c 128
 443.333333333 536.5 447 526.666666667 447 514 c 0
 447 504.666666667 446 495.333333333 444 486 c 128
 442 476.666666667 440 467.666666667 438 459 c 1
 442.666666667 435.666666667 452.333333333 418.5 467 407.5 c 128
 481.666666667 396.5 500.333333333 389.666666667 523 387 c 1
 529 409 533.333333333 428.833333333 536 446.5 c 128
 538.666666667 464.166666667 540 478.666666667 540 490 c 0
 540 500.666666667 538.666666667 511 536 521 c 128
 533.333333333 531 526 537.666666667 514 541 c 1
 513 558 l 1
 599 574 l 2
 605 575.333333333 611.333333333 576.5 618 577.5 c 128
 624.666666667 578.5 631 579 637 579 c 0
 655 579 666.5 572 671.5 558 c 128
 676.5 544 679 529.666666667 679 515 c 0
 679 505 677.666666667 492.666666667 675 478 c 128
 672.333333333 463.333333333 669.666666667 449.666666667 667 437 c 2
 612 192 l 1
 632.666666667 195.333333333 653.666666667 199.666666667 675 205 c 128
 696.333333333 210.333333333 717.333333333 213 738 213 c 0
 764.666666667 213 783.666666667 205.166666667 795 189.5 c 128
 806.333333333 173.833333333 812 153.666666667 812 129 c 0
680 117 m 0
 680 123.666666667 679.333333333 131.5 678 140.5 c 128
 676.666666667 149.5 674 157.333333333 670 164 c 128
 666 170.666666667 659.333333333 174 650 174 c 0
 636 174 621.666666667 171.333333333 607 166 c 1
 605 157.333333333 602.5 146.333333333 599.5 133 c 128
 596.5 119.666666667 593.833333333 107.166666667 591.5 95.5 c 128
 589.166666667 83.8333333333 588 75.6666666667 588 71 c 0
 588 59 590.5 50.6666666667 595.5 46 c 128
 600.5 41.3333333333 608.666666667 39 620 39 c 0
 632 39 642.5 43.3333333333 651.5 52 c 128
 660.5 60.6666666667 667.5 71 672.5 83 c 128
 677.5 95 680 106.333333333 680 117 c 0
EndSplineSet
EndChar
StartChar: uni1226
Encoding: 4646 4646 1035
Width: 726
GlyphClass: 2
Flags: W
AnchorPoint: "Ethiopic Mark" 361 598 basechar 0
LayerCount: 2
Fore
SplineSet
696 513 m 0
 696 471 685.5 436.666666667 664.5 410 c 128
 643.5 383.333333333 616.166666667 363.666666667 582.5 351 c 128
 548.833333333 338.333333333 513 332 475 332 c 0
 463 332 450.5 332.333333333 437.5 333 c 128
 424.5 333.666666667 412.333333333 336.333333333 401 341 c 1
 238 84 l 2
 235.333333333 80 233.333333333 75 232 69 c 128
 230.666666667 63 230 57.3333333333 230 52 c 0
 230 44.6666666667 232.333333333 39.1666666667 237 35.5 c 128
 241.666666667 31.8333333333 247 29 253 27 c 1
 253 11 l 1
 232.333333333 9 211.166666667 6.66666666667 189.5 4 c 128
 167.833333333 1.33333333333 146.666666667 0 126 0 c 0
 110.666666667 0 99.3333333333 2.66666666667 92 8 c 128
 84.6666666667 13.3333333333 81 24.3333333333 81 41 c 0
 81 50.3333333333 82.6666666667 59 86 67 c 128
 89.3333333333 75 93.3333333333 82.6666666667 98 90 c 2
 228 296 l 1
 226 296 223.666666667 295.666666667 221 295 c 128
 218.333333333 294.333333333 215.666666667 294 213 294 c 0
 207 294 207 294 200.5 294 c 128
 196.166666667 294 192 294.333333333 188 295 c 1
 176 287.666666667 163.666666667 281.333333333 151 276 c 128
 138.333333333 270.666666667 125 268 111 268 c 0
 93 268 77.8333333333 274 65.5 286 c 128
 53.1666666667 298 47 313 47 331 c 0
 47 345.666666667 49.6666666667 362.333333333 55 381 c 128
 60.3333333333 399.666666667 65.8333333333 417.333333333 71.5 434 c 128
 77.1666666667 450.666666667 80 462.666666667 80 470 c 0
 80 476 78 481.333333333 74 486 c 128
 70 490.666666667 65.3333333333 493.666666667 60 495 c 1
 60 507 l 1
 85 513 l 2
 95 515.666666667 107.666666667 519 123 523 c 128
 138.333333333 527 153.666666667 530.666666667 169 534 c 128
 184.333333333 537.333333333 197 539 207 539 c 0
 218.333333333 539 225.5 534.666666667 228.5 526 c 128
 231.5 517.333333333 233 508.666666667 233 500 c 0
 233 484 230.166666667 467.333333333 224.5 450 c 128
 218.833333333 432.666666667 213 416.5 207 401.5 c 128
 201 386.5 198 373.666666667 198 363 c 0
 198 351.666666667 199.5 342.833333333 202.5 336.5 c 128
 205.5 330.166666667 213 327 225 327 c 0
 229 327 233.5 327.666666667 238.5 329 c 128
 243.5 330.333333333 248 331.666666667 252 333 c 1
 320 440 l 2
 323.333333333 446 326.833333333 452.333333333 330.5 459 c 128
 334.166666667 465.666666667 336 472.666666667 336 480 c 0
 336 492 331.666666667 501.666666667 323 509 c 1
 323 522 l 1
 412 542 l 2
 416.666666667 542.666666667 422.666666667 543.666666667 430 545 c 128
 437.333333333 546.333333333 443.666666667 547 449 547 c 0
 457 547 463 543.833333333 467 537.5 c 128
 471 531.166666667 473.666666667 523.833333333 475 515.5 c 128
 476.333333333 507.166666667 477 500 477 494 c 0
 477 486 475 475.5 471 462.5 c 128
 467 449.5 462.666666667 439.333333333 458 432 c 1
 458 415.333333333 459.833333333 400.333333333 463.5 387 c 128
 467.166666667 373.666666667 476.333333333 367 491 367 c 0
 510.333333333 367 525.666666667 373 537 385 c 128
 548.333333333 397 556.333333333 411.666666667 561 429 c 128
 565.666666667 446.333333333 568 463 568 479 c 0
 568 495 565.166666667 508.166666667 559.5 518.5 c 128
 553.833333333 528.833333333 543 536.666666667 527 542 c 1
 527 555 l 1
 622 575 l 2
 626.666666667 575.666666667 632.666666667 576.333333333 640 577 c 128
 647.333333333 577.666666667 653 578 657 578 c 0
 669 578 677.666666667 574.5 683 567.5 c 128
 688.333333333 560.5 691.833333333 552 693.5 542 c 128
 695.166666667 532 696 522.333333333 696 513 c 0
EndSplineSet
EndChar
StartChar: uni1227
Encoding: 4647 4647 1036
Width: 879
GlyphClass: 2
Flags: W
AnchorPoint: "Ethiopic Mark" 375 655 basechar 0
LayerCount: 2
Fore
SplineSet
813 -6 m 1
 807.666666667 -10 799.833333333 -12.8333333333 789.5 -14.5 c 128
 779.166666667 -16.1666666667 770.666666667 -17 764 -17 c 0
 746.666666667 -17 728.833333333 -13.3333333333 710.5 -6 c 128
 692.166666667 1.33333333333 676.333333333 11.8333333333 663 25.5 c 128
 649.666666667 39.1666666667 642.333333333 55.6666666667 641 75 c 1
 361 63 l 1
 363.666666667 41 358.333333333 21 345 3 c 128
 331.666666667 -15 314.5 -29.5 293.5 -40.5 c 128
 272.5 -51.5 252 -57 232 -57 c 0
 226 -57 219.333333333 -55.8333333333 212 -53.5 c 128
 204.666666667 -51.1666666667 198.333333333 -48.6666666667 193 -46 c 1
 201.666666667 -34.6666666667 208.666666667 -20.6666666667 214 -4 c 128
 219.333333333 12.6666666667 222 28 222 42 c 0
 222 50 221.666666667 58 221 66 c 128
 220 78 220 78 219 90 c 1
 440 99 l 1
 452.666666667 155 465.333333333 210.833333333 478 266.5 c 128
 490.666666667 322.166666667 503 378 515 434 c 1
 492.333333333 434 473.333333333 435.833333333 458 439.5 c 128
 442.666666667 443.166666667 425.333333333 451.666666667 406 465 c 1
 391.333333333 440.333333333 369.833333333 420.166666667 341.5 404.5 c 128
 313.166666667 388.833333333 284.666666667 381 256 381 c 0
 247.333333333 381 238.333333333 381.166666667 229 381.5 c 128
 219.666666667 381.833333333 210.666666667 381.333333333 202 380 c 0
 198.666666667 380 195.5 379.166666667 192.5 377.5 c 128
 189.5 375.833333333 186.333333333 374.333333333 183 373 c 0
 173 369 160.166666667 363.666666667 144.5 357 c 128
 128.833333333 350.333333333 115.666666667 347 105 347 c 0
 86.3333333333 347 71.8333333333 352.5 61.5 363.5 c 128
 51.1666666667 374.5 46 389.333333333 46 408 c 0
 46 422.666666667 48.3333333333 438.333333333 53 455 c 128
 57.6666666667 471.666666667 62.3333333333 487.833333333 67 503.5 c 128
 71.6666666667 519.166666667 74 532.666666667 74 544 c 0
 74 550.666666667 73.3333333333 558.166666667 72 566.5 c 128
 70.6666666667 574.833333333 66.3333333333 580.666666667 59 584 c 1
 59 596 l 1
 147 616 l 2
 159.666666667 618.666666667 171.333333333 620 182 620 c 0
 192.666666667 620 201.333333333 616.166666667 208 608.5 c 128
 214.666666667 600.833333333 218 592 218 582 c 0
 218 567.333333333 215.333333333 552 210 536 c 128
 204.666666667 520 199.166666667 505 193.5 491 c 128
 187.833333333 477 185 465.333333333 185 456 c 0
 185 444.666666667 187.166666667 435.5 191.5 428.5 c 128
 195.833333333 421.5 204.333333333 418 217 418 c 0
 238.333333333 418 256.166666667 425.166666667 270.5 439.5 c 128
 284.833333333 453.833333333 295.666666667 471.166666667 303 491.5 c 128
 310.333333333 511.833333333 314 531.333333333 314 550 c 0
 314 560 311 570.166666667 305 580.5 c 128
 299 590.833333333 291 597.333333333 281 600 c 1
 281 613 l 1
 375 631 l 2
 385.666666667 633 396 634 406 634 c 0
 418.666666667 634 428.666666667 630.5 436 623.5 c 128
 443.333333333 616.5 447 606.666666667 447 594 c 0
 447 584.666666667 446 575.333333333 444 566 c 128
 442 556.666666667 440 547.666666667 438 539 c 1
 442.666666667 515.666666667 452.333333333 498.5 467 487.5 c 128
 481.666666667 476.5 500.333333333 469.666666667 523 467 c 1
 527 484.333333333 530.833333333 501.333333333 534.5 518 c 128
 538.166666667 534.666666667 540 552 540 570 c 0
 540 580.666666667 538.666666667 591 536 601 c 128
 533.333333333 611 526 617.666666667 514 621 c 1
 513 638 l 1
 599 654 l 2
 605 655.333333333 611.333333333 656.5 618 657.5 c 128
 624.666666667 658.5 631 659 637 659 c 0
 655 659 666.5 652 671.5 638 c 128
 676.5 624 679 609.666666667 679 595 c 0
 679 582.333333333 677.666666667 569.333333333 675 556 c 128
 672.333333333 542.666666667 669.666666667 529.666666667 667 517 c 0
 635.666666667 379 604.333333333 241.333333333 573 104 c 1
 794 118 l 1
 792 103.333333333 791 87.6666666667 791 71 c 0
 791 42.3333333333 798.333333333 16.6666666667 813 -6 c 1
EndSplineSet
EndChar
StartChar: uni1228
Encoding: 4648 4648 1037
Width: 580
GlyphClass: 2
Flags: W
AnchorPoint: "Ethiopic Mark" 416 610 basechar 0
LayerCount: 2
Fore
SplineSet
542 23 m 1
 532.666666667 11 520.166666667 2 504.5 -4 c 128
 488.833333333 -10 474 -13 460 -13 c 0
 440 -13 420.833333333 -9 402.5 -1 c 128
 384.166666667 7 371.333333333 21.3333333333 364 42 c 1
 338.666666667 30.6666666667 309.666666667 20.8333333333 277 12.5 c 128
 244.333333333 4.16666666667 214.333333333 0 187 0 c 0
 148.333333333 0 115.166666667 9.5 87.5 28.5 c 128
 59.8333333333 47.5 46 78 46 120 c 0
 46 149.333333333 53.3333333333 177.166666667 68 203.5 c 128
 82.6666666667 229.833333333 101.666666667 255 125 279 c 128
 148.333333333 303 172.833333333 326 198.5 348 c 128
 224.166666667 370 248.666666667 391.666666667 272 413 c 128
 295.333333333 434.333333333 314.333333333 455.333333333 329 476 c 128
 343.666666667 496.666666667 351 517.666666667 351 539 c 0
 351 543.666666667 349 548.333333333 345 553 c 128
 341 557.666666667 337 560.666666667 333 562 c 1
 333 583 l 1
 439 598 l 2
 447 599.333333333 456 600 466 600 c 0
 476.666666667 600 484.333333333 595.666666667 489 587 c 128
 493.666666667 578.333333333 496 569.333333333 496 560 c 0
 496 537.333333333 488.833333333 514.666666667 474.5 492 c 128
 460.166666667 469.333333333 441.833333333 446.5 419.5 423.5 c 128
 397.166666667 400.5 373.333333333 377.166666667 348 353.5 c 128
 322.666666667 329.833333333 298.666666667 305.666666667 276 281 c 128
 253.333333333 256.333333333 234.833333333 231.166666667 220.5 205.5 c 128
 206.166666667 179.833333333 199 153 199 125 c 0
 199 100.333333333 203.5 82.1666666667 212.5 70.5 c 128
 221.5 58.8333333333 238.666666667 53 264 53 c 0
 278.666666667 53 294.5 55.1666666667 311.5 59.5 c 128
 328.5 63.8333333333 343.666666667 69.3333333333 357 76 c 1
 365.666666667 105.333333333 382.833333333 125.5 408.5 136.5 c 128
 434.166666667 147.5 461 153 489 153 c 0
 493 153 497.833333333 152.666666667 503.5 152 c 128
 509.166666667 151.333333333 513.666666667 150 517 148 c 1
 513.666666667 141.333333333 511 133.166666667 509 123.5 c 128
 507 113.833333333 506 105.333333333 506 98 c 0
 506 84.6666666667 508.833333333 70.5 514.5 55.5 c 128
 520.166666667 40.5 529.333333333 29.6666666667 542 23 c 1
EndSplineSet
EndChar
StartChar: uni122B
Encoding: 4651 4651 1040
Width: 752
GlyphClass: 2
Flags: W
AnchorPoint: "Ethiopic Mark" 417 619 basechar 0
LayerCount: 2
Fore
SplineSet
716 159 m 1
 708.666666667 154.333333333 698.666666667 151.166666667 686 149.5 c 128
 673.333333333 147.833333333 663 147 655 147 c 0
 623.666666667 147 599 154.5 581 169.5 c 128
 563 184.5 554 208.666666667 554 242 c 1
 521.333333333 239.333333333 497.666666667 232 483 220 c 128
 468.333333333 208 459.333333333 185 456 151 c 0
 454.666666667 138.333333333 453.833333333 125.666666667 453.5 113 c 128
 453.166666667 100.333333333 453 87.6666666667 453 75 c 1
 266 14 l 2
 238 4.66666666667 208.333333333 0 177 0 c 0
 140.333333333 0 109.333333333 10.3333333333 84 31 c 128
 58.6666666667 51.6666666667 46 81.3333333333 46 120 c 0
 46 151.333333333 53.1666666667 180.833333333 67.5 208.5 c 128
 81.8333333333 236.166666667 100.5 262 123.5 286 c 128
 146.5 310 171 333.166666667 197 355.5 c 128
 223 377.833333333 247.5 399.333333333 270.5 420 c 128
 293.5 440.666666667 312.166666667 461.333333333 326.5 482 c 128
 340.833333333 502.666666667 348 523.333333333 348 544 c 0
 348 548.666666667 347.166666667 553.5 345.5 558.5 c 128
 343.833333333 563.5 339.666666667 566.333333333 333 567 c 1
 333 585 l 1
 442 604 l 2
 450 605.333333333 459 606 469 606 c 0
 483 606 491.5 600.666666667 494.5 590 c 128
 497.5 579.333333333 499 568.333333333 499 557 c 0
 499 531 492 506.666666667 478 484 c 128
 464 461.333333333 445.833333333 439.5 423.5 418.5 c 128
 401.166666667 397.5 377.666666667 376.5 353 355.5 c 128
 328.333333333 334.5 304.833333333 312.666666667 282.5 290 c 128
 260.166666667 267.333333333 242 243 228 217 c 128
 214 191 207 162.333333333 207 131 c 0
 207 100.333333333 215.833333333 81.6666666667 233.5 75 c 128
 251.166666667 68.3333333333 275 65 305 65 c 1
 307 112.333333333 317.666666667 149.833333333 337 177.5 c 128
 356.333333333 205.166666667 382.166666667 226.5 414.5 241.5 c 128
 446.833333333 256.5 484 268 526 276 c 0
 552.666666667 281.333333333 579.5 285.666666667 606.5 289 c 128
 633.5 292.333333333 660.333333333 295.333333333 687 298 c 1
 687 274 688.5 250 691.5 226 c 128
 694.5 202 702.666666667 179.666666667 716 159 c 1
EndSplineSet
EndChar
StartChar: uni122C
Encoding: 4652 4652 1041
Width: 692
GlyphClass: 2
Flags: W
AnchorPoint: "Ethiopic Mark" 416 619 basechar 0
LayerCount: 2
Fore
SplineSet
653 164 m 0
 653 139.333333333 645.333333333 117.666666667 630 99 c 128
 614.666666667 80.3333333333 595.833333333 65.8333333333 573.5 55.5 c 128
 551.166666667 45.1666666667 528.666666667 40 506 40 c 0
 500.666666667 40 495.166666667 40.1666666667 489.5 40.5 c 128
 483.833333333 40.8333333333 478.333333333 41 473 41 c 0
 469 41 462.5 39.3333333333 453.5 36 c 128
 444.5 32.6666666667 438 30.3333333333 434 29 c 0
 424 25.6666666667 414.166666667 22.8333333333 404.5 20.5 c 128
 394.833333333 18.1666666667 384.666666667 17 374 17 c 0
 355.333333333 17 338.666666667 22.3333333333 324 33 c 1
 304 25.6666666667 279.666666667 18.3333333333 251 11 c 128
 222.333333333 3.66666666667 197.666666667 0 177 0 c 0
 140.333333333 0 109.333333333 10.3333333333 84 31 c 128
 58.6666666667 51.6666666667 46 81.3333333333 46 120 c 0
 46 151.333333333 53.1666666667 180.833333333 67.5 208.5 c 128
 81.8333333333 236.166666667 100.5 262 123.5 286 c 128
 146.5 310 171 333.166666667 197 355.5 c 128
 223 377.833333333 247.5 399.333333333 270.5 420 c 128
 293.5 440.666666667 312.166666667 461.333333333 326.5 482 c 128
 340.833333333 502.666666667 348 523.333333333 348 544 c 0
 348 548.666666667 347.166666667 553.5 345.5 558.5 c 128
 343.833333333 563.5 339.666666667 566.333333333 333 567 c 1
 333 585 l 1
 439 604 l 2
 443 604.666666667 447.333333333 605.166666667 452 605.5 c 128
 456.666666667 605.833333333 461.333333333 606 466 606 c 0
 480 606 488.5 600.833333333 491.5 590.5 c 128
 494.5 580.166666667 496 569 496 557 c 0
 496 533.666666667 488.666666667 511.166666667 474 489.5 c 128
 459.333333333 467.833333333 440.5 446.333333333 417.5 425 c 128
 394.5 403.666666667 370.166666667 381.833333333 344.5 359.5 c 128
 318.833333333 337.166666667 294.5 313.833333333 271.5 289.5 c 128
 248.5 265.166666667 229.666666667 239.5 215 212.5 c 128
 200.333333333 185.5 193 156.333333333 193 125 c 0
 193 103.666666667 199.5 87.3333333333 212.5 76 c 128
 225.5 64.6666666667 242.666666667 59 264 59 c 0
 274.666666667 59 285.666666667 60.3333333333 297 63 c 1
 285.666666667 83.6666666667 280 105 280 127 c 0
 280 157.666666667 288.166666667 179.666666667 304.5 193 c 128
 320.833333333 206.333333333 342.666666667 216 370 222 c 0
 382.666666667 224.666666667 395.333333333 226.166666667 408 226.5 c 128
 420.666666667 226.833333333 433.333333333 228 446 230 c 0
 466 233.333333333 485.333333333 237.833333333 504 243.5 c 128
 522.666666667 249.166666667 542.333333333 252 563 252 c 0
 590.333333333 252 612.166666667 244.166666667 628.5 228.5 c 128
 644.833333333 212.833333333 653 191.333333333 653 164 c 0
513 135 m 0
 513 149 510.333333333 163.333333333 505 178 c 128
 499.666666667 192.666666667 488.333333333 200 471 200 c 0
 454.333333333 200 441.666666667 195.166666667 433 185.5 c 128
 424.333333333 175.833333333 420 162.666666667 420 146 c 0
 420 134.666666667 421 123.166666667 423 111.5 c 128
 425 99.8333333333 429.333333333 90.3333333333 436 83 c 128
 442.666666667 75.6666666667 453.333333333 72 468 72 c 0
 488 72 500.5 78.3333333333 505.5 91 c 128
 510.5 103.666666667 513 118.333333333 513 135 c 0
EndSplineSet
EndChar
StartChar: uni1230
Encoding: 4656 4656 1046
Width: 553
GlyphClass: 2
Flags: W
AnchorPoint: "Ethiopic Mark" 279 674 basechar 0
LayerCount: 2
Fore
SplineSet
517 17 m 1
 413 2 l 2
 404 1 404 1 395 0 c 0
 377 0 365.666666667 5.16666666667 361 15.5 c 128
 356.333333333 25.8333333333 354 38.6666666667 354 54 c 0
 354 96.6666666667 355.5 139.666666667 358.5 183 c 128
 361.5 226.333333333 363 269.333333333 363 312 c 0
 363 326.666666667 362 343.833333333 360 363.5 c 128
 358 383.166666667 354.166666667 402.5 348.5 421.5 c 128
 342.833333333 440.5 334.166666667 456.166666667 322.5 468.5 c 128
 310.833333333 480.833333333 294.666666667 487 274 487 c 0
 264.666666667 487 255.833333333 485.833333333 247.5 483.5 c 128
 239.166666667 481.166666667 231.666666667 476.666666667 225 470 c 0
 213 458.666666667 203.666666667 440.833333333 197 416.5 c 128
 190.333333333 392.166666667 185.833333333 365.5 183.5 336.5 c 128
 181.166666667 307.5 179.833333333 280 179.5 254 c 128
 179.166666667 228 179 207.666666667 179 193 c 0
 179 182 179 182 179 162 c 128
 179 148.666666667 179.166666667 134.166666667 179.5 118.5 c 128
 179.833333333 102.833333333 180.833333333 88.5 182.5 75.5 c 128
 184.166666667 62.5 186.666666667 52.6666666667 190 46 c 0
 192.666666667 42 196 38.6666666667 200 36 c 128
 204 33.3333333333 208.333333333 31.3333333333 213 30 c 1
 213 17 l 1
 112 2 l 2
 108.666666667 2 105.166666667 1.66666666667 101.5 1 c 128
 97.8333333333 0.333333333333 94 0 90 -0 c 0
 81.3333333333 0 74.3333333333 2.33333333333 69 7 c 0
 63 12.3333333333 58.5 21.6666666667 55.5 35 c 128
 52.5 48.3333333333 50.3333333333 63.1666666667 49 79.5 c 128
 47.6666666667 95.8333333333 47 111.166666667 47 125.5 c 128
 47 147 47 147 47 158 c 0
 47 184.666666667 47.3333333333 214 48 246 c 128
 48.6666666667 278 52 309.5 58 340.5 c 128
 64 371.5 74.6666666667 398.333333333 90 421 c 0
 104.666666667 443.666666667 123.666666667 462.333333333 147 477 c 128
 170.333333333 491.666666667 194.666666667 502.666666667 220 510 c 1
 220 605 l 2
 220 609.666666667 218.666666667 615.666666667 216 623 c 128
 213.333333333 630.333333333 208.666666667 633.666666667 202 633 c 1
 200 645 l 1
 313 664 l 2
 321 665 321 665 329 666 c 0
 340.333333333 666 347.666666667 663.333333333 351 658 c 128
 354.333333333 652.666666667 356 645 356 635 c 2
 356 525 l 1
 394.666666667 522.333333333 423.666666667 512.666666667 443 496 c 128
 462.333333333 479.333333333 475.166666667 457.666666667 481.5 431 c 128
 487.833333333 404.333333333 491 374 491 340 c 0
 491 299.333333333 489.833333333 258.5 487.5 217.5 c 128
 485.166666667 176.5 484 135.666666667 484 95 c 0
 484 79.6666666667 485.166666667 67 487.5 57 c 128
 489.833333333 47 499.666666667 39 517 33 c 1
 517 17 l 1
EndSplineSet
EndChar
StartChar: uni1231
Encoding: 4657 4657 1047
Width: 752
GlyphClass: 2
Flags: W
AnchorPoint: "Ethiopic Mark" 290 674 basechar 0
LayerCount: 2
Fore
SplineSet
727 230 m 1
 713 220.666666667 700.5 214.5 689.5 211.5 c 128
 678.5 208.5 665 207 649 207 c 0
 623 207 602.5 212.666666667 587.5 224 c 128
 572.5 235.333333333 560.666666667 253.333333333 552 278 c 1
 490 278 l 1
 488.666666667 247.333333333 487.333333333 216.833333333 486 186.5 c 128
 484.666666667 156.166666667 484 125.666666667 484 95 c 0
 484 79.6666666667 485.166666667 67 487.5 57 c 128
 489.833333333 47 499.666666667 39 517 33 c 1
 517 17 l 1
 413 2 l 2
 404 1 404 1 395 0 c 0
 377 0 365.666666667 5.16666666667 361 15.5 c 128
 356.333333333 25.8333333333 354 38.6666666667 354 54 c 0
 354 96.6666666667 355.5 139.666666667 358.5 183 c 128
 361.5 226.333333333 363 269.333333333 363 312 c 0
 363 326.666666667 362 343.833333333 360 363.5 c 128
 358 383.166666667 354.166666667 402.5 348.5 421.5 c 128
 342.833333333 440.5 334.166666667 456.166666667 322.5 468.5 c 128
 310.833333333 480.833333333 294.666666667 487 274 487 c 0
 264.666666667 487 255.833333333 485.833333333 247.5 483.5 c 128
 239.166666667 481.166666667 231.666666667 476.666666667 225 470 c 0
 213 458.666666667 203.666666667 440.833333333 197 416.5 c 128
 190.333333333 392.166666667 185.833333333 365.5 183.5 336.5 c 128
 181.166666667 307.5 179.833333333 280 179.5 254 c 128
 179.166666667 228 179 207.666666667 179 193 c 0
 179 183 179 183 179 161.5 c 128
 179 147.166666667 179.166666667 132 179.5 116 c 128
 179.833333333 100 181 85.3333333333 183 72 c 128
 185 58.6666666667 188 49 192 43 c 0
 194.666666667 39.6666666667 197.833333333 37 201.5 35 c 128
 205.166666667 33 209 31.3333333333 213 30 c 1
 213 17 l 1
 112 2 l 2
 108.666666667 2 105.166666667 1.66666666667 101.5 1 c 128
 97.8333333333 0.333333333333 94 0 90 -0 c 0
 80.6666666667 0 73.6666666667 2.33333333333 69 7 c 0
 63 13 58.5 22.6666666667 55.5 36 c 128
 52.5 49.3333333333 50.3333333333 64 49 80 c 128
 47.6666666667 96 47 111.166666667 47 125.5 c 128
 47 147 47 147 47 158 c 0
 47 184.666666667 47.3333333333 213.833333333 48 245.5 c 128
 48.6666666667 277.166666667 52 308.5 58 339.5 c 128
 64 370.5 74.6666666667 397.666666667 90 421 c 0
 104.666666667 443.666666667 123.666666667 462.333333333 147 477 c 128
 170.333333333 491.666666667 194.666666667 502.666666667 220 510 c 1
 220 605 l 2
 220 609.666666667 218.666666667 615.666666667 216 623 c 128
 213.333333333 630.333333333 208.666666667 633.666666667 202 633 c 1
 200 645 l 1
 313 664 l 2
 321 665 321 665 329 666 c 0
 340.333333333 666 347.666666667 663.333333333 351 658 c 128
 354.333333333 652.666666667 356 645 356 635 c 2
 356 525 l 1
 388.666666667 523 414.166666667 515.833333333 432.5 503.5 c 128
 450.833333333 491.166666667 464.166666667 475.333333333 472.5 456 c 128
 480.833333333 436.666666667 486 414.833333333 488 390.5 c 128
 490 366.166666667 491 340.666666667 491 314 c 1
 559 314 l 1
 573.666666667 331.333333333 588.333333333 344 603 352 c 128
 617.666666667 360 636.333333333 364 659 364 c 0
 670.333333333 364 680.166666667 363 688.5 361 c 128
 696.833333333 359 706.333333333 356 717 352 c 1
 712.333333333 342.666666667 708.333333333 333.666666667 705 325 c 128
 701.666666667 316.333333333 700 306.666666667 700 296 c 0
 700 282.666666667 701.666666667 270.5 705 259.5 c 128
 708.333333333 248.5 715.666666667 238.666666667 727 230 c 1
EndSplineSet
EndChar
StartChar: uni1232
Encoding: 4658 4658 1048
Width: 786
GlyphClass: 2
Flags: W
AnchorPoint: "Ethiopic Mark" 293 676 basechar 0
LayerCount: 2
Fore
SplineSet
744 -31 m 1
 728.666666667 -37.6666666667 713.166666667 -43.5 697.5 -48.5 c 128
 681.833333333 -53.5 665.666666667 -56 649 -56 c 0
 628.333333333 -56 610 -48.8333333333 594 -34.5 c 128
 578 -20.1666666667 569.333333333 -2.66666666667 568 18 c 1
 413 1 l 2
 410.333333333 1 407.5 0.833333333333 404.5 0.5 c 128
 401.5 0.166666666667 398.666666667 0 396 0 c 0
 378 0 366.5 4.83333333333 361.5 14.5 c 128
 356.5 24.1666666667 354 37 354 53 c 0
 354 81.6666666667 354.666666667 111.833333333 356 143.5 c 128
 357.333333333 175.166666667 358.833333333 205.666666667 360.5 235 c 128
 362.166666667 264.333333333 363 290 363 312 c 0
 363 325.333333333 362.833333333 338.333333333 362.5 351 c 128
 362.166666667 363.666666667 361.666666667 376.333333333 361 389 c 0
 360.333333333 404.333333333 358.166666667 420.5 354.5 437.5 c 128
 350.833333333 454.5 344.333333333 469.166666667 335 481.5 c 128
 325.666666667 493.833333333 311 500 291 500 c 0
 271 500 254.833333333 494.166666667 242.5 482.5 c 128
 230.166666667 470.833333333 220.833333333 456 214.5 438 c 128
 208.166666667 420 203.5 401.333333333 200.5 382 c 128
 197.5 362.666666667 195.333333333 345.333333333 194 330 c 0
 192 307.333333333 190.666666667 284.666666667 190 262 c 128
 189.333333333 239.333333333 189 216.333333333 189 193 c 0
 189 185.666666667 188.833333333 175.166666667 188.5 161.5 c 128
 188.166666667 147.833333333 188.333333333 133.166666667 189 117.5 c 128
 189.666666667 101.833333333 190.833333333 87.3333333333 192.5 74 c 128
 194.166666667 60.6666666667 197 51 201 45 c 0
 203.666666667 41 207 37.8333333333 211 35.5 c 128
 215 33.1666666667 219 31.3333333333 223 30 c 1
 223 17 l 1
 122 2 l 2
 118.666666667 2 115.166666667 1.66666666667 111.5 1 c 128
 107.833333333 0.333333333333 104.333333333 0 101 -0 c 0
 90.3333333333 0 82.3333333333 3 77 9 c 256
 71.6666666667 15.6666666667 67.6666666667 25.5 65 38.5 c 128
 62.3333333333 51.5 60.5 65.8333333333 59.5 81.5 c 128
 58.5 97.1666666667 57.8333333333 111.833333333 57.5 125.5 c 128
 57.1666666667 139.166666667 57 150 57 158 c 0
 57 197.333333333 58 235.333333333 60 272 c 128
 62 308.666666667 68 342.666666667 78 374 c 128
 88 405.333333333 104.833333333 432.833333333 128.5 456.5 c 128
 152.166666667 480.166666667 186 498.666666667 230 512 c 1
 230 602 l 2
 230 609.333333333 227.666666667 616.166666667 223 622.5 c 128
 218.333333333 628.833333333 212 632.333333333 204 633 c 1
 202 645 l 1
 322 670 l 2
 324.666666667 670.666666667 327.333333333 671.166666667 330 671.5 c 128
 332.666666667 671.833333333 335.333333333 672 338 672 c 0
 348.666666667 672 355.833333333 669.166666667 359.5 663.5 c 128
 363.166666667 657.833333333 365 650.333333333 365 641 c 2
 365 527 l 1
 403 520.333333333 431 508.833333333 449 492.5 c 128
 467 476.166666667 478.5 455.333333333 483.5 430 c 128
 488.5 404.666666667 491 374.666666667 491 340 c 0
 491 295.333333333 490 250.5 488 205.5 c 128
 486 160.5 485 115.333333333 485 70 c 0
 485 62 486.333333333 56.1666666667 489 52.5 c 128
 491.666666667 48.8333333333 497.333333333 47 506 47 c 0
 516.666666667 47 527.166666667 47.8333333333 537.5 49.5 c 128
 547.833333333 51.1666666667 558 52.6666666667 568 54 c 1
 582 75.3333333333 600.166666667 90 622.5 98 c 128
 644.833333333 106 668.333333333 110 693 110 c 0
 707.666666667 110 721 108.333333333 733 105 c 1
 729.666666667 96.3333333333 726 86.3333333333 722 75 c 128
 718 63.6666666667 716 53 716 43 c 0
 716 28.3333333333 718.333333333 15.3333333333 723 4 c 128
 727.666666667 -7.33333333333 734.666666667 -19 744 -31 c 1
EndSplineSet
EndChar
StartChar: uni1235
Encoding: 4661 4661 1051
Width: 553
GlyphClass: 2
Flags: W
AnchorPoint: "Ethiopic Mark" 217 679 basechar 0
LayerCount: 2
Fore
SplineSet
517 17 m 1
 413 2 l 2
 404 1 404 1 395 0 c 0
 377 0 365.666666667 5.16666666667 361 15.5 c 128
 356.333333333 25.8333333333 354 38.6666666667 354 54 c 0
 354 82.6666666667 354.666666667 113.333333333 356 146 c 128
 357.333333333 178.666666667 358.833333333 209.666666667 360.5 239 c 128
 362.166666667 268.333333333 363 292.666666667 363 312 c 0
 363 326.666666667 362 343.833333333 360 363.5 c 128
 358 383.166666667 354.166666667 402.5 348.5 421.5 c 128
 342.833333333 440.5 334.166666667 456.166666667 322.5 468.5 c 128
 310.833333333 480.833333333 294.666666667 487 274 487 c 0
 264.666666667 487 255.833333333 485.833333333 247.5 483.5 c 128
 239.166666667 481.166666667 231.666666667 476.666666667 225 470 c 0
 213 458.666666667 203.666666667 440.833333333 197 416.5 c 128
 190.333333333 392.166666667 185.833333333 365.5 183.5 336.5 c 128
 181.166666667 307.5 179.833333333 280 179.5 254 c 128
 179.166666667 228 179 207.666666667 179 193 c 0
 179 173 179.333333333 152.333333333 180 131 c 128
 180.666666667 109.666666667 181.833333333 91.1666666667 183.5 75.5 c 128
 185.166666667 59.8333333333 187.666666667 49.6666666667 191 45 c 0
 196.333333333 37.6666666667 203.666666667 32.6666666667 213 30 c 1
 213 17 l 1
 112 2 l 2
 108.666666667 2 105.166666667 1.66666666667 101.5 1 c 128
 97.8333333333 0.333333333333 94 0 90 -0 c 0
 80.6666666667 0 73 3 67 9 c 0
 59.6666666667 17 54.6666666667 32.6666666667 52 56 c 128
 49.3333333333 79.3333333333 47.6666666667 113.333333333 47 158 c 0
 47 184 47.3333333333 213 48 245 c 128
 48.6666666667 277 52 308.666666667 58 340 c 128
 64 371.333333333 74.6666666667 398.333333333 90 421 c 0
 104 441.666666667 122.333333333 458.666666667 145 472 c 128
 167.666666667 485.333333333 190 497 212 507 c 1
 158 588 l 2
 150 600.666666667 144.833333333 609.833333333 142.5 615.5 c 128
 140.166666667 621.166666667 139 627 139 633 c 0
 139 642.333333333 143.333333333 649.333333333 152 654 c 128
 160.666666667 658.666666667 169 661.333333333 177 662 c 2
 304 675 l 1
 308 662 l 1
 303.333333333 656 300.333333333 650.5 299 645.5 c 128
 297.666666667 640.5 297 634.333333333 297 627 c 0
 297 621 298.166666667 614.5 300.5 607.5 c 128
 302.833333333 600.5 305.666666667 594.666666667 309 590 c 2
 354 525 l 1
 392.666666667 522.333333333 421.833333333 512.833333333 441.5 496.5 c 128
 461.166666667 480.166666667 474.333333333 458.5 481 431.5 c 128
 487.666666667 404.5 491 374 491 340 c 0
 491 299.333333333 489.833333333 258.5 487.5 217.5 c 128
 485.166666667 176.5 484 135.666666667 484 95 c 0
 484 79.6666666667 485.166666667 67 487.5 57 c 128
 489.833333333 47 499.666666667 39 517 33 c 1
 517 17 l 1
EndSplineSet
EndChar
StartChar: uni1237
Encoding: 4663 4663 1053
Width: 700
GlyphClass: 2
Flags: W
AnchorPoint: "Ethiopic Mark" 274 686 basechar 0
LayerCount: 2
Fore
SplineSet
663 -74 m 1
 658.333333333 -78.6666666667 650.833333333 -81.8333333333 640.5 -83.5 c 128
 630.166666667 -85.1666666667 622 -86 616 -86 c 0
 588.666666667 -86 564.833333333 -77.8333333333 544.5 -61.5 c 128
 524.166666667 -45.1666666667 513 -23 511 5 c 1
 210 -9 l 1
 210.666666667 -30.3333333333 203.666666667 -48.6666666667 189 -64 c 128
 174.333333333 -79.3333333333 156.833333333 -91.3333333333 136.5 -100 c 128
 116.166666667 -108.666666667 98 -113 82 -113 c 0
 75.3333333333 -113 68.6666666667 -112.666666667 62 -112 c 128
 55.3333333333 -111.333333333 48.6666666667 -111 42 -111 c 1
 50 -105 56.1666666667 -96 60.5 -84 c 128
 64.8333333333 -72 67.8333333333 -59.5 69.5 -46.5 c 128
 71.1666666667 -33.5 72 -22.6666666667 72 -14 c 0
 72 -4 70.3333333333 6.66666666667 67 18 c 1
 296 30 l 1
 299.333333333 73.3333333333 302.833333333 116.666666667 306.5 160 c 128
 310.166666667 203.333333333 314 246.666666667 318 290 c 0
 319.333333333 304 320.666666667 319.166666667 322 335.5 c 128
 323.333333333 351.833333333 324.5 367.166666667 325.5 381.5 c 128
 326.5 395.833333333 327 406.666666667 327 414 c 0
 327 428.666666667 326.5 442.833333333 325.5 456.5 c 128
 324.5 470.166666667 320.333333333 481.166666667 313 489.5 c 128
 305.666666667 497.833333333 292.666666667 502 274 502 c 0
 264 502 254.333333333 501 245 499 c 128
 235.666666667 497 227.333333333 492.333333333 220 485 c 0
 208.666666667 474.333333333 200.333333333 457.666666667 195 435 c 128
 189.666666667 412.333333333 185.833333333 387.5 183.5 360.5 c 128
 181.166666667 333.5 179.833333333 307.833333333 179.5 283.5 c 128
 179.166666667 259.166666667 179 240 179 226 c 0
 179 215.333333333 179.833333333 202.333333333 181.5 187 c 128
 183.166666667 171.666666667 189 160.666666667 199 154 c 1
 199 143 l 1
 99 127 l 2
 97 127 95.1666666667 126.833333333 93.5 126.5 c 128
 91.8333333333 126.166666667 90 126 88 126 c 0
 74 126 64.6666666667 131.666666667 60 143 c 128
 55.3333333333 154.333333333 53 167.333333333 53 182 c 128
 53 204 53 204 53 218 c 0
 53 254.666666667 54.1666666667 289.666666667 56.5 323 c 128
 58.8333333333 356.333333333 64.6666666667 386.666666667 74 414 c 128
 83.3333333333 441.333333333 98.5 464.333333333 119.5 483 c 128
 140.5 501.666666667 170 514.666666667 208 522 c 1
 205 610 l 2
 204.333333333 625.333333333 198.333333333 634.666666667 187 638 c 1
 185 650 l 1
 272 666 l 2
 278.666666667 667.333333333 286.333333333 668.5 295 669.5 c 128
 303.666666667 670.5 311 671 317 671 c 0
 333 671 341 662 341 644 c 2
 341 529 l 1
 375.666666667 527 400.5 518.833333333 415.5 504.5 c 128
 430.5 490.166666667 439.5 472.333333333 442.5 451 c 128
 445.5 429.666666667 447 406.666666667 447 382 c 0
 447 375.333333333 446.5 364.166666667 445.5 348.5 c 128
 444.5 332.833333333 443.333333333 316 442 298 c 128
 440.666666667 280 439.333333333 264.666666667 438 252 c 0
 435.333333333 216 432.666666667 180.166666667 430 144.5 c 128
 427.333333333 108.833333333 424.666666667 73 422 37 c 1
 640 48 l 1
 638.666666667 44 637.666666667 39.1666666667 637 33.5 c 128
 636.333333333 27.8333333333 636 22.6666666667 636 18 c 0
 636 3.33333333333 639 -12.1666666667 645 -28.5 c 128
 651 -44.8333333333 657 -60 663 -74 c 1
EndSplineSet
EndChar
StartChar: uni123A
Encoding: 4666 4666 1056
Width: 766
GlyphClass: 2
Flags: W
AnchorPoint: "Ethiopic Mark" 331 735 basechar 0
LayerCount: 2
Fore
SplineSet
727 -27 m 1
 709.666666667 -34.3333333333 694.5 -39.3333333333 681.5 -42 c 128
 668.5 -44.6666666667 652.666666667 -46 634 -46 c 0
 608 -46 588.5 -41.8333333333 575.5 -33.5 c 128
 562.5 -25.1666666667 553.666666667 -7.33333333333 549 20 c 1
 416 8 l 2
 409.333333333 7.33333333333 402.5 6.66666666667 395.5 6 c 128
 388.5 5.33333333333 381.666666667 5 375 5 c 0
 360.333333333 5 349.833333333 8 343.5 14 c 128
 337.166666667 20 334 30.6666666667 334 46 c 0
 334 54.6666666667 334.666666667 68.8333333333 336 88.5 c 128
 337.333333333 108.166666667 338.666666667 126 340 142 c 0
 342 166 344.166666667 191.666666667 346.5 219 c 128
 350 260 350 260 353.5 301 c 128
 355.833333333 328.333333333 357.666666667 353.333333333 359 376 c 128
 360.333333333 398.666666667 361 416.666666667 361 430 c 0
 361 438.666666667 359.833333333 448.5 357.5 459.5 c 128
 355.166666667 470.5 350.833333333 480 344.5 488 c 128
 338.166666667 496 329.666666667 500 319 500 c 0
 297 500 278.5 490.5 263.5 471.5 c 128
 248.5 452.5 236.333333333 426.333333333 227 393 c 128
 217.666666667 359.666666667 210.833333333 321.333333333 206.5 278 c 128
 202.166666667 234.666666667 200 188.333333333 200 139 c 0
 200 111.666666667 201.333333333 91.5 204 78.5 c 128
 206.666666667 65.5 210.666666667 55.8333333333 216 49.5 c 128
 221.333333333 43.1666666667 228.333333333 37 237 31 c 1
 237 18 l 1
 221 14.6666666667 202.833333333 10.8333333333 182.5 6.5 c 128
 162.166666667 2.16666666667 143.666666667 0 127 0 c 0
 121.666666667 0 116.333333333 0.666666666667 111 2 c 128
 105.666666667 3.33333333333 100.666666667 6 96 10 c 0
 92 13.3333333333 87.8333333333 19.6666666667 83.5 29 c 128
 79.1666666667 38.3333333333 75.5 53.5 72.5 74.5 c 128
 69.5 95.5 68 125.666666667 68 165 c 0
 68 208.333333333 72.1666666667 253.5 80.5 300.5 c 128
 88.8333333333 347.5 106.333333333 389 133 425 c 0
 147.666666667 445 167.333333333 465.166666667 192 485.5 c 128
 216.666666667 505.833333333 240.666666667 519.333333333 264 526 c 1
 269 640 l 1
 258.333333333 639.333333333 247.833333333 638.333333333 237.5 637 c 128
 227.166666667 635.666666667 216.666666667 634.333333333 206 633 c 1
 200 613 189.333333333 597.166666667 174 585.5 c 128
 158.666666667 573.833333333 141.166666667 565.666666667 121.5 561 c 128
 101.833333333 556.333333333 82.6666666667 554 64 554 c 0
 56 554 47.6666666667 554.166666667 39 554.5 c 128
 30.3333333333 554.833333333 21.6666666667 555.666666667 13 557 c 1
 23 566.333333333 30.3333333333 577.166666667 35 589.5 c 128
 39.6666666667 601.833333333 42 614.666666667 42 628 c 0
 42 643.333333333 40.5 655.666666667 37.5 665 c 128
 34.5 674.333333333 27.3333333333 684.666666667 16 696 c 1
 27.3333333333 703.333333333 42.1666666667 708.833333333 60.5 712.5 c 128
 78.8333333333 716.166666667 94.6666666667 718 108 718 c 0
 131.333333333 718 150.333333333 715.166666667 165 709.5 c 128
 179.666666667 703.833333333 192.666666667 690.333333333 204 669 c 1
 246.666666667 674.333333333 289.333333333 679.5 332 684.5 c 128
 374.666666667 689.5 417 694.333333333 459 699 c 1
 466.333333333 716.333333333 477.333333333 729.333333333 492 738 c 128
 506.666666667 746.666666667 522.666666667 752.5 540 755.5 c 128
 557.333333333 758.5 574.333333333 760 591 760 c 0
 598.333333333 760 605.666666667 759.333333333 613 758 c 128
 624 756 624 756 635 754 c 1
 631 746.666666667 628.333333333 738.833333333 627 730.5 c 128
 625.666666667 722.166666667 625 714 625 706 c 0
 625 691.333333333 625.833333333 679 627.5 669 c 128
 629.166666667 659 635.666666667 648.333333333 647 637 c 1
 633 631 617.166666667 625.5 599.5 620.5 c 128
 581.833333333 615.5 565.333333333 613 550 613 c 0
 529.333333333 613 511.666666667 616.166666667 497 622.5 c 128
 482.333333333 628.833333333 470.666666667 642.333333333 462 663 c 1
 452.666666667 661.666666667 443.333333333 660.5 434 659.5 c 128
 424.666666667 658.5 415.333333333 657.333333333 406 656 c 1
 399 534 l 1
 429.666666667 524.666666667 453 507.833333333 469 483.5 c 128
 485 459.166666667 493 431.666666667 493 401 c 0
 493 384.333333333 492.166666667 363.666666667 490.5 339 c 128
 488.833333333 314.333333333 486.5 288.333333333 483.5 261 c 128
 480.5 233.666666667 477.666666667 207.5 475 182.5 c 128
 472.333333333 157.5 470.166666667 135.666666667 468.5 117 c 128
 466.833333333 98.3333333333 466 85.3333333333 466 78 c 0
 466 66.6666666667 467.5 59.5 470.5 56.5 c 128
 473.5 53.5 481.333333333 52 494 52 c 0
 503.333333333 52 513 52.5 523 53.5 c 128
 533 54.5 542.666666667 55.6666666667 552 57 c 1
 558 71 568.333333333 82 583 90 c 128
 597.666666667 98 613.666666667 103.833333333 631 107.5 c 128
 648.333333333 111.166666667 663.666666667 113 677 113 c 0
 691.666666667 113 705 111.333333333 717 108 c 1
 713 98.6666666667 709.166666667 88.5 705.5 77.5 c 128
 701.833333333 66.5 700 56 700 46 c 0
 700 31.3333333333 702.166666667 18.5 706.5 7.5 c 128
 710.833333333 -3.5 717.666666667 -15 727 -27 c 1
EndSplineSet
EndChar
StartChar: uni123B
Encoding: 4667 4667 1057
Width: 646
GlyphClass: 2
Flags: W
AnchorPoint: "Ethiopic Mark" 334 733 basechar 0
LayerCount: 2
Fore
SplineSet
635 637 m 1
 623 631 607.833333333 625.5 589.5 620.5 c 128
 571.166666667 615.5 555.333333333 613 542 613 c 0
 521.333333333 613 503.666666667 616.166666667 489 622.5 c 128
 474.333333333 628.833333333 462.666666667 642.333333333 454 663 c 1
 444.666666667 661.666666667 435.333333333 660.5 426 659.5 c 128
 416.666666667 658.5 407.333333333 657.333333333 398 656 c 1
 391 534 l 1
 425.666666667 523.333333333 449.5 507 462.5 485 c 128
 475.5 463 482 434.666666667 482 400 c 0
 482 379.333333333 480.833333333 353.833333333 478.5 323.5 c 128
 476.166666667 293.166666667 473.666666667 262 471 230 c 128
 468.333333333 198 465.833333333 168.5 463.5 141.5 c 128
 461.166666667 114.5 460 94 460 80 c 0
 460 66 462.166666667 54.1666666667 466.5 44.5 c 128
 470.833333333 34.8333333333 480 28 494 24 c 1
 494 8 l 1
 473.333333333 6.66666666667 450.833333333 5.16666666667 426.5 3.5 c 128
 402.166666667 1.83333333333 383.666666667 1 371 1 c 0
 353 1 341.833333333 3.66666666667 337.5 9 c 128
 333.166666667 14.3333333333 331 25.3333333333 331 42 c 0
 331 57.3333333333 331.833333333 78.1666666667 333.5 104.5 c 128
 335.166666667 130.833333333 337.166666667 159.5 339.5 190.5 c 128
 343 237 343 237 346.5 283.5 c 128
 348.833333333 314.5 350.833333333 342.666666667 352.5 368 c 128
 354.166666667 393.333333333 355 413 355 427 c 0
 355 436.333333333 354 447.333333333 352 460 c 128
 350 472.666666667 346 483.666666667 340 493 c 128
 334 502.333333333 324.333333333 507 311 507 c 0
 293.666666667 507 278.5 499.833333333 265.5 485.5 c 128
 252.5 471.166666667 241.666666667 452.833333333 233 430.5 c 128
 224.333333333 408.166666667 217.833333333 384.5 213.5 359.5 c 128
 209.166666667 334.5 207 311 207 289 c 0
 207 259.666666667 209.833333333 237.666666667 215.5 223 c 128
 221.166666667 208.333333333 228.666666667 199.333333333 238 196 c 1
 238 183 l 1
 224.666666667 181 208.5 177.833333333 189.5 173.5 c 128
 170.5 169.166666667 154.333333333 167 141 167 c 0
 121.666666667 167 106.5 174.166666667 95.5 188.5 c 128
 84.5 202.833333333 79 229.666666667 79 269 c 0
 79 295 83.5 321.666666667 92.5 349 c 128
 101.5 376.333333333 114 402.333333333 130 427 c 128
 146 451.666666667 165 472.833333333 187 490.5 c 128
 209 508.166666667 233.333333333 520 260 526 c 1
 267 640 l 1
 257 639.333333333 247 638.333333333 237 637 c 128
 227 635.666666667 216.666666667 634.333333333 206 633 c 1
 200 613 189.333333333 597.166666667 174 585.5 c 128
 158.666666667 573.833333333 141.166666667 565.666666667 121.5 561 c 128
 101.833333333 556.333333333 82.6666666667 554 64 554 c 0
 56 554 47.6666666667 554.166666667 39 554.5 c 128
 30.3333333333 554.833333333 21.6666666667 555.666666667 13 557 c 1
 23 566.333333333 30.3333333333 577.166666667 35 589.5 c 128
 39.6666666667 601.833333333 42 614.666666667 42 628 c 0
 42 643.333333333 40.5 655.666666667 37.5 665 c 128
 34.5 674.333333333 27.3333333333 684.666666667 16 696 c 1
 27.3333333333 703.333333333 42.1666666667 708.833333333 60.5 712.5 c 128
 78.8333333333 716.166666667 94.6666666667 718 108 718 c 0
 131.333333333 718 150.333333333 715.166666667 165 709.5 c 128
 179.666666667 703.833333333 192.666666667 690.333333333 204 669 c 1
 245.333333333 674.333333333 286.5 679.666666667 327.5 685 c 128
 368.5 690.333333333 409.666666667 695 451 699 c 1
 458.333333333 716.333333333 469.333333333 729.333333333 484 738 c 128
 498.666666667 746.666666667 514.833333333 752.5 532.5 755.5 c 128
 550.166666667 758.5 567 760 583 760 c 0
 588.333333333 760 594.833333333 759.166666667 602.5 757.5 c 128
 610.166666667 755.833333333 616.666666667 754 622 752 c 1
 618 744.666666667 615.5 736.666666667 614.5 728 c 128
 613.5 719.333333333 613 711 613 703 c 0
 613 691 614.166666667 679 616.5 667 c 128
 618.833333333 655 625 645 635 637 c 1
EndSplineSet
EndChar
StartChar: uni123C
Encoding: 4668 4668 1058
Width: 726
GlyphClass: 2
Flags: W
AnchorPoint: "Ethiopic Mark" 338 736 basechar 0
LayerCount: 2
Fore
SplineSet
686 121 m 0
 686 95 679.333333333 74.6666666667 666 60 c 128
 652.666666667 45.3333333333 635.666666667 34.8333333333 615 28.5 c 128
 594.333333333 22.1666666667 573 19 551 19 c 2
 500 19 l 2
 492.666666667 19 485 18.3333333333 477 17 c 128
 469 15.6666666667 461.333333333 14.3333333333 454 13 c 0
 442 11 430.166666667 9.33333333333 418.5 8 c 128
 406.833333333 6.66666666667 395 6 383 6 c 0
 361.666666667 6 348.333333333 8.5 343 13.5 c 128
 337.666666667 18.5 335 27 335 39 c 0
 335 53 335.833333333 73.3333333333 337.5 100 c 128
 339.166666667 126.666666667 341.333333333 156.166666667 344 188.5 c 128
 346.666666667 220.833333333 349.166666667 253.166666667 351.5 285.5 c 128
 353.833333333 317.833333333 356 346.833333333 358 372.5 c 128
 360 398.166666667 361 417.333333333 361 430 c 0
 361 438 359.666666667 448 357 460 c 128
 354.333333333 472 350 482.833333333 344 492.5 c 128
 338 502.166666667 329.666666667 507 319 507 c 0
 296.333333333 507 277.333333333 496.833333333 262 476.5 c 128
 246.666666667 456.166666667 234.5 428.5 225.5 393.5 c 128
 216.5 358.5 210 319 206 275 c 128
 202 231 200 185.666666667 200 139 c 0
 200 113 201.333333333 93.1666666667 204 79.5 c 128
 206.666666667 65.8333333333 210.666666667 55.6666666667 216 49 c 128
 221.333333333 42.3333333333 228.333333333 36.3333333333 237 31 c 1
 237 18 l 1
 225.666666667 16 212.5 13.5 197.5 10.5 c 128
 182.5 7.5 168.333333333 5 155 3 c 128
 141.666666667 1 132.333333333 0 127 0 c 0
 121 0 115.166666667 0.666666666667 109.5 2 c 128
 103.833333333 3.33333333333 98.6666666667 6.66666666667 94 12 c 0
 90 16 86 22.8333333333 82 32.5 c 128
 78 42.1666666667 74.6666666667 57.5 72 78.5 c 128
 69.3333333333 99.5 68 128.333333333 68 165 c 0
 68 208.333333333 72.1666666667 253.5 80.5 300.5 c 128
 88.8333333333 347.5 106.333333333 389 133 425 c 0
 147.666666667 445 167.333333333 465.166666667 192 485.5 c 128
 216.666666667 505.833333333 240.666666667 519.333333333 264 526 c 1
 264 640 l 1
 254 639.333333333 244.333333333 638.333333333 235 637 c 128
 225.666666667 635.666666667 216 634.333333333 206 633 c 1
 200 613 189.333333333 597.166666667 174 585.5 c 128
 158.666666667 573.833333333 141.166666667 565.666666667 121.5 561 c 128
 101.833333333 556.333333333 82.6666666667 554 64 554 c 0
 56 554 47.6666666667 554.166666667 39 554.5 c 128
 30.3333333333 554.833333333 21.6666666667 555.666666667 13 557 c 1
 23 566.333333333 30.3333333333 577.166666667 35 589.5 c 128
 39.6666666667 601.833333333 42 614.666666667 42 628 c 0
 42 643.333333333 40.5 655.833333333 37.5 665.5 c 128
 34.5 675.166666667 27.3333333333 685.333333333 16 696 c 1
 27.3333333333 703.333333333 42.1666666667 708.833333333 60.5 712.5 c 128
 78.8333333333 716.166666667 94.6666666667 718 108 718 c 0
 131.333333333 718 150.333333333 715.166666667 165 709.5 c 128
 179.666666667 703.833333333 192.666666667 690.333333333 204 669 c 1
 246.666666667 674.333333333 289.333333333 679.5 332 684.5 c 128
 374.666666667 689.5 417 694.333333333 459 699 c 1
 466.333333333 716.333333333 477.333333333 729.333333333 492 738 c 128
 506.666666667 746.666666667 522.666666667 752.5 540 755.5 c 128
 557.333333333 758.5 574.333333333 760 591 760 c 0
 598.333333333 760 605.666666667 759.333333333 613 758 c 128
 624 756 624 756 635 754 c 1
 631 746.666666667 628.333333333 738.833333333 627 730.5 c 128
 625.666666667 722.166666667 625 714 625 706 c 0
 625 691.333333333 625.833333333 679 627.5 669 c 128
 629.166666667 659 635.666666667 648.333333333 647 637 c 1
 633 631 617.166666667 625.5 599.5 620.5 c 128
 581.833333333 615.5 565.333333333 613 550 613 c 0
 529.333333333 613 511.666666667 616.166666667 497 622.5 c 128
 482.333333333 628.833333333 470.666666667 642.333333333 462 663 c 1
 451.333333333 662.333333333 440.833333333 661.333333333 430.5 660 c 128
 420.166666667 658.666666667 409.666666667 657.333333333 399 656 c 1
 399 534 l 1
 435 523.333333333 459.666666667 507.666666667 473 487 c 128
 486.333333333 466.333333333 493 437.666666667 493 401 c 0
 493 375 491.166666667 342.666666667 487.5 304 c 128
 483.833333333 265.333333333 480.666666667 228.666666667 478 194 c 1
 494 195.333333333 512.333333333 197.666666667 533 201 c 128
 553.666666667 204.333333333 574 206 594 206 c 0
 622.666666667 206 645.166666667 199.5 661.5 186.5 c 128
 677.833333333 173.5 686 151.666666667 686 121 c 0
553 107 m 0
 553 121 550.833333333 134.333333333 546.5 147 c 128
 542.166666667 159.666666667 531.333333333 166 514 166 c 0
 508 166 502 165.5 496 164.5 c 128
 490 163.5 484 162 478 160 c 1
 476.666666667 147.333333333 475.5 134.5 474.5 121.5 c 128
 473.5 108.5 473 95.3333333333 473 82 c 0
 473 68 474 58.3333333333 476 53 c 128
 478 47.6666666667 486.666666667 45 502 45 c 0
 518.666666667 45 531.333333333 51.6666666667 540 65 c 128
 548.666666667 78.3333333333 553 92.3333333333 553 107 c 0
EndSplineSet
EndChar
StartChar: uni123D
Encoding: 4669 4669 1059
Width: 640
GlyphClass: 2
Flags: W
AnchorPoint: "Ethiopic Mark" 284 733 basechar 0
LayerCount: 2
Fore
SplineSet
617 618 m 1
 601 608.666666667 585.833333333 602.166666667 571.5 598.5 c 128
 557.166666667 594.833333333 540.666666667 593 522 593 c 0
 512 593 500.5 594.833333333 487.5 598.5 c 128
 474.5 602.166666667 462.833333333 607.5 452.5 614.5 c 128
 442.166666667 621.5 435 630.333333333 431 641 c 1
 421.666666667 640.333333333 412.333333333 639.5 403 638.5 c 128
 393.666666667 637.5 384.333333333 636.333333333 375 635 c 1
 463 518 l 1
 507 512 537.833333333 497.833333333 555.5 475.5 c 128
 573.166666667 453.166666667 582 420.666666667 582 378 c 0
 582 332 580.666666667 285.833333333 578 239.5 c 128
 575.333333333 193.166666667 574 147 574 101 c 0
 574 89 575.166666667 76.6666666667 577.5 64 c 128
 579.833333333 51.3333333333 588 43 602 39 c 1
 602 23 l 1
 508 8 l 2
 506 8 503.833333333 7.83333333333 501.5 7.5 c 128
 499.166666667 7.16666666667 496.666666667 7 494 7 c 0
 472.666666667 7 459.166666667 14.5 453.5 29.5 c 128
 447.833333333 44.5 445 60.6666666667 445 78 c 0
 445 91.3333333333 445.333333333 109.833333333 446 133.5 c 128
 446.666666667 157.166666667 447.833333333 183.666666667 449.5 213 c 128
 451.166666667 242.333333333 452.666666667 272 454 302 c 128
 455.333333333 332 456.333333333 359.5 457 384.5 c 128
 457.666666667 409.5 458 430 458 446 c 0
 458 472.666666667 445.333333333 486 420 486 c 0
 393.333333333 486 372.833333333 473.5 358.5 448.5 c 128
 344.166666667 423.5 334.166666667 389.833333333 328.5 347.5 c 128
 322.833333333 305.166666667 320 257.666666667 320 205 c 0
 320 154.333333333 320.333333333 116.833333333 321 92.5 c 128
 321.666666667 68.1666666667 323.166666667 52 325.5 44 c 128
 327.833333333 36 331.666666667 31 337 29 c 1
 337 16 l 1
 323.666666667 14 307.5 10.8333333333 288.5 6.5 c 128
 269.5 2.16666666667 253.333333333 0 240 -0 c 256
 226.666666667 0 216 5 208 15 c 0
 204 19.6666666667 200.5 28.6666666667 197.5 42 c 128
 194.5 55.3333333333 192.166666667 77.8333333333 190.5 109.5 c 128
 188.833333333 141.166666667 188 187.333333333 188 248 c 0
 188 276.666666667 190.666666667 305.666666667 196 335 c 128
 201.333333333 364.333333333 212.333333333 391 229 415 c 0
 242.333333333 433.666666667 257 449.333333333 273 462 c 128
 289 474.666666667 308 484.666666667 330 492 c 1
 234 614 l 1
 226 613.333333333 218.333333333 612 211 610 c 128
 203.666666667 608 196 606.666666667 188 606 c 1
 180 580.666666667 164 561.333333333 140 548 c 128
 116 534.666666667 91.3333333333 528 66 528 c 0
 58 528 48.6666666667 529.166666667 38 531.5 c 128
 27.3333333333 533.833333333 18.3333333333 537 11 541 c 1
 17.6666666667 547.666666667 22.3333333333 557.333333333 25 570 c 128
 27.6666666667 582.666666667 29 593.666666667 29 603 c 0
 29 628.333333333 23 652.666666667 11 676 c 1
 25 682 37.6666666667 686.5 49 689.5 c 128
 60.3333333333 692.5 73.6666666667 694 89 694 c 0
 112.333333333 694 131.166666667 690.333333333 145.5 683 c 128
 159.833333333 675.666666667 172.333333333 661.333333333 183 640 c 1
 223.666666667 646 264.5 652 305.5 658 c 128
 346.5 664 387.333333333 669 428 673 c 1
 432 695 441 711.5 455 722.5 c 128
 469 733.5 485.666666667 740.666666667 505 744 c 128
 524.333333333 747.333333333 543.333333333 749 562 749 c 0
 568 749 574.166666667 748.833333333 580.5 748.5 c 128
 586.833333333 748.166666667 593 747.666666667 599 747 c 1
 595 737 591.666666667 726.5 589 715.5 c 128
 586.333333333 704.5 585 693.333333333 585 682 c 0
 585 668 587 655.666666667 591 645 c 128
 595 634.333333333 603.666666667 625.333333333 617 618 c 1
EndSplineSet
EndChar
StartChar: uni123F
Encoding: 4671 4671 1061
Width: 738
GlyphClass: 2
Flags: W
AnchorPoint: "Ethiopic Mark" 310 723 basechar 0
LayerCount: 2
Fore
SplineSet
705 -63 m 1
 699.666666667 -67 691.833333333 -69.8333333333 681.5 -71.5 c 128
 671.166666667 -73.1666666667 662.666666667 -74 656 -74 c 0
 638.666666667 -74 620.666666667 -70.3333333333 602 -63 c 128
 583.333333333 -55.6666666667 567.5 -45.1666666667 554.5 -31.5 c 128
 541.5 -17.8333333333 534.333333333 -1.33333333333 533 18 c 1
 253 6 l 1
 255.666666667 -16 250.333333333 -36 237 -54 c 128
 223.666666667 -72 206.333333333 -86.5 185 -97.5 c 128
 163.666666667 -108.5 143.333333333 -114 124 -114 c 0
 118 -114 111.333333333 -112.833333333 104 -110.5 c 128
 96.6666666667 -108.166666667 90.3333333333 -105.666666667 85 -103 c 1
 93.6666666667 -91 100.666666667 -77 106 -61 c 128
 111.333333333 -45 114 -29.6666666667 114 -15 c 0
 114 -7 113.666666667 1 113 9 c 128
 112 21 112 21 111 33 c 1
 328 44 l 1
 330.666666667 85.3333333333 333.666666667 126.5 337 167.5 c 128
 340.333333333 208.5 343.333333333 249.333333333 346 290 c 0
 347.333333333 311.333333333 349 334.5 351 359.5 c 128
 353 384.5 354 403.333333333 354 416 c 0
 354 450.666666667 351.333333333 473.333333333 346 484 c 128
 340.666666667 494.666666667 327 500 305 500 c 0
 295.666666667 500 286.333333333 499 277 497 c 128
 267.666666667 495 259.666666667 490.333333333 253 483 c 0
 249 479 244.833333333 472.833333333 240.5 464.5 c 128
 236.166666667 456.166666667 232.333333333 443 229 425 c 128
 225.666666667 407 223 382 221 350 c 128
 219 318 218 276 218 224 c 0
 218 200 219.5 182.833333333 222.5 172.5 c 128
 225.5 162.166666667 230 155.333333333 236 152 c 1
 236 141 l 1
 136 125 l 2
 131.333333333 124.333333333 127.666666667 124 125 124 c 0
 108.333333333 124 98.6666666667 132.166666667 96 148.5 c 128
 93.3333333333 164.833333333 92 193 92 233 c 0
 92 294.333333333 95.1666666667 345.833333333 101.5 387.5 c 128
 107.833333333 429.166666667 121.5 461.333333333 142.5 484 c 128
 163.5 506.666666667 195.666666667 520.333333333 239 525 c 1
 242 603 l 1
 160 598 l 1
 156.666666667 582.666666667 149.166666667 570.833333333 137.5 562.5 c 128
 125.833333333 554.166666667 112.666666667 548.5 98 545.5 c 128
 83.3333333333 542.5 69.3333333333 541 56 541 c 0
 41.3333333333 541 27 542 13 544 c 1
 19.6666666667 554 25.3333333333 565.666666667 30 579 c 128
 34.6666666667 592.333333333 37 604.666666667 37 616 c 0
 37 627.333333333 34.1666666667 640.5 28.5 655.5 c 128
 22.8333333333 670.5 17 683 11 693 c 1
 26.3333333333 698.333333333 42.3333333333 701 59 701 c 0
 80.3333333333 701 101.333333333 695.333333333 122 684 c 128
 142.666666667 672.666666667 155.333333333 655.666666667 160 633 c 1
 440 654 l 1
 442 671.333333333 448.666666667 685.833333333 460 697.5 c 128
 471.333333333 709.166666667 485 718 501 724 c 128
 517 730 533 733 549 733 c 0
 563 733 576 731 588 727 c 1
 581.333333333 717.666666667 576.5 705.666666667 573.5 691 c 128
 570.5 676.333333333 569 663.333333333 569 652 c 0
 569 638.666666667 572.333333333 625 579 611 c 128
 585.666666667 597 594.333333333 586.333333333 605 579 c 1
 596.333333333 572.333333333 586.833333333 567.5 576.5 564.5 c 128
 566.166666667 561.5 555.333333333 560 544 560 c 0
 531.333333333 560 517.5 561.666666667 502.5 565 c 128
 487.5 568.333333333 474 574.333333333 462 583 c 128
 450 591.666666667 442.666666667 603 440 617 c 1
 368 610 l 1
 364 528 l 1
 367 528 367 528 369.5 528 c 128
 372 528 372 528 375 528 c 0
 408.333333333 528 435.666666667 519 457 501 c 128
 478.333333333 483 489 457 489 423 c 0
 489 413 488.333333333 397.5 487 376.5 c 128
 485.666666667 355.5 484.166666667 333.833333333 482.5 311.5 c 128
 480.833333333 289.166666667 479.666666667 270.666666667 479 256 c 0
 477.666666667 230 476.166666667 206.333333333 474.5 185 c 128
 472 153 472 153 469.5 121 c 128
 467.833333333 99.6666666667 466 76 464 50 c 1
 686 61 l 1
 684 46.3333333333 683 30.6666666667 683 14 c 0
 683 -14.6666666667 690.333333333 -40.3333333333 705 -63 c 1
EndSplineSet
EndChar
StartChar: uni1240
Encoding: 4672 4672 1062
Width: 660
GlyphClass: 2
Flags: W
AnchorPoint: "Ethiopic Mark" 367 676 basechar 0
LayerCount: 2
Fore
SplineSet
633 402 m 0
 633 374 625.833333333 350.833333333 611.5 332.5 c 128
 597.166666667 314.166666667 578.166666667 299.5 554.5 288.5 c 128
 530.833333333 277.5 504 269 474 263 c 128
 444 257 413.333333333 252.666666667 382 250 c 1
 358 114 l 2
 356.666666667 107.333333333 355.833333333 100.5 355.5 93.5 c 128
 355.166666667 86.5 355 80 355 74 c 0
 355 59.3333333333 357 48.8333333333 361 42.5 c 128
 365 36.1666666667 371.333333333 32 380 30 c 1
 380 15 l 1
 291 3 l 2
 285.666666667 2.33333333333 280.166666667 1.66666666667 274.5 1 c 128
 268.833333333 0.333333333333 263.333333333 0 258 0 c 0
 240 0 228.166666667 4 222.5 12 c 128
 216.833333333 20 214 33 214 51 c 0
 214 58.3333333333 214.666666667 66.3333333333 216 75 c 128
 217.333333333 83.6666666667 218.666666667 91.6666666667 220 99 c 2
 245 238 l 1
 228.333333333 236 209.833333333 234 189.5 232 c 128
 169.166666667 230 153 229 141 229 c 0
 121.666666667 229 103.666666667 231.333333333 87 236 c 128
 70.3333333333 240.666666667 57 249.166666667 47 261.5 c 128
 37 273.833333333 32 291.333333333 32 314 c 0
 32 348 40.1666666667 375.666666667 56.5 397 c 128
 72.8333333333 418.333333333 93.8333333333 434.833333333 119.5 446.5 c 128
 145.166666667 458.166666667 172.833333333 466.5 202.5 471.5 c 128
 232.166666667 476.5 260.333333333 479.666666667 287 481 c 1
 290.333333333 498.333333333 293.5 517.5 296.5 538.5 c 128
 299.5 559.5 301 575.333333333 301 586 c 0
 301 598 298.5 608.333333333 293.5 617 c 128
 288.5 625.666666667 280 631.666666667 268 635 c 1
 268 646 l 1
 353 656 l 2
 359.666666667 656.666666667 366.833333333 657.5 374.5 658.5 c 128
 382.166666667 659.5 388.666666667 660 394 660 c 0
 411.333333333 660 423.333333333 655.833333333 430 647.5 c 128
 436.666666667 639.166666667 440 627 440 611 c 0
 440 597.666666667 438.166666667 579.333333333 434.5 556 c 128
 430.833333333 532.666666667 427.333333333 511.666666667 424 493 c 1
 458.666666667 497.666666667 492 500 524 500 c 0
 555.333333333 500 581.333333333 492.166666667 602 476.5 c 128
 622.666666667 460.833333333 633 436 633 402 c 0
280 442 m 1
 246 442 219.666666667 434.333333333 201 419 c 128
 182.333333333 403.666666667 173 378.333333333 173 343 c 0
 173 323.666666667 176.833333333 307.333333333 184.5 294 c 128
 192.166666667 280.666666667 207 274 229 274 c 0
 237 274 244.333333333 274.666666667 251 276 c 1
 280 442 l 1
488 387 m 0
 488 402.333333333 484.333333333 417.5 477 432.5 c 128
 469.666666667 447.5 456.666666667 455 438 455 c 2
 418 455 l 1
 389 287 l 1
 393.666666667 286.333333333 397 286 399 286 c 0
 416.333333333 286 431.666666667 291 445 301 c 128
 458.333333333 311 468.833333333 323.833333333 476.5 339.5 c 128
 484.166666667 355.166666667 488 371 488 387 c 0
EndSplineSet
EndChar
StartChar: uni1242
Encoding: 4674 4674 1064
Width: 659
GlyphClass: 2
Flags: W
AnchorPoint: "Ethiopic Mark" 364 674 basechar 0
LayerCount: 2
Fore
SplineSet
633 402 m 0
 633 368.666666667 622.833333333 341.833333333 602.5 321.5 c 128
 582.166666667 301.166666667 553.333333333 285.5 516 274.5 c 128
 478.666666667 263.5 434 255.333333333 382 250 c 1
 359 114 l 2
 358.333333333 105.333333333 358.333333333 95.8333333333 359 85.5 c 128
 359.666666667 75.1666666667 362.5 66.1666666667 367.5 58.5 c 128
 372.5 50.8333333333 380.666666667 47 392 47 c 0
 400.666666667 47 409.166666667 47.3333333333 417.5 48 c 128
 425.833333333 48.6666666667 434 49.3333333333 442 50 c 1
 448.666666667 65.3333333333 459 77.5 473 86.5 c 128
 487 95.5 502.5 101.666666667 519.5 105 c 128
 536.5 108.333333333 552.666666667 110 568 110 c 0
 574 110 580.5 109.5 587.5 108.5 c 128
 594.5 107.5 600.666666667 106 606 104 c 1
 598.666666667 98 593.166666667 89.8333333333 589.5 79.5 c 128
 585.833333333 69.1666666667 584 59.6666666667 584 51 c 0
 584 37 587 22 593 6 c 128
 599 -10 608 -21.6666666667 620 -29 c 1
 605.333333333 -39 590.833333333 -46.1666666667 576.5 -50.5 c 128
 562.166666667 -54.8333333333 546 -57 528 -57 c 0
 504.666666667 -57 485.166666667 -50.6666666667 469.5 -38 c 128
 453.833333333 -25.3333333333 445 -7 443 17 c 1
 296 3 l 2
 290 2.33333333333 283.833333333 1.66666666667 277.5 1 c 128
 271.166666667 0.333333333333 264.666666667 0 258 0 c 0
 240 0 228.166666667 4 222.5 12 c 128
 216.833333333 20 214 33 214 51 c 0
 214 56.3333333333 214.5 63.3333333333 215.5 72 c 128
 216.5 80.6666666667 217.666666667 88.6666666667 219 96 c 2
 245 238 l 1
 228.333333333 236 211.166666667 234 193.5 232 c 128
 175.833333333 230 158.333333333 229 141 229 c 0
 121.666666667 229 103.666666667 231.333333333 87 236 c 128
 70.3333333333 240.666666667 57 249.166666667 47 261.5 c 128
 37 273.833333333 32 291.333333333 32 314 c 0
 32 348 40.1666666667 375.666666667 56.5 397 c 128
 72.8333333333 418.333333333 93.8333333333 434.833333333 119.5 446.5 c 128
 145.166666667 458.166666667 172.833333333 466.5 202.5 471.5 c 128
 232.166666667 476.5 260.333333333 479.666666667 287 481 c 1
 290.333333333 498.333333333 293.5 517.833333333 296.5 539.5 c 128
 299.5 561.166666667 301 576.666666667 301 586 c 0
 301 598 298.5 608.333333333 293.5 617 c 128
 288.5 625.666666667 280 631.666666667 268 635 c 1
 268 646 l 1
 351 657 l 2
 357.666666667 657.666666667 364.666666667 658.333333333 372 659 c 128
 379.333333333 659.666666667 386.666666667 660 394 660 c 0
 411.333333333 660 423.333333333 655.833333333 430 647.5 c 128
 436.666666667 639.166666667 440 627 440 611 c 0
 440 599.666666667 438.333333333 583 435 561 c 128
 431.666666667 539 428 516.333333333 424 493 c 1
 458.666666667 497.666666667 492 500 524 500 c 0
 555.333333333 500 581.333333333 492.166666667 602 476.5 c 128
 622.666666667 460.833333333 633 436 633 402 c 0
280 442 m 1
 246 442 219.666666667 434.333333333 201 419 c 128
 182.333333333 403.666666667 173 378.333333333 173 343 c 0
 173 323.666666667 176.833333333 307.333333333 184.5 294 c 128
 192.166666667 280.666666667 207 274 229 274 c 0
 237 274 244.333333333 274.666666667 251 276 c 1
 280 442 l 1
488 387 m 0
 488 402.333333333 484.333333333 417.5 477 432.5 c 128
 469.666666667 447.5 456.666666667 455 438 455 c 2
 418 455 l 1
 389 287 l 1
 393.666666667 286.333333333 397 286 399 286 c 0
 416.333333333 286 431.666666667 291 445 301 c 128
 458.333333333 311 468.833333333 323.833333333 476.5 339.5 c 128
 484.166666667 355.166666667 488 371 488 387 c 0
EndSplineSet
EndChar
StartChar: uni1243
Encoding: 4675 4675 1065
Width: 792
GlyphClass: 2
Flags: W
AnchorPoint: "Ethiopic Mark" 470 654 basechar 0
LayerCount: 2
Fore
SplineSet
766 410 m 0
 766 382.666666667 758.666666667 360.333333333 744 343 c 128
 729.333333333 325.666666667 710.333333333 312.166666667 687 302.5 c 128
 663.666666667 292.833333333 639.5 286 614.5 282 c 128
 589.5 278 566.333333333 275.333333333 545 274 c 1
 543 237.333333333 534.833333333 208.333333333 520.5 187 c 128
 506.166666667 165.666666667 486.666666667 149.333333333 462 138 c 128
 437.333333333 126.666666667 408.666666667 116.666666667 376 108 c 0
 350 102 323.833333333 96.8333333333 297.5 92.5 c 128
 271.166666667 88.1666666667 245 84 219 80 c 1
 218.333333333 58 213 37.1666666667 203 17.5 c 128
 193 -2.16666666667 179.333333333 -18 162 -30 c 128
 144.666666667 -42 124 -48 100 -48 c 0
 90.6666666667 -48 80.6666666667 -46.3333333333 70 -43 c 128
 59.3333333333 -39.6666666667 50 -35.6666666667 42 -31 c 1
 50.6666666667 -29.6666666667 57.1666666667 -23.1666666667 61.5 -11.5 c 128
 65.8333333333 0.166666666667 68.6666666667 12.5 70 25.5 c 128
 71.3333333333 38.5 72 48 72 54 c 0
 72 69.3333333333 69.6666666667 84 65 98 c 1
 92.3333333333 100.666666667 119.333333333 103.333333333 146 106 c 128
 172.666666667 108.666666667 199 112 225 116 c 0
 240.333333333 118.666666667 255.833333333 121.5 271.5 124.5 c 128
 287.166666667 127.5 302.333333333 131.333333333 317 136 c 0
 351.666666667 147.333333333 376.333333333 162.5 391 181.5 c 128
 405.666666667 200.5 413 228 413 264 c 1
 393 262 370.833333333 259.666666667 346.5 257 c 128
 322.166666667 254.333333333 303.666666667 253 291 253 c 0
 262.333333333 253 236.666666667 260 214 274 c 128
 191.333333333 288 180 311 180 343 c 0
 180 370.333333333 188.166666667 392.333333333 204.5 409 c 128
 220.833333333 425.666666667 241.5 438.5 266.5 447.5 c 128
 291.5 456.5 317.166666667 463.166666667 343.5 467.5 c 128
 369.833333333 471.833333333 393 475 413 477 c 1
 413 553 l 2
 413 573.666666667 411.833333333 587.833333333 409.5 595.5 c 128
 407.166666667 603.166666667 401.666666667 607.666666667 393 609 c 1
 393 625 l 1
 403.666666667 627 414.166666667 629.333333333 424.5 632 c 128
 434.833333333 634.666666667 444.666666667 637 454 639 c 0
 461.333333333 640.333333333 468.666666667 641.833333333 476 643.5 c 128
 483.333333333 645.166666667 490.333333333 646 497 646 c 0
 519 646 532.833333333 638.833333333 538.5 624.5 c 128
 544.166666667 610.166666667 547 593.666666667 547 575 c 0
 547 554 547 554 547 533.5 c 128
 547 513 547 513 547 492 c 1
 564.333333333 495.333333333 582.333333333 497.833333333 601 499.5 c 128
 619.666666667 501.166666667 638 502 656 502 c 0
 684 502 709.333333333 494.333333333 732 479 c 128
 754.666666667 463.666666667 766 440.666666667 766 410 c 0
633 400 m 0
 633 416 627.5 430 616.5 442 c 128
 605.5 454 591.666666667 460 575 460 c 0
 568 460 568 460 560.5 460 c 128
 555.5 460 550.666666667 459.666666667 546 459 c 1
 546 311 l 1
 550 310.333333333 553 310 555 310 c 0
 582.333333333 310 602.166666667 318.833333333 614.5 336.5 c 128
 626.833333333 354.166666667 633 375.333333333 633 400 c 0
413 299 m 1
 413 440 l 1
 385 438.666666667 361.333333333 432.166666667 342 420.5 c 128
 322.666666667 408.833333333 313 387 313 355 c 0
 313 335.666666667 317.833333333 320.333333333 327.5 309 c 128
 337.166666667 297.666666667 352 292 372 292 c 0
 385.333333333 292.666666667 399 295 413 299 c 1
EndSplineSet
EndChar
StartChar: uni1245
Encoding: 4677 4677 1067
Width: 660
GlyphClass: 2
Flags: W
AnchorPoint: "Ethiopic Mark" 367 771 basechar 0
LayerCount: 2
Fore
SplineSet
633 402 m 0
 633 368 622.166666667 340.5 600.5 319.5 c 128
 578.833333333 298.5 549.166666667 282.666666667 511.5 272 c 128
 473.833333333 261.333333333 431 254 383 250 c 1
 359 114 l 2
 356.333333333 100 355 86.6666666667 355 74 c 0
 355 58.6666666667 356.833333333 48.3333333333 360.5 43 c 128
 364.166666667 37.6666666667 370.666666667 33.3333333333 380 30 c 1
 380 15 l 1
 292 3 l 2
 286.666666667 2.33333333333 281 1.66666666667 275 1 c 128
 269 0.333333333333 263.333333333 0 258 0 c 0
 240 0 228.166666667 4 222.5 12 c 128
 216.833333333 20 214 33 214 51 c 0
 214 57 214.5 64.1666666667 215.5 72.5 c 128
 216.5 80.8333333333 217.666666667 88.6666666667 219 96 c 2
 245 238 l 1
 228.333333333 236 210 234 190 232 c 128
 170 230 153.666666667 229 141 229 c 0
 121.666666667 229 103.666666667 231.333333333 87 236 c 128
 70.3333333333 240.666666667 57 249.166666667 47 261.5 c 128
 37 273.833333333 32 291.333333333 32 314 c 0
 32 348 40.1666666667 375.666666667 56.5 397 c 128
 72.8333333333 418.333333333 93.8333333333 434.833333333 119.5 446.5 c 128
 145.166666667 458.166666667 172.833333333 466.5 202.5 471.5 c 128
 232.166666667 476.5 260.333333333 479.666666667 287 481 c 1
 287.666666667 486.333333333 289 495.333333333 291 508 c 128
 293 520.666666667 295 532.833333333 297 544.5 c 128
 299 556.166666667 300 563.666666667 300 567 c 0
 300 586.333333333 295.166666667 600.333333333 285.5 609 c 128
 275.833333333 617.666666667 262.666666667 625.333333333 246 632 c 1
 236.666666667 626.666666667 226.666666667 623 216 621 c 128
 205.333333333 619 194.666666667 618 184 618 c 0
 160.666666667 618 138 621.333333333 116 628 c 1
 125.333333333 633.333333333 131.5 642.166666667 134.5 654.5 c 128
 137.5 666.833333333 139 678 139 688 c 0
 139 697.333333333 137.5 708.333333333 134.5 721 c 128
 131.5 733.666666667 126 743 118 749 c 1
 130 755 142.333333333 759.333333333 155 762 c 128
 167.666666667 764.666666667 180.666666667 766 194 766 c 0
 208 766 222.666666667 764.333333333 238 761 c 128
 253.333333333 757.666666667 266.333333333 751.5 277 742.5 c 128
 287.666666667 733.5 293 720 293 702 c 0
 293 686.666666667 288 672 278 658 c 1
 406 645 l 2
 430.666666667 642.333333333 443 628.333333333 443 603 c 0
 443 595.666666667 442 585.333333333 440 572 c 128
 438 558.666666667 435.666666667 544.833333333 433 530.5 c 128
 430.333333333 516.166666667 428 503.666666667 426 493 c 1
 442 495 458.333333333 496.666666667 475 498 c 128
 491.666666667 499.333333333 508 500 524 500 c 0
 555.333333333 500 581.333333333 492.166666667 602 476.5 c 128
 622.666666667 460.833333333 633 436 633 402 c 0
280 442 m 1
 246 442 219.666666667 434.333333333 201 419 c 128
 182.333333333 403.666666667 173 378.333333333 173 343 c 0
 173 323.666666667 176.833333333 307.333333333 184.5 294 c 128
 192.166666667 280.666666667 207 274 229 274 c 0
 237 274 244.333333333 274.666666667 251 276 c 1
 280 442 l 1
488 387 m 0
 488 402.333333333 484.333333333 417.5 477 432.5 c 128
 469.666666667 447.5 456.666666667 455 438 455 c 2
 419 455 l 1
 390 287 l 1
 394 286.333333333 397 286 399 286 c 0
 416.333333333 286 431.666666667 291 445 301 c 128
 458.333333333 311 468.833333333 323.833333333 476.5 339.5 c 128
 484.166666667 355.166666667 488 371 488 387 c 0
EndSplineSet
EndChar
StartChar: uni1247
Encoding: 4679 4679 1069
Width: 652
GlyphClass: 2
Flags: W
AnchorPoint: "Ethiopic Mark" 393 696 basechar 0
LayerCount: 2
Fore
SplineSet
626 332 m 0
 626 303.333333333 618.333333333 279.5 603 260.5 c 128
 587.666666667 241.5 567.833333333 226.666666667 543.5 216 c 128
 519.166666667 205.333333333 493.666666667 197.833333333 467 193.5 c 128
 440.333333333 189.166666667 415.666666667 186.333333333 393 185 c 1
 391.666666667 169 389.833333333 150.833333333 387.5 130.5 c 128
 385.166666667 110.166666667 384 95.3333333333 384 86 c 0
 384 66.6666666667 386.166666667 54 390.5 48 c 128
 394.833333333 42 401.666666667 38 411 36 c 1
 411 20 l 1
 185 -16 l 1
 185 -38 178.5 -59.5 165.5 -80.5 c 128
 152.5 -101.5 135.666666667 -118.833333333 115 -132.5 c 128
 94.3333333333 -146.166666667 73 -153 51 -153 c 0
 45 -153 37.6666666667 -152.5 29 -151.5 c 128
 20.3333333333 -150.5 13 -148.333333333 7 -145 c 1
 14.3333333333 -132.333333333 20.8333333333 -117.166666667 26.5 -99.5 c 128
 32.1666666667 -81.8333333333 35 -66 35 -52 c 0
 35 -45.3333333333 34.5 -37.8333333333 33.5 -29.5 c 128
 32.5 -21.1666666667 30.6666666667 -14 28 -8 c 1
 249 27 l 1
 247.666666667 31.6666666667 246.666666667 36.5 246 41.5 c 128
 245.333333333 46.5 245 51.3333333333 245 56 c 0
 245 61.3333333333 245.5 68.3333333333 246.5 77 c 128
 247.5 85.6666666667 248.333333333 93.6666666667 249 101 c 2
 257 166 l 1
 237 162 216.5 158.333333333 195.5 155 c 128
 174.5 151.666666667 153.666666667 150 133 150 c 0
 71 150 40 180 40 240 c 0
 40 266 48.1666666667 288 64.5 306 c 128
 80.8333333333 324 101.5 339 126.5 351 c 128
 151.5 363 177 372.666666667 203 380 c 128
 229 387.333333333 251.666666667 393 271 397 c 1
 265.666666667 409 258.5 422.666666667 249.5 438 c 128
 240.5 453.333333333 232.5 468.833333333 225.5 484.5 c 128
 218.5 500.166666667 215 514.333333333 215 527 c 0
 215 550.333333333 221.333333333 570.666666667 234 588 c 128
 246.666666667 605.333333333 263 619.833333333 283 631.5 c 128
 303 643.166666667 324.666666667 651.833333333 348 657.5 c 128
 371.333333333 663.166666667 393.333333333 666 414 666 c 0
 434 666 453.166666667 663.333333333 471.5 658 c 128
 489.833333333 652.666666667 504.666666667 643.5 516 630.5 c 128
 527.333333333 617.5 533 599.333333333 533 576 c 0
 533 545.333333333 523.166666667 519.833333333 503.5 499.5 c 128
 483.833333333 479.166666667 454.666666667 458 416 436 c 1
 414 409 l 1
 431.333333333 412.333333333 448.666666667 415.333333333 466 418 c 128
 483.333333333 420.666666667 500.666666667 422 518 422 c 0
 546 422 571 414.666666667 593 400 c 128
 615 385.333333333 626 362.666666667 626 332 c 0
261 205 m 1
 263.666666667 231.666666667 266.5 258 269.5 284 c 128
 272.5 310 275 336.333333333 277 363 c 1
 247.666666667 355 224.166666667 344.666666667 206.5 332 c 128
 188.833333333 319.333333333 180 296.333333333 180 263 c 0
 180 240.333333333 186 225 198 217 c 128
 210 209 226.666666667 205 248 205 c 0
 251 205 251 205 254.5 205 c 128
 258 205 258 205 261 205 c 1
488 308 m 0
 488 323.333333333 483.333333333 338.333333333 474 353 c 128
 464.666666667 367.666666667 451.333333333 375 434 375 c 0
 428 375 428 375 422.5 375 c 128
 418.833333333 375 415 374.333333333 411 373 c 1
 409.666666667 347.666666667 407.666666667 322.333333333 405 297 c 128
 401 259 401 259 397 221 c 1
 401.666666667 220.333333333 406.333333333 220 411 220 c 0
 439.666666667 220 459.666666667 228.166666667 471 244.5 c 128
 482.333333333 260.833333333 488 282 488 308 c 0
415 568 m 0
 415 576.666666667 414.333333333 586 413 596 c 128
 411.666666667 606 408.333333333 614.666666667 403 622 c 128
 397.666666667 629.333333333 389.333333333 633 378 633 c 0
 362 633 350.5 625.833333333 343.5 611.5 c 128
 336.5 597.166666667 333 583.333333333 333 570 c 0
 333 556 337.333333333 539.666666667 346 521 c 128
 354.666666667 502.333333333 364.666666667 484 376 466 c 1
 387.333333333 480.666666667 396.666666667 496.666666667 404 514 c 128
 411.333333333 531.333333333 415 549.333333333 415 568 c 0
EndSplineSet
EndChar
StartChar: uni1248
Encoding: 4680 4680 1070
Width: 720
GlyphClass: 2
Flags: W
AnchorPoint: "Ethiopic Mark" 334 697 basechar 0
LayerCount: 2
Fore
SplineSet
682 144 m 0
 682 116 674.166666667 92.8333333333 658.5 74.5 c 128
 642.833333333 56.1666666667 620.666666667 47 592 47 c 0
 580 47 568.166666667 49.1666666667 556.5 53.5 c 128
 544.833333333 57.8333333333 532.666666667 60 520 60 c 0
 507.333333333 60 495.333333333 57.1666666667 484 51.5 c 128
 472.666666667 45.8333333333 462 40.3333333333 452 35 c 128
 442 29.6666666667 432 27 422 27 c 0
 402 27 388.833333333 35 382.5 51 c 128
 376.166666667 67 373 83 373 99 c 0
 373 108.333333333 374.333333333 120.166666667 377 134.5 c 128
 379.666666667 148.833333333 383.666666667 159.666666667 389 167 c 1
 343 152 l 1
 341.666666667 139.333333333 340.166666667 126.666666667 338.5 114 c 128
 336.833333333 101.333333333 336 88.6666666667 336 76 c 0
 336 67.3333333333 336.833333333 59 338.5 51 c 128
 340.166666667 43 344.666666667 36 352 30 c 1
 352 15 l 1
 272 3 l 2
 266.666666667 2.33333333333 260.666666667 1.66666666667 254 1 c 128
 247.333333333 0.333333333333 241.333333333 0 236 0 c 0
 219.333333333 0 207.833333333 4.5 201.5 13.5 c 128
 195.166666667 22.5 192 35 192 51 c 0
 192 61 192.5 70.8333333333 193.5 80.5 c 128
 194.5 90.1666666667 195.666666667 99.6666666667 197 109 c 2
 217 260 l 1
 203 258 187 255.166666667 169 251.5 c 128
 151 247.833333333 137 246 127 246 c 0
 95.6666666667 246 72.5 255.666666667 57.5 275 c 128
 42.5 294.333333333 35 318.666666667 35 348 c 0
 35 392.666666667 45 427.5 65 452.5 c 128
 85 477.5 111.333333333 495.666666667 144 507 c 128
 176.666666667 518.333333333 212.666666667 525.666666667 252 529 c 1
 253.333333333 540.333333333 254.833333333 552 256.5 564 c 128
 258.166666667 576 259 585.333333333 259 592 c 0
 259 602.666666667 256.333333333 613.666666667 251 625 c 128
 245.666666667 636.333333333 237.666666667 644.333333333 227 649 c 1
 227 664 l 1
 314 675 l 2
 320.666666667 675.666666667 327.833333333 676.5 335.5 677.5 c 128
 343.166666667 678.5 350.333333333 679 357 679 c 0
 373 679 384.833333333 676 392.5 670 c 128
 400.166666667 664 404 652.666666667 404 636 c 0
 404 626 402.666666667 611.333333333 400 592 c 128
 397.333333333 572.666666667 394.666666667 555 392 539 c 1
 422 543 452.666666667 545 484 545 c 0
 516 545 540 535.166666667 556 515.5 c 128
 572 495.833333333 580 470.666666667 580 440 c 0
 580 410 573.5 384.166666667 560.5 362.5 c 128
 547.5 340.833333333 530.166666667 323.333333333 508.5 310 c 128
 486.833333333 296.666666667 462.833333333 286.666666667 436.5 280 c 128
 410.166666667 273.333333333 384 269.333333333 358 268 c 1
 348 190 l 1
 359.333333333 194 370.833333333 197.833333333 382.5 201.5 c 128
 394.166666667 205.166666667 405.666666667 209 417 213 c 1
 428.333333333 222.333333333 441.833333333 229 457.5 233 c 128
 473.166666667 237 488.333333333 239 503 239 c 0
 509 239 515.166666667 238.5 521.5 237.5 c 128
 527.833333333 236.5 534 236 540 236 c 0
 548.666666667 236 557.333333333 236.5 566 237.5 c 128
 574.666666667 238.5 583.333333333 239 592 239 c 0
 620 239 642 230 658 212 c 128
 674 194 682 171.333333333 682 144 c 0
446 436 m 0
 446 444.666666667 444.5 454.166666667 441.5 464.5 c 128
 438.5 474.833333333 433.666666667 483.833333333 427 491.5 c 128
 420.333333333 499.166666667 411.666666667 503 401 503 c 0
 395.666666667 503 391.333333333 502.666666667 388 502 c 1
 363 307 l 1
 365.666666667 305.666666667 368.666666667 305 372 305 c 0
 374.666666667 305 377.833333333 305.666666667 381.5 307 c 128
 385.166666667 308.333333333 388 309.666666667 390 311 c 0
 402.666666667 317.666666667 413 328.333333333 421 343 c 128
 429 357.666666667 435.166666667 373.5 439.5 390.5 c 128
 443.833333333 407.5 446 422.666666667 446 436 c 0
560 158 m 0
 560 166 558.333333333 175.333333333 555 186 c 128
 551.666666667 196.666666667 544.666666667 202 534 202 c 0
 521.333333333 202 512.166666667 198.166666667 506.5 190.5 c 128
 500.833333333 182.833333333 497.166666667 173.5 495.5 162.5 c 128
 493.833333333 151.5 493 141.333333333 493 132 c 0
 493 120.666666667 495.333333333 110.166666667 500 100.5 c 128
 504.666666667 90.8333333333 513.666666667 86 527 86 c 0
 536.333333333 86 543.333333333 90.8333333333 548 100.5 c 128
 552.666666667 110.166666667 555.833333333 120.666666667 557.5 132 c 128
 559.166666667 143.333333333 560 152 560 158 c 0
247 491 m 1
 215.666666667 487 193 472.833333333 179 448.5 c 128
 165 424.166666667 158 397.333333333 158 368 c 0
 158 348 162 331.5 170 318.5 c 128
 178 305.5 193 299 215 299 c 2
 222 299 l 1
 247 491 l 1
EndSplineSet
EndChar
StartChar: uni124A
Encoding: 4682 4682 1071
Width: 1046
GlyphClass: 2
Flags: W
AnchorPoint: "Ethiopic Mark" 370 707 basechar 0
LayerCount: 2
Fore
SplineSet
1022 223 m 1
 1014 221 1005.5 219.166666667 996.5 217.5 c 128
 987.5 215.833333333 978.666666667 215 970 215 c 0
 950 215 931.166666667 218.666666667 913.5 226 c 128
 895.833333333 233.333333333 881.333333333 244.333333333 870 259 c 128
 858.666666667 273.666666667 853 292 853 314 c 1
 822 314 822 314 790.5 314 c 128
 759 314 759 314 728 314 c 0
 712 314 699.666666667 316.833333333 691 322.5 c 128
 682.333333333 328.166666667 678 339.333333333 678 356 c 0
 678 361.333333333 678.833333333 367.333333333 680.5 374 c 128
 682.166666667 380.666666667 683.666666667 387 685 393 c 1
 642 393 l 1
 636 369 624.166666667 349.333333333 606.5 334 c 128
 588.833333333 318.666666667 568.166666667 306.5 544.5 297.5 c 128
 520.833333333 288.5 496.666666667 281.833333333 472 277.5 c 128
 447.333333333 273.166666667 424.666666667 270.666666667 404 270 c 1
 385 119 l 2
 383 105 382 90.6666666667 382 76 c 0
 382 62.6666666667 386.333333333 52.6666666667 395 46 c 128
 403.666666667 39.3333333333 413.333333333 33.6666666667 424 29 c 1
 424 14 l 1
 316 2 l 2
 310.666666667 2 304.833333333 1.66666666667 298.5 1 c 128
 292.166666667 0.333333333333 286.333333333 0 281 0 c 0
 268.333333333 0 257.333333333 3.66666666667 248 11 c 128
 238.666666667 18.3333333333 234 28.6666666667 234 42 c 0
 234 47.3333333333 235 57.8333333333 237 73.5 c 128
 239 89.1666666667 240.666666667 102.666666667 242 114 c 2
 260 250 l 1
 242.666666667 248 224.833333333 245.833333333 206.5 243.5 c 128
 188.166666667 241.166666667 170 240 152 240 c 0
 132.666666667 240 114.5 242.333333333 97.5 247 c 128
 80.5 251.666666667 66.8333333333 260.166666667 56.5 272.5 c 128
 46.1666666667 284.833333333 41 302.333333333 41 325 c 0
 41 357 49 383.166666667 65 403.5 c 128
 81 423.833333333 101.833333333 439.333333333 127.5 450 c 128
 153.166666667 460.666666667 180.333333333 468.166666667 209 472.5 c 128
 237.666666667 476.833333333 264.333333333 479.666666667 289 481 c 1
 291.666666667 499 294.5 519.5 297.5 542.5 c 128
 300.5 565.5 302 582 302 592 c 0
 302 602.666666667 300 613.666666667 296 625 c 128
 292 636.333333333 284.666666667 644.333333333 274 649 c 1
 274 664 l 1
 361 675 l 2
 367.666666667 675.666666667 374.833333333 676.5 382.5 677.5 c 128
 390.166666667 678.5 397.333333333 679 404 679 c 0
 416 679 426.666666667 676.166666667 436 670.5 c 128
 445.333333333 664.833333333 450 655.333333333 450 642 c 0
 450 634.666666667 449 623 447 607 c 128
 445 591 442.666666667 574 440 556 c 128
 437.333333333 538 435 522 433 508 c 1
 450.333333333 511.333333333 467.666666667 514.166666667 485 516.5 c 128
 502.333333333 518.833333333 519.666666667 520 537 520 c 0
 571 520 597.666666667 513.5 617 500.5 c 128
 636.333333333 487.5 646 462.666666667 646 426 c 1
 693 426 l 1
 695.666666667 436.666666667 698.833333333 449.666666667 702.5 465 c 128
 706.166666667 480.333333333 708 491 708 497 c 0
 708 500.333333333 707.5 504.833333333 706.5 510.5 c 128
 705.5 516.166666667 702.666666667 519.333333333 698 520 c 1
 698 530 l 1
 812 546 l 2
 817.333333333 546.666666667 821.333333333 547 824 547 c 0
 834 547 842 544.666666667 848 540 c 128
 854 535.333333333 857 527.666666667 857 517 c 0
 857 512.333333333 856.333333333 507 855 501 c 2
 816 352 l 1
 992 352 l 1
 991.333333333 346.666666667 990.833333333 340.333333333 990.5 333 c 128
 990.166666667 325.666666667 990 319 990 313 c 0
 990 298.333333333 992.833333333 282.5 998.5 265.5 c 128
 1004.16666667 248.5 1012 234.333333333 1022 223 c 1
499 407 m 0
 499 423.666666667 495.333333333 438.666666667 488 452 c 128
 480.666666667 465.333333333 467.333333333 472 448 472 c 0
 442.666666667 472 436.333333333 471 429 469 c 1
 409 308 l 1
 437 309.333333333 459 319.333333333 475 338 c 128
 491 356.666666667 499 379.666666667 499 407 c 0
284 445 m 1
 256 445 232.333333333 437.333333333 213 422 c 128
 193.666666667 406.666666667 184 384 184 354 c 0
 184 334 188 317.5 196 304.5 c 128
 204 291.5 219 285 241 285 c 0
 247.666666667 285 255.333333333 285.666666667 264 287 c 1
 284 445 l 1
EndSplineSet
Substitution2: "'locl' Localized Forms in Ethiopic lookup 10 subtable" uni124A.seb3
EndChar
StartChar: uni124C
Encoding: 4684 4684 1074
Width: 692
GlyphClass: 2
Flags: W
AnchorPoint: "Ethiopic Mark" 407 682 basechar 0
LayerCount: 2
Fore
SplineSet
667 462 m 0
 667 432 659.666666667 407.666666667 645 389 c 128
 630.333333333 370.333333333 611.333333333 356 588 346 c 128
 564.666666667 336 539.833333333 329 513.5 325 c 128
 487.166666667 321 462.333333333 318.666666667 439 318 c 1
 438.333333333 308 437.5 298 436.5 288 c 128
 435.5 278 434.333333333 268.333333333 433 259 c 1
 452.333333333 259 471.666666667 260.333333333 491 263 c 128
 510.333333333 265.666666667 529.666666667 267 549 267 c 0
 574.333333333 267 592.333333333 259.333333333 603 244 c 128
 613.666666667 228.666666667 619 209 619 185 c 0
 619 150.333333333 607.666666667 124.166666667 585 106.5 c 128
 562.333333333 88.8333333333 534.333333333 80 501 80 c 2
 438 80 l 2
 418 80 394.666666667 77.6666666667 368 73 c 128
 341.333333333 68.3333333333 314.833333333 62.6666666667 288.5 56 c 128
 262.166666667 49.3333333333 239 43 219 37 c 1
 217.666666667 -1.66666666667 205.666666667 -32.1666666667 183 -54.5 c 128
 160.333333333 -76.8333333333 129.666666667 -88 91 -88 c 0
 76.3333333333 -88 62.3333333333 -86.3333333333 49 -83 c 1
 53 -75.6666666667 56.8333333333 -65.5 60.5 -52.5 c 128
 64.1666666667 -39.5 67.3333333333 -26.1666666667 70 -12.5 c 128
 72.6666666667 1.16666666667 74 12 74 20 c 0
 74 26.6666666667 73.1666666667 33.8333333333 71.5 41.5 c 128
 69.8333333333 49.1666666667 68 56 66 62 c 1
 104.666666667 62.6666666667 140.333333333 64.6666666667 173 68 c 128
 205.666666667 71.3333333333 240.333333333 79.3333333333 277 92 c 1
 300 296 l 1
 285.333333333 293.333333333 268.5 290.166666667 249.5 286.5 c 128
 230.5 282.833333333 215.666666667 281 205 281 c 0
 174.333333333 281 150.333333333 288.333333333 133 303 c 128
 115.666666667 317.666666667 107 341 107 373 c 0
 107 401.666666667 113.833333333 426.166666667 127.5 446.5 c 128
 141.166666667 466.833333333 159 483.166666667 181 495.5 c 128
 203 507.833333333 227 517.166666667 253 523.5 c 128
 279 529.833333333 303.666666667 533.333333333 327 534 c 1
 328.333333333 543.333333333 329.833333333 553.5 331.5 564.5 c 128
 333.166666667 575.5 333.666666667 583.666666667 333 589 c 0
 331.666666667 602.333333333 329.166666667 612.5 325.5 619.5 c 128
 321.833333333 626.5 313 631.666666667 299 635 c 1
 299 651 l 1
 388 662 l 2
 394.666666667 662.666666667 401.5 663.5 408.5 664.5 c 128
 415.5 665.5 422.333333333 666 429 666 c 0
 458.333333333 666 472.666666667 651.666666667 472 623 c 0
 472 614.333333333 471.5 602.5 470.5 587.5 c 128
 469.5 572.5 468.333333333 558.666666667 467 546 c 1
 483 548 499.166666667 549.666666667 515.5 551 c 128
 531.833333333 552.333333333 548 553 564 553 c 0
 593.333333333 553 617.833333333 545.833333333 637.5 531.5 c 128
 657.166666667 517.166666667 667 494 667 462 c 0
528 448 m 0
 528 462 523.333333333 476.5 514 491.5 c 128
 504.666666667 506.5 492 514 476 514 c 0
 473 514 473 514 469.5 514 c 128
 467.166666667 514 465 513.666666667 463 513 c 1
 459.666666667 485 456.333333333 457.5 453 430.5 c 128
 449.666666667 403.5 446.333333333 376 443 348 c 1
 473.666666667 350 495.5 359.833333333 508.5 377.5 c 128
 521.5 395.166666667 528 418.666666667 528 448 c 0
323 495 m 1
 290.333333333 495 267.333333333 485.333333333 254 466 c 128
 240.666666667 446.666666667 234 421.666666667 234 391 c 0
 234 373 237.5 358.833333333 244.5 348.5 c 128
 251.5 338.166666667 265 333 285 333 c 0
 291.666666667 333 298.333333333 333.333333333 305 334 c 1
 323 495 l 1
493 175 m 0
 493 188.333333333 489.166666667 199.666666667 481.5 209 c 128
 473.833333333 218.333333333 463.333333333 223 450 223 c 0
 442 223 434.666666667 221.333333333 428 218 c 1
 424.666666667 200.666666667 422.333333333 183 421 165 c 128
 419.666666667 147 418.333333333 129.333333333 417 112 c 1
 420.333333333 110.666666667 424.833333333 109.666666667 430.5 109 c 128
 436.166666667 108.333333333 441 108 445 108 c 0
 455 108 463.5 111.833333333 470.5 119.5 c 128
 477.5 127.166666667 483 136.166666667 487 146.5 c 128
 491 156.833333333 493 166.333333333 493 175 c 0
EndSplineSet
EndChar
StartChar: uni124D
Encoding: 4685 4685 1075
Width: 986
GlyphClass: 2
Flags: W
AnchorPoint: "Ethiopic Mark" 342 701 basechar 0
LayerCount: 2
Fore
SplineSet
961 301 m 1
 952.333333333 297.666666667 941.5 294.166666667 928.5 290.5 c 128
 915.5 286.833333333 904.333333333 285 895 285 c 0
 875 285 855.666666667 290 837 300 c 128
 818.333333333 310 803.333333333 323.666666667 792 341 c 128
 780.666666667 358.333333333 776.666666667 378 780 400 c 1
 576 400 l 1
 568 367.333333333 552.5 341.5 529.5 322.5 c 128
 506.5 303.5 479.666666667 290 449 282 c 128
 418.333333333 274 388 269.333333333 358 268 c 1
 339 119 l 2
 337 105 336 90.6666666667 336 76 c 0
 336 67.3333333333 336.833333333 59 338.5 51 c 128
 340.166666667 43 344.666666667 36 352 30 c 1
 352 15 l 1
 271 3 l 2
 265.666666667 2.33333333333 259.833333333 1.66666666667 253.5 1 c 128
 247.166666667 0.333333333333 241.333333333 0 236 0 c 0
 219.333333333 0 207.833333333 4.5 201.5 13.5 c 128
 195.166666667 22.5 192 35 192 51 c 0
 192 61 192.5 70.8333333333 193.5 80.5 c 128
 194.5 90.1666666667 195.666666667 99.6666666667 197 109 c 2
 217 260 l 1
 203 258 187 255.166666667 169 251.5 c 128
 151 247.833333333 137 246 127 246 c 0
 95.6666666667 246 73 255.666666667 59 275 c 128
 45 294.333333333 38 318.666666667 38 348 c 0
 38 392 47.6666666667 426.666666667 67 452 c 128
 86.3333333333 477.333333333 112.166666667 495.666666667 144.5 507 c 128
 176.833333333 518.333333333 212.666666667 525.666666667 252 529 c 1
 253.333333333 539.666666667 254.833333333 551 256.5 563 c 128
 258.166666667 575 259 584.666666667 259 592 c 0
 259 606 256.833333333 617.166666667 252.5 625.5 c 128
 248.166666667 633.833333333 239.666666667 641.333333333 227 648 c 1
 227 664 l 1
 313 675 l 2
 319.666666667 675.666666667 327 676.5 335 677.5 c 128
 343 678.5 350.333333333 679 357 679 c 0
 373 679 384.833333333 676 392.5 670 c 128
 400.166666667 664 404 652.666666667 404 636 c 0
 404 625.333333333 402.666666667 610.5 400 591.5 c 128
 397.333333333 572.5 394.666666667 555 392 539 c 1
 415 541 415 541 438 543 c 128
 453.333333333 544.333333333 468.666666667 545 484 545 c 0
 520.666666667 545 545.833333333 535.166666667 559.5 515.5 c 128
 573.166666667 495.833333333 580 469 580 435 c 1
 647 435 l 1
 654 500 l 2
 654.666666667 506.666666667 652.833333333 512.666666667 648.5 518 c 128
 644.166666667 523.333333333 639.333333333 527.333333333 634 530 c 1
 634 544 l 1
 738 563 l 2
 741.333333333 563.666666667 744.5 564.166666667 747.5 564.5 c 128
 750.5 564.833333333 753.666666667 565 757 565 c 0
 777 565 787.333333333 555.333333333 788 536 c 0
 788 524 786.666666667 509.166666667 784 491.5 c 128
 781.333333333 473.833333333 779.333333333 458 778 444 c 1
 934 444 l 1
 930 434 926.666666667 422.5 924 409.5 c 128
 921.333333333 396.5 920 384.666666667 920 374 c 0
 920 360.666666667 923.666666667 346.833333333 931 332.5 c 128
 938.333333333 318.166666667 948.333333333 307.666666667 961 301 c 1
247 491 m 1
 226.333333333 488.333333333 209.666666667 480.833333333 197 468.5 c 128
 184.333333333 456.166666667 175.166666667 441 169.5 423 c 128
 163.833333333 405 161 386.666666667 161 368 c 0
 161 345.333333333 164.333333333 328.166666667 171 316.5 c 128
 177.666666667 304.833333333 194.666666667 299 222 299 c 1
 247 491 l 1
446 436 m 0
 446 450 443 464.666666667 437 480 c 128
 431 495.333333333 419 503 401 503 c 0
 395.666666667 503 391.333333333 502.666666667 388 502 c 1
 363 307 l 1
 365.666666667 305.666666667 368.666666667 305 372 305 c 0
 374.666666667 305 378.333333333 305.833333333 383 307.5 c 128
 387.666666667 309.166666667 391.333333333 310.666666667 394 312 c 0
 407.333333333 319.333333333 417.833333333 330.166666667 425.5 344.5 c 128
 433.166666667 358.833333333 438.5 374.166666667 441.5 390.5 c 128
 444.5 406.833333333 446 422 446 436 c 0
EndSplineSet
Substitution2: "'locl' Localized Forms in Ethiopic lookup 11 subtable" uni124D.seb2
EndChar
StartChar: uni1252
Encoding: 4690 4690 1079
Width: 680
GlyphClass: 2
Flags: W
AnchorPoint: "Ethiopic Mark" 381 751 basechar 0
LayerCount: 2
Fore
SplineSet
670 650 m 1
 660 640 645.166666667 633 625.5 629 c 128
 605.833333333 625 589.333333333 623 576 623 c 0
 556 623 538.166666667 625.5 522.5 630.5 c 128
 506.833333333 635.5 493.666666667 647.333333333 483 666 c 1
 438 661 l 1
 442 652.333333333 444.666666667 643.166666667 446 633.5 c 128
 447.333333333 623.833333333 448 614.333333333 448 605 c 0
 448 589 446.666666667 572.5 444 555.5 c 128
 441.333333333 538.5 439 522 437 506 c 1
 454.333333333 508.666666667 471.833333333 510.833333333 489.5 512.5 c 128
 507.166666667 514.166666667 524.666666667 515 542 515 c 0
 570.666666667 515 595.166666667 506.333333333 615.5 489 c 128
 635.833333333 471.666666667 646 448 646 418 c 0
 646 390 637.5 367.166666667 620.5 349.5 c 128
 603.5 331.833333333 582 317.833333333 556 307.5 c 128
 530 297.166666667 503.333333333 289.5 476 284.5 c 128
 448.666666667 279.5 424.666666667 276.333333333 404 275 c 1
 380 113 l 2
 379.333333333 107.666666667 378.833333333 101.833333333 378.5 95.5 c 128
 378.166666667 89.1666666667 378 83.3333333333 378 78 c 0
 378 67.3333333333 381 58.5 387 51.5 c 128
 393 44.5 401.333333333 41 412 41 c 0
 420.666666667 41 429.166666667 41.3333333333 437.5 42 c 128
 445.833333333 42.6666666667 454 43.3333333333 462 44 c 1
 468.666666667 59.3333333333 479 71.5 493 80.5 c 128
 507 89.5 522.5 95.6666666667 539.5 99 c 128
 556.5 102.333333333 572.666666667 104 588 104 c 0
 594 104 600.5 103.5 607.5 102.5 c 128
 614.5 101.5 620.666666667 100 626 98 c 1
 618.666666667 92 613.166666667 84 609.5 74 c 128
 605.833333333 64 604 54.3333333333 604 45 c 0
 604 31 607 16.1666666667 613 0.5 c 128
 619 -15.1666666667 628 -27 640 -35 c 1
 625.333333333 -44.3333333333 610.833333333 -51.3333333333 596.5 -56 c 128
 582.166666667 -60.6666666667 566 -63 548 -63 c 0
 525.333333333 -63 505.333333333 -56.8333333333 488 -44.5 c 128
 470.666666667 -32.1666666667 461 -14 459 10 c 1
 323 1 l 2
 317 1 310 0.666666666667 302 0 c 128
 294 -0.666697184245 286.666666667 -1.00003051758 280 -1 c 0
 266 -1 254.666666667 0.833333333333 246 4.5 c 128
 237.333333333 8.16666666667 233 18 233 34 c 0
 233 44 233.833333333 55 235.5 67 c 128
 237.166666667 79 238.666666667 90 240 100 c 2
 264 258 l 1
 248 256 230 253.666666667 210 251 c 128
 190 248.333333333 174.333333333 247 163 247 c 0
 142.333333333 247 123.166666667 249.833333333 105.5 255.5 c 128
 87.8333333333 261.166666667 73.5 270.833333333 62.5 284.5 c 128
 51.5 298.166666667 46 316.666666667 46 340 c 0
 46 360 52.3333333333 378.666666667 65 396 c 0
 81 418.666666667 102.166666667 436.5 128.5 449.5 c 128
 154.833333333 462.5 183 472 213 478 c 128
 243 484 270.666666667 487.666666667 296 489 c 1
 305 559 l 2
 305.666666667 566.333333333 306.666666667 573.833333333 308 581.5 c 128
 309.333333333 589.166666667 310 596.666666667 310 604 c 256
 310 611.333333333 309.333333333 618.833333333 308 626.5 c 128
 306.666666667 634.166666667 303.333333333 640.666666667 298 646 c 1
 238 640 l 1
 237.333333333 626.666666667 229.833333333 615 215.5 605 c 128
 201.166666667 595 185.333333333 587.166666667 168 581.5 c 128
 150.666666667 575.833333333 136.333333333 573 125 573 c 0
 117 573 106.833333333 573.166666667 94.5 573.5 c 128
 82.1666666667 573.833333333 72.6666666667 576.333333333 66 581 c 1
 75.3333333333 591.666666667 82 603 86 615 c 128
 90 627 92 640 92 654 c 0
 92 665.333333333 89.3333333333 676.833333333 84 688.5 c 128
 78.6666666667 700.166666667 72.3333333333 710.333333333 65 719 c 1
 80.3333333333 723 94.6666666667 726.666666667 108 730 c 128
 121.333333333 733.333333333 136 735 152 735 c 0
 172 735 191.166666667 730.333333333 209.5 721 c 128
 227.833333333 711.666666667 238 696 240 674 c 1
 477 700 l 1
 481 722.666666667 489.5 739.666666667 502.5 751 c 128
 515.5 762.333333333 531.333333333 769.833333333 550 773.5 c 128
 568.666666667 777.166666667 587.666666667 779 607 779 c 0
 615 779 623 778.333333333 631 777 c 128
 639 775.666666667 646.666666667 774.333333333 654 773 c 1
 653 771 l 2
 647.666666667 762.333333333 643.833333333 754.833333333 641.5 748.5 c 128
 639.166666667 742.166666667 638 733.666666667 638 723 c 0
 638 707.666666667 640 694 644 682 c 128
 648 670 656.666666667 659.333333333 670 650 c 1
506 403 m 0
 506 420.333333333 501.166666667 435.666666667 491.5 449 c 128
 481.833333333 462.333333333 467.666666667 469 449 469 c 0
 442.333333333 469 436.333333333 468.333333333 431 467 c 1
 409 311 l 1
 438.333333333 311 461.833333333 318.666666667 479.5 334 c 128
 497.166666667 349.333333333 506 372.333333333 506 403 c 0
290 450 m 1
 257.333333333 450 232.166666667 442.333333333 214.5 427 c 128
 196.833333333 411.666666667 188 387 188 353 c 0
 188 333.666666667 192.333333333 318.666666667 201 308 c 128
 209.666666667 297.333333333 224.333333333 292 245 292 c 0
 252.333333333 292 260.333333333 292.666666667 269 294 c 1
 290 450 l 1
EndSplineSet
EndChar
StartChar: uni1255
Encoding: 4693 4693 1082
Width: 752
GlyphClass: 2
Flags: W
AnchorPoint: "Ethiopic Mark" 309 787 basechar 0
LayerCount: 2
Fore
SplineSet
715 337 m 0
 715 309 706.666666667 285.5 690 266.5 c 128
 673.333333333 247.5 652.166666667 232.666666667 626.5 222 c 128
 600.833333333 211.333333333 574.166666667 203.333333333 546.5 198 c 128
 518.833333333 192.666666667 494.333333333 189.333333333 473 188 c 1
 453 51 l 2
 452.333333333 44.3333333333 451.5 37.3333333333 450.5 30 c 128
 449.5 22.6666666667 449 15.6666666667 449 9 c 0
 449 -1.66666666667 450.333333333 -10.8333333333 453 -18.5 c 128
 455.666666667 -26.1666666667 462.666666667 -31.6666666667 474 -35 c 1
 474 -50 l 1
 388 -62 l 2
 382.666666667 -62.6666666667 376.666666667 -63.3333333333 370 -64 c 128
 363.333333333 -64.6666666667 357.333333333 -65 352 -65 c 0
 333.333333333 -65 321.333333333 -61 316 -53 c 128
 310.666666667 -45 308 -32 308 -14 c 0
 308 -6.66666666667 308.5 1 309.5 9 c 128
 310.5 17 311.666666667 24.6666666667 313 32 c 2
 335 174 l 1
 318.333333333 171.333333333 301 169 283 167 c 128
 265 165 247.333333333 164 230 164 c 0
 210.666666667 164 192.666666667 166.333333333 176 171 c 128
 159.333333333 175.666666667 146 184.166666667 136 196.5 c 128
 126 208.833333333 121 226.333333333 121 249 c 0
 121 283 128.666666667 310.666666667 144 332 c 128
 159.333333333 353.333333333 179.5 369.666666667 204.5 381 c 128
 229.5 392.333333333 256.5 400.333333333 285.5 405 c 128
 314.5 409.666666667 342.666666667 412.666666667 370 414 c 1
 372.666666667 432 375.666666667 450.666666667 379 470 c 128
 382.333333333 489.333333333 384 508.333333333 384 527 c 0
 384 533 383.166666667 539 381.5 545 c 128
 379.833333333 551 377.333333333 556.333333333 374 561 c 1
 361.333333333 561 347.166666667 560.333333333 331.5 559 c 128
 315.833333333 557.666666667 301.166666667 556.5 287.5 555.5 c 128
 273.833333333 554.5 263.666666667 554 257 554 c 0
 249 554 243 555.333333333 239 558 c 128
 235 560.666666667 233 566.333333333 233 575 c 2
 233 688 l 1
 187 682 l 1
 183 650 170 629.5 148 620.5 c 128
 126 611.5 101 607 73 607 c 0
 65 607 55.5 607.166666667 44.5 607.5 c 128
 33.5 607.833333333 24.3333333333 610 17 614 c 1
 22.3333333333 621.333333333 26.3333333333 632 29 646 c 128
 31.6666666667 660 33 671.333333333 33 680 c 0
 33 692 30.6666666667 706.666666667 26 724 c 128
 21.3333333333 741.333333333 15.3333333333 754.666666667 8 764 c 1
 20.6666666667 767.333333333 33.6666666667 770.333333333 47 773 c 128
 60.3333333333 775.666666667 73.6666666667 777 87 777 c 0
 109 777 128.5 772.166666667 145.5 762.5 c 128
 162.5 752.833333333 175.333333333 737.666666667 184 717 c 1
 478 752 l 1
 481.333333333 771.333333333 489.5 786.666666667 502.5 798 c 128
 515.5 809.333333333 531 817.666666667 549 823 c 128
 567 828.333333333 584.333333333 831 601 831 c 0
 607.666666667 831 614.333333333 830.5 621 829.5 c 128
 627.666666667 828.5 634 827 640 825 c 1
 635.333333333 817 632 806.666666667 630 794 c 128
 628 781.333333333 627 770.333333333 627 761 c 0
 627 748.333333333 627.833333333 735 629.5 721 c 128
 631.166666667 707 637.666666667 696 649 688 c 1
 642.333333333 682 632.833333333 678.5 620.5 677.5 c 128
 608.166666667 676.5 597.666666667 676 589 676 c 0
 570.333333333 676 550.833333333 678.333333333 530.5 683 c 128
 510.166666667 687.666666667 494.666666667 699.333333333 484 718 c 1
 362 703 l 1
 368.666666667 689 372.166666667 670.666666667 372.5 648 c 128
 372.833333333 625.333333333 374 606 376 590 c 1
 392 592 410.5 594.333333333 431.5 597 c 128
 452.5 599.666666667 467.666666667 601 477 601 c 0
 494.333333333 601 506.333333333 596.833333333 513 588.5 c 128
 519.666666667 580.166666667 523 568 523 552 c 0
 523 532.666666667 521 511.666666667 517 489 c 128
 513 466.333333333 509.666666667 445.333333333 507 426 c 1
 524.333333333 428.666666667 541.5 430.833333333 558.5 432.5 c 128
 575.5 434.166666667 592.666666667 435 610 435 c 0
 642 435 667.5 427 686.5 411 c 128
 705.5 395 715 370.333333333 715 337 c 0
574 322 m 0
 574 339.333333333 570.166666667 355 562.5 369 c 128
 554.833333333 383 541 390 521 390 c 0
 515 390 508.666666667 389 502 387 c 1
 478 225 l 1
 508 225 531.5 233.833333333 548.5 251.5 c 128
 565.5 269.166666667 574 292.666666667 574 322 c 0
364 375 m 1
 331.333333333 375 306.166666667 367.333333333 288.5 352 c 128
 270.833333333 336.666666667 262 312 262 278 c 0
 262 258.666666667 266 242.333333333 274 229 c 128
 282 215.666666667 296.666666667 209 318 209 c 0
 326 209 333.333333333 209.666666667 340 211 c 1
 364 375 l 1
EndSplineSet
EndChar
StartChar: uni1256
Encoding: 4694 4694 1083
Width: 740
GlyphClass: 2
Flags: W
AnchorPoint: "Ethiopic Mark" 403 761 basechar 0
LayerCount: 2
Fore
SplineSet
264 205 m 1
 280 329 l 2
 281.333333333 334.333333333 282.166666667 339.833333333 282.5 345.5 c 128
 282.833333333 351.166666667 283.333333333 356.666666667 284 362 c 0
 284 363 284 363 284 364 c 0
 284 365 l 1
 270 364.333333333 254.833333333 359.5 238.5 350.5 c 128
 222.166666667 341.5 208.333333333 329.5 197 314.5 c 128
 185.666666667 299.5 180 282.333333333 180 263 c 0
 180 240.333333333 185.833333333 225 197.5 217 c 128
 209.166666667 209 226.666666667 205 250 205 c 0
 254 205 254 205 257 205 c 128
 260 205 260 205 264 205 c 1
498 313 m 0
 498 331 491.333333333 345.666666667 478 357 c 128
 464.666666667 368.333333333 450 374.333333333 434 375 c 0
 431 375 431 375 426 375 c 128
 422.666666667 375 419.666666667 374.666666667 417 374 c 1
 417 370 416.833333333 365.666666667 416.5 361 c 128
 416.166666667 356.333333333 415.666666667 352 415 348 c 2
 399 220 l 1
 403.666666667 219.333333333 407.333333333 219 410 219 c 128
 412.666666667 219 416.333333333 219.333333333 421 220 c 0
 449 223.333333333 468.833333333 234.166666667 480.5 252.5 c 128
 492.166666667 270.833333333 498 291 498 313 c 0
387 463 m 1
 397 475 406 489.166666667 414 505.5 c 128
 422 521.833333333 426 540 426 560 c 0
 426 582 423.333333333 597.666666667 418 607 c 128
 412.666666667 616.333333333 403.666666667 621 391 621 c 256
 378.333333333 621 368.666666667 615.5 362 604.5 c 128
 355.333333333 593.5 352 578.666666667 352 560 c 0
 352 537.333333333 355.666666667 518.5 363 503.5 c 128
 370.333333333 488.5 378.333333333 475 387 463 c 1
411 20 m 1
 286 0 l 1
 271.333333333 0 260.833333333 4 254.5 12 c 128
 248.166666667 20 245 34.6666666667 245 56 c 0
 245 60.6666666667 245.833333333 68.5 247.5 79.5 c 128
 249.166666667 90.5 250 97.6666666667 250 101 c 2
 259 166 l 1
 244.333333333 163.333333333 226.333333333 160.333333333 205 157 c 128
 183.666666667 153.666666667 164.666666667 152 148 152 c 0
 126.666666667 152 108.166666667 156.5 92.5 165.5 c 128
 76.8333333333 174.5 64.6666666667 185.833333333 56 199.5 c 128
 47.3333333333 213.166666667 43 226.666666667 43 240 c 0
 43 279.333333333 62.8333333333 311.333333333 102.5 336 c 128
 142.166666667 360.666666667 202.333333333 382 283 400 c 1
 279.666666667 411.333333333 274 422.5 266 433.5 c 128
 258 444.5 250.666666667 457.666666667 244 473 c 128
 237.333333333 488.333333333 234 507.333333333 234 530 c 0
 234 557.333333333 242.5 581 259.5 601 c 128
 276.5 621 299.333333333 636 328 646 c 1
 331 678 l 1
 242 666 l 1
 231.333333333 648.666666667 221 634.666666667 211 624 c 128
 201 613.333333333 188.166666667 605.666666667 172.5 601 c 128
 156.833333333 596.333333333 135.333333333 594 108 594 c 0
 92 594 80 595.166666667 72 597.5 c 0
 60 601 l 1
 66.6666666667 608.333333333 71.5 618.5 74.5 631.5 c 128
 77.5 644.5 79 657 79 669 c 0
 79 684.333333333 77.5 698.833333333 74.5 712.5 c 128
 71.5 726.166666667 66.3333333333 738 59 748 c 1
 79.5 753.5 l 0
 93.1666666667 757.166666667 113.666666667 759 141 759 c 0
 159 759 178.333333333 754.666666667 199 746 c 128
 219.666666667 737.333333333 234.333333333 725 243 709 c 1
 538 743 l 1
 553.333333333 769 574.666666667 787.666666667 602 799 c 128
 629.333333333 810.333333333 663.333333333 816 704 816 c 0
 709 816 709 816 714.5 816 c 128
 720 816 720 816 725 816 c 1
 719 802 715.333333333 787.666666667 714 773 c 128
 712.666666667 758.333333333 712 747.666666667 712 741 c 0
 712 725.666666667 714.166666667 710.333333333 718.5 695 c 128
 722.833333333 679.666666667 726.333333333 670 729 666 c 1
 717.666666667 660.666666667 707.166666667 657.333333333 697.5 656 c 128
 687.833333333 654.666666667 674.666666667 654 658 654 c 0
 627.333333333 654 602 659.666666667 582 671 c 128
 562 682.333333333 549.666666667 694.666666667 545 708 c 1
 472 698 l 1
 467 655 l 1
 496.333333333 649 517.833333333 638.166666667 531.5 622.5 c 128
 545.166666667 606.833333333 552 590.333333333 552 573 c 0
 552 544.333333333 538.833333333 517.5 512.5 492.5 c 128
 486.166666667 467.5 453 444 413 422 c 1
 413.666666667 420 414.5 417.833333333 415.5 415.5 c 128
 416.5 413.166666667 417 411 417 409 c 1
 429 409.666666667 444.5 410.833333333 463.5 412.5 c 128
 482.5 414.166666667 501 415 519 415 c 0
 553 415 580 408.333333333 600 395 c 128
 620 381.666666667 630 358.666666667 630 326 c 0
 630 283.333333333 610.833333333 249.166666667 572.5 223.5 c 128
 534.166666667 197.833333333 479.666666667 185 409 185 c 2
 394 185 l 1
 390 153 l 2
 390 150.333333333 389.5 144.166666667 388.5 134.5 c 128
 387 120 387 120 385.5 105.5 c 128
 384.5 95.8333333333 384 89.3333333333 384 86 c 0
 384 70 385.5 58.3333333333 388.5 51 c 128
 391.5 43.6666666667 399 38.6666666667 411 36 c 1
 411 20 l 1
EndSplineSet
EndChar
StartChar: uni125A
Encoding: 4698 4698 1085
Width: 1046
GlyphClass: 2
Flags: W
AnchorPoint: "Ethiopic Mark" 383 761 basechar 0
LayerCount: 2
Fore
SplineSet
1025 241 m 1
 1017 239 1008.5 237.166666667 999.5 235.5 c 128
 990.5 233.833333333 981.666666667 233 973 233 c 0
 939.666666667 233 912.333333333 239.166666667 891 251.5 c 128
 869.666666667 263.833333333 859 288.666666667 859 326 c 1
 731 326 l 2
 710.333333333 326 697 328 691 332 c 128
 685 336 682 344 682 356 c 0
 682 360.666666667 682.833333333 366.5 684.5 373.5 c 128
 686.166666667 380.5 687.666666667 387 689 393 c 1
 642 393 l 1
 636 370.333333333 624.333333333 351.5 607 336.5 c 128
 589.666666667 321.5 569.166666667 310 545.5 302 c 128
 521.833333333 294 498 288 474 284 c 128
 450 280 428 277.333333333 408 276 c 1
 390 134 l 2
 388 120 387 105.666666667 387 91 c 0
 387 77.6666666667 389.833333333 68.1666666667 395.5 62.5 c 128
 401.166666667 56.8333333333 409.666666667 51.6666666667 421 47 c 1
 421 32 l 1
 317 16 l 2
 311.666666667 15.3333333333 306.5 14.6666666667 301.5 14 c 128
 296.5 13.3333333333 291.333333333 13 286 13 c 0
 273.333333333 13 262.333333333 17.1666666667 253 25.5 c 128
 243.666666667 33.8333333333 239 44.3333333333 239 57 c 0
 239 68.3333333333 239.833333333 80.3333333333 241.5 93 c 128
 243.166666667 105.666666667 244.666666667 117.666666667 246 129 c 2
 264 257 l 1
 248 254.333333333 229.333333333 251.833333333 208 249.5 c 128
 186.666666667 247.166666667 168 246 152 246 c 0
 133.333333333 246 115.5 247.666666667 98.5 251 c 128
 81.5 254.333333333 67.6666666667 261.833333333 57 273.5 c 128
 46.3333333333 285.166666667 41 302.333333333 41 325 c 0
 41 357.666666667 49.1666666667 384 65.5 404 c 128
 81.8333333333 424 103 439.5 129 450.5 c 128
 155 461.5 182.5 469 211.5 473 c 128
 240.5 477 267.666666667 479.666666667 293 481 c 1
 314 643 l 1
 258 635 l 1
 254.666666667 614.333333333 246.5 598.333333333 233.5 587 c 128
 220.5 575.666666667 205.333333333 568 188 564 c 128
 170.666666667 560 152.666666667 558 134 558 c 0
 128 558 120 558.5 110 559.5 c 128
 100 560.5 92 562.333333333 86 565 c 1
 96 573.666666667 102.833333333 583.166666667 106.5 593.5 c 128
 110.166666667 603.833333333 112 615.666666667 112 629 c 0
 112 645 110.333333333 657.333333333 107 666 c 128
 103.666666667 674.666666667 97.3333333333 685.333333333 88 698 c 1
 99.3333333333 705.333333333 113.166666667 710.5 129.5 713.5 c 128
 145.833333333 716.5 160.666666667 718 174 718 c 0
 209.333333333 718 235.666666667 702 253 670 c 1
 501 706 l 1
 501.666666667 728 508.166666667 744.5 520.5 755.5 c 128
 532.833333333 766.5 548 773.833333333 566 777.5 c 128
 584 781.166666667 602 783 620 783 c 0
 625.333333333 783 631.666666667 782.166666667 639 780.5 c 128
 646.333333333 778.833333333 652.666666667 777.333333333 658 776 c 1
 654 766.666666667 650.666666667 757.333333333 648 748 c 128
 645.333333333 738.666666667 644 729 644 719 c 0
 644 703.666666667 647.833333333 691 655.5 681 c 128
 663.166666667 671 672 660.666666667 682 650 c 1
 667.333333333 640 653.833333333 632.333333333 641.5 627 c 128
 629.166666667 621.666666667 613.666666667 619 595 619 c 0
 579.666666667 619 562.666666667 623.833333333 544 633.5 c 128
 525.333333333 643.166666667 513.333333333 655.666666667 508 671 c 1
 458 664 l 1
 438 509 l 1
 454 512.333333333 470.333333333 515 487 517 c 128
 503.666666667 519 520.333333333 520 537 520 c 0
 571 520 597.666666667 513.5 617 500.5 c 128
 636.333333333 487.5 646 462.666666667 646 426 c 1
 697 426 l 1
 699.666666667 438 703 451.5 707 466.5 c 128
 711 481.5 713 492.666666667 713 500 c 0
 713 503.333333333 712.5 507.333333333 711.5 512 c 128
 710.5 516.666666667 708 519.333333333 704 520 c 1
 704 530 l 1
 816 546 l 2
 821.333333333 546.666666667 825.333333333 547 828 547 c 0
 838 547 846 544.666666667 852 540 c 128
 858 535.333333333 861 528 861 518 c 0
 861 513.333333333 860.333333333 507.666666667 859 501 c 2
 820 359 l 1
 1001 359 l 1
 1000.33333333 355.666666667 999.833333333 349.166666667 999.5 339.5 c 128
 999.166666667 329.833333333 999 323.333333333 999 320 c 0
 999 305.333333333 1000.83333333 291.333333333 1004.5 278 c 128
 1008.16666667 264.666666667 1015 252.333333333 1025 241 c 1
499 407 m 0
 499 424.333333333 495.166666667 439.5 487.5 452.5 c 128
 479.833333333 465.5 466.333333333 472 447 472 c 0
 442.333333333 472 437.666666667 471.333333333 433 470 c 1
 413 314 l 1
 439.666666667 315.333333333 460.666666667 324.666666667 476 342 c 128
 491.333333333 359.333333333 499 381 499 407 c 0
289 445 m 1
 259.666666667 445 234.833333333 437.833333333 214.5 423.5 c 128
 194.166666667 409.166666667 184 386 184 354 c 0
 184 335.333333333 187.5 320 194.5 308 c 128
 201.5 296 215.333333333 290 236 290 c 0
 246.666666667 290 257.666666667 291.333333333 269 294 c 1
 289 445 l 1
EndSplineSet
EndChar
StartChar: uni125B
Encoding: 4699 4699 1086
Width: 645
GlyphClass: 2
Flags: W
AnchorPoint: "Ethiopic Mark" 363 790 basechar 0
LayerCount: 2
Fore
SplineSet
645 678 m 1
 630.333333333 667.333333333 616.666666667 659.5 604 654.5 c 128
 591.333333333 649.5 576 647 558 647 c 0
 542.666666667 647 525.666666667 651.833333333 507 661.5 c 128
 488.333333333 671.166666667 476.333333333 683.666666667 471 699 c 1
 421 692 l 1
 407 585 l 1
 421 590.333333333 435.166666667 594 449.5 596 c 128
 463.833333333 598 478.333333333 599 493 599 c 0
 514.333333333 599 533 593.333333333 549 582 c 128
 565 570.666666667 577.5 556.166666667 586.5 538.5 c 128
 595.5 520.833333333 600 501.666666667 600 481 c 0
 600 467.666666667 598.833333333 454.333333333 596.5 441 c 128
 594.166666667 427.666666667 589.666666667 415 583 403 c 0
 569.666666667 377.666666667 545.166666667 357.666666667 509.5 343 c 128
 473.833333333 328.333333333 427.666666667 317.666666667 371 311 c 1
 356 200 l 1
 499 200 l 1
 498.333333333 192 497.5 183.833333333 496.5 175.5 c 128
 495.5 167.166666667 495 159 495 151 c 0
 495 136.333333333 497.833333333 118 503.5 96 c 128
 509.166666667 74 516.333333333 57.3333333333 525 46 c 1
 525 36 l 1
 515.666666667 34 503.833333333 31.1666666667 489.5 27.5 c 128
 475.166666667 23.8333333333 460.833333333 20.5 446.5 17.5 c 128
 432.166666667 14.5 420.333333333 13 411 13 c 0
 381.666666667 13 367 28.3333333333 367 59 c 2
 367 174 l 1
 218 174 l 1
 214.666666667 138 202.333333333 110 181 90 c 128
 159.666666667 70 130.666666667 60 94 60 c 0
 81.3333333333 60 70.3333333333 62.3333333333 61 67 c 1
 67 74.3333333333 71.6666666667 84.5 75 97.5 c 128
 78.3333333333 110.5 80.5 123.833333333 81.5 137.5 c 128
 82.5 151.166666667 83 162.333333333 83 171 c 0
 83 180.333333333 82.6666666667 190 82 200 c 1
 223 200 l 1
 238 311 l 1
 224 308.333333333 208.833333333 305.666666667 192.5 303 c 128
 176.166666667 300.333333333 162.666666667 299 152 299 c 0
 117.333333333 299 89.6666666667 309 69 329 c 128
 48.3333333333 349 38 376.666666667 38 412 c 0
 38 440 44.8333333333 464.166666667 58.5 484.5 c 128
 72.1666666667 504.833333333 89.8333333333 521.666666667 111.5 535 c 128
 133.166666667 548.333333333 156.666666667 558.333333333 182 565 c 128
 207.333333333 571.666666667 231.666666667 575 255 575 c 0
 259 575 259 575 263.5 575 c 128
 266.5 575 269.333333333 574.666666667 272 574 c 1
 286 672 l 1
 221 663 l 1
 217.666666667 642.333333333 209.666666667 626.333333333 197 615 c 128
 184.333333333 603.666666667 169.166666667 596 151.5 592 c 128
 133.833333333 588 115.666666667 586 97 586 c 0
 90.3333333333 586 82.6666666667 586.166666667 74 586.5 c 128
 65.3333333333 586.833333333 57.6666666667 588 51 590 c 1
 61 599.333333333 67.5 609.666666667 70.5 621 c 128
 73.5 632.333333333 75 644.333333333 75 657 c 0
 75 672.333333333 73.1666666667 684.5 69.5 693.5 c 128
 65.8333333333 702.5 59.6666666667 713.333333333 51 726 c 1
 62.3333333333 734 76.3333333333 739.333333333 93 742 c 128
 109.666666667 744.666666667 124.333333333 746 137 746 c 0
 173 746 199.333333333 730 216 698 c 1
 464 734 l 1
 464.666666667 756 471.166666667 772.5 483.5 783.5 c 128
 495.833333333 794.5 511 801.833333333 529 805.5 c 128
 547 809.166666667 565 811 583 811 c 0
 589.666666667 811 596.166666667 810.333333333 602.5 809 c 128
 608.833333333 807.666666667 615 806 621 804 c 1
 617 794.666666667 613.666666667 785.5 611 776.5 c 128
 608.333333333 767.5 607 757.666666667 607 747 c 0
 607 731 610.666666667 718.166666667 618 708.5 c 128
 625.333333333 698.833333333 634.333333333 688.666666667 645 678 c 1
460 477 m 256
 460 485.666666667 458.5 495.166666667 455.5 505.5 c 128
 452.5 515.833333333 447.833333333 524.833333333 441.5 532.5 c 128
 435.166666667 540.166666667 426.333333333 544 415 544 c 0
 412 544 412 544 408.5 544 c 128
 406.166666667 544 404 543.666666667 402 543 c 1
 376 353 l 1
 379.333333333 352.333333333 383 351.5 387 350.5 c 128
 391 349.5 394.666666667 349 398 349 c 0
 410 349 420 353.833333333 428 363.5 c 128
 436 373.166666667 442.333333333 385.166666667 447 399.5 c 128
 451.666666667 413.833333333 455 428.166666667 457 442.5 c 128
 459 456.833333333 460 468.333333333 460 477 c 256
268 538 m 1
 247.333333333 538 229.5 531.833333333 214.5 519.5 c 128
 199.5 507.166666667 187.833333333 491.666666667 179.5 473 c 128
 171.166666667 454.333333333 167 435.666666667 167 417 c 0
 167 397 172.166666667 380 182.5 366 c 128
 192.833333333 352 208.666666667 345 230 345 c 0
 232.666666667 345 236.666666667 345.333333333 242 346 c 1
 268 538 l 1
EndSplineSet
EndChar
StartChar: uni1262
Encoding: 4706 4706 1091
Width: 759
GlyphClass: 2
Flags: W
AnchorPoint: "Ethiopic Mark" 277 648 basechar 0
LayerCount: 2
Fore
SplineSet
718 -28 m 1
 703.333333333 -34 688 -39.6666666667 672 -45 c 128
 656 -50.3333333333 639.666666667 -53 623 -53 c 0
 601.666666667 -53 583.166666667 -45.6666666667 567.5 -31 c 128
 551.833333333 -16.3333333333 543.333333333 1.33333333333 542 22 c 1
 388 8 l 2
 384.666666667 8 381.333333333 7.83333333333 378 7.5 c 128
 374.666666667 7.16666666667 371 7 367 7 c 0
 350.333333333 7 339.833333333 11 335.5 19 c 128
 331.166666667 27 329 38.6666666667 329 54 c 0
 329 72.6666666667 329.666666667 96.3333333333 331 125 c 128
 332.333333333 153.666666667 333.833333333 184.666666667 335.5 218 c 128
 337.166666667 251.333333333 338.833333333 284 340.5 316 c 128
 342.166666667 348 343.5 377.333333333 344.5 404 c 128
 345.5 430.666666667 346 451.666666667 346 467 c 0
 346 483 344.333333333 501 341 521 c 128
 337.666666667 541 330.666666667 558.166666667 320 572.5 c 128
 309.333333333 586.833333333 293.333333333 594 272 594 c 0
 264 594 256.333333333 593 249 591 c 128
 241.666666667 589 235 584.666666667 229 578 c 0
 218.333333333 566.666666667 209.666666667 548.666666667 203 524 c 128
 196.333333333 499.333333333 191.333333333 471.166666667 188 439.5 c 128
 184.666666667 407.833333333 182.5 375.666666667 181.5 343 c 128
 180.5 310.333333333 179.833333333 280.666666667 179.5 254 c 128
 179.166666667 227.333333333 179 207 179 193 c 2
 179 144 l 2
 179 135.333333333 179.166666667 126.666666667 179.5 118 c 128
 179.833333333 109.333333333 180 100.666666667 180 92 c 0
 180.666666667 74.6666666667 182.833333333 61.3333333333 186.5 52 c 128
 190.166666667 42.6666666667 201 35.3333333333 219 30 c 1
 219 17 l 1
 118 2 l 2
 112 1.33333333333 106.333333333 0.666666666667 101 0 c 0
 91.6666666667 0 83 3.33333333333 75 10 c 0
 71 13.3333333333 66.8333333333 20.1666666667 62.5 30.5 c 128
 58.1666666667 40.8333333333 54.5 58.3333333333 51.5 83 c 128
 48.5 107.666666667 47 143 47 189 c 0
 47 231 47.3333333333 272.666666667 48 314 c 0
 49.3333333333 353.333333333 52 388 56 418 c 128
 60 448 70.6666666667 480.666666667 88 516 c 0
 102.666666667 544.666666667 122.333333333 567.666666667 147 585 c 128
 171.666666667 602.333333333 198.833333333 614.666666667 228.5 622 c 128
 258.166666667 629.333333333 288.333333333 633 319 633 c 0
 360.333333333 633 392 624.833333333 414 608.5 c 128
 436 592.166666667 451.166666667 570 459.5 542 c 128
 467.833333333 514 472 482 472 446 c 0
 472 383.333333333 469.666666667 320.666666667 465 258 c 128
 460.333333333 195.333333333 458 132.333333333 458 69 c 0
 458 61.6666666667 460 57.1666666667 464 55.5 c 128
 468 53.8333333333 473.333333333 53 480 53 c 0
 490.666666667 53 501.166666667 53.5 511.5 54.5 c 128
 521.833333333 55.5 532 56.6666666667 542 58 c 1
 556 80 574.166666667 94.6666666667 596.5 102 c 128
 618.833333333 109.333333333 642.333333333 113 667 113 c 0
 681.666666667 113 695 111.333333333 707 108 c 1
 703 98.6666666667 699.166666667 88.5 695.5 77.5 c 128
 691.833333333 66.5 690 56 690 46 c 0
 690 31.3333333333 692.333333333 18.3333333333 697 7 c 128
 701.666666667 -4.33333333333 708.666666667 -16 718 -28 c 1
EndSplineSet
EndChar
